<svg width="24" height="24" viewBox="0 0 24 24" fill="none" xmlns="http://www.w3.org/2000/svg">
<g clip-path="url(#clip0_1140_596)">
<path d="M23.5195 12C23.5195 18.3607 18.3631 23.5171 12.0024 23.5171H11.9971C5.63635 23.5171 0.47998 18.3607 0.47998 12C0.47998 5.63931 5.63635 0.48291 11.9971 0.48291H12.0024C18.3631 0.48291 23.5195 5.63928 23.5195 12Z" fill="#FF9933"/>
<path opacity="0.25" d="M20.8256 18.0739C20.822 18.5581 20.7932 19.0351 20.7392 19.5067C18.8438 21.7081 16.1331 23.1859 13.0749 23.4667H10.9239C5.06499 22.9267 0.480469 17.9983 0.480469 12.0008V11.999C0.480469 10.1019 0.939471 8.31269 1.75306 6.73411C3.69704 5.66134 5.94701 5.07634 8.33738 5.14653C15.2816 5.34634 20.8598 11.126 20.8256 18.0739Z" fill="white"/>
<path opacity="0.25" d="M23.5198 11.9991V12.0009C23.5198 15.2606 22.1644 18.2036 19.9883 20.2987C16.293 18.038 13.8252 13.9628 13.8252 9.31351C13.8252 6.33455 14.8368 3.59319 16.5378 1.41162C20.6435 3.1702 23.5198 7.24894 23.5198 11.9991Z" fill="white"/>
<path d="M22.4399 17.8947H20.4791C20.3797 17.8947 20.2991 17.814 20.2991 17.7147C20.2991 17.6153 20.3797 17.5347 20.4791 17.5347H22.4399C22.5393 17.5347 22.6199 17.6153 22.6199 17.7147C22.6199 17.814 22.5393 17.8947 22.4399 17.8947ZM19.0255 17.8947H1.55988C1.46051 17.8947 1.37988 17.814 1.37988 17.7147C1.37988 17.6153 1.46051 17.5347 1.55988 17.5347H19.0255C19.1249 17.5347 19.2055 17.6153 19.2055 17.7147C19.2055 17.814 19.1249 17.8947 19.0255 17.8947Z" fill="#4C4947"/>
<path d="M18.8854 14.1457L18.2598 13.9244V12.5649H5.74028V13.9244L5.11465 14.1457C4.8759 14.2302 4.71631 14.4559 4.71631 14.7092V16.9372C4.71631 17.2673 4.9839 17.5348 5.31398 17.5348H18.6861C19.0162 17.5348 19.2838 17.2673 19.2838 16.9372V14.7092C19.2838 14.4559 19.1242 14.2302 18.8854 14.1457Z" fill="#9966CC"/>
<path d="M18.2598 13.9243V6.72552C18.2598 6.05973 17.72 5.52002 17.0543 5.52002H6.94573C6.27996 5.52002 5.74023 6.05973 5.74023 6.72552V13.9243H18.2598Z" fill="white"/>
<path d="M14.2078 10.0332H9.79199V13.9243H14.2078V10.0332Z" fill="#666666"/>
<path d="M17.1558 7.01919V7.871C17.1558 8.02924 17.0275 8.15753 16.8693 8.15753H16.0175C15.8592 8.15753 15.731 8.02924 15.731 7.871V7.01919C15.731 6.86095 15.8592 6.73267 16.0175 6.73267H16.8693C17.0275 6.73267 17.1558 6.86095 17.1558 7.01919Z" fill="#666666"/>
<path d="M8.26912 6.73267H6.84424V7.57411H8.26912V6.73267Z" fill="#666666"/>
<path d="M17.0051 9.57364C17.0051 9.84044 16.788 10.0576 16.523 10.0576C16.2562 10.0576 16.0391 9.84044 16.0391 9.57364C16.0391 9.30685 16.2562 9.09155 16.523 9.09155C16.788 9.09155 17.0051 9.30685 17.0051 9.57364Z" fill="#77E244"/>
<path d="M8.03974 9.57364C8.03974 9.84044 7.82262 10.0576 7.55766 10.0576C7.29085 10.0576 7.07373 9.84044 7.07373 9.57364C7.07373 9.30685 7.29085 9.09155 7.55766 9.09155C7.82262 9.09155 8.03974 9.30685 8.03974 9.57364Z" fill="#FF4848"/>
<path d="M15.8743 15.5967V20.1555C15.8743 20.5556 15.5499 20.88 15.1498 20.88H8.85C8.44986 20.88 8.12549 20.5556 8.12549 20.1555V15.5967H15.8743Z" fill="white"/>
<path d="M14.4045 18.8394C14.5903 19.1228 14.4036 19.521 14.0647 19.5258C14.0621 19.5259 14.0596 19.5259 14.057 19.5259H12.0674C12.0834 19.5015 13.247 17.7269 13.1729 17.84C13.3093 17.6328 13.613 17.6328 13.7494 17.84L14.4045 18.8394Z" fill="#595857"/>
<path d="M13.1272 19.5261H10.0527C9.75985 19.5261 9.52246 19.2887 9.52246 18.9959C9.52246 18.8993 9.55067 18.8049 9.60362 18.7241L10.8146 16.8776C10.951 16.6704 11.2547 16.6704 11.3911 16.8776C14.7608 22.0194 11.406 16.9003 13.1272 19.5261Z" fill="#666666"/>
<path d="M14.1683 9.93483C14.1683 11.1332 13.1972 12.1043 12.001 12.1043C10.8026 12.1043 9.83154 11.1332 9.83154 9.93483C9.83154 8.73865 10.8026 7.76758 12.001 7.76758C13.1972 7.76758 14.1683 8.73865 14.1683 9.93483Z" fill="#00CC99"/>
<path d="M12.0012 12.3445C10.6727 12.3445 9.5918 11.2635 9.5918 9.93485C9.5918 8.60759 10.6727 7.52759 12.0012 7.52759C13.3284 7.52759 14.4084 8.60759 14.4084 9.93485C14.4084 11.2635 13.3284 12.3445 12.0012 12.3445ZM12.0012 8.00759C10.9373 8.00759 10.0718 8.87219 10.0718 9.93485C10.0718 10.9989 10.9373 11.8645 12.0012 11.8645C13.0638 11.8645 13.9284 10.9989 13.9284 9.93485C13.9284 8.87219 13.0638 8.00759 12.0012 8.00759Z" fill="#000033"/>
<path d="M13.1755 12.8718C14.7432 12.2224 15.4877 10.4251 14.8383 8.85739C14.189 7.28967 12.3917 6.54521 10.824 7.19457C9.25624 7.84394 8.51177 9.64125 9.16114 11.209C9.81051 12.7767 11.6078 13.5211 13.1755 12.8718Z" fill="#C9EAF5"/>
<path d="M12.6769 11.6674C13.5794 11.2935 14.008 10.2588 13.6342 9.3563C13.2603 8.45378 12.2256 8.0252 11.3231 8.39904C10.4206 8.77287 9.99202 9.80756 10.3659 10.7101C10.7397 11.6126 11.7744 12.0412 12.6769 11.6674Z" fill="#6699FF"/>
<path d="M12.0001 10.7634C12.4033 10.7634 12.7302 10.4365 12.7302 10.0333C12.7302 9.63009 12.4033 9.30322 12.0001 9.30322C11.5969 9.30322 11.27 9.63009 11.27 10.0333C11.27 10.4365 11.5969 10.7634 12.0001 10.7634Z" fill="#4E8CF2"/>
<path d="M11.7475 9.55123C11.7475 9.68647 11.6364 9.79757 11.4988 9.79757C11.3635 9.79757 11.2524 9.68647 11.2524 9.55123C11.2524 9.41357 11.3635 9.30249 11.4988 9.30249C11.6364 9.30249 11.7475 9.41357 11.7475 9.55123Z" fill="white"/>
<path d="M16.6695 15.8382H7.33037C7.19688 15.8382 7.08887 15.7302 7.08887 15.5967C7.08887 15.4632 7.19688 15.3552 7.33037 15.3552H16.6695C16.803 15.3552 16.911 15.4632 16.911 15.5967C16.911 15.7302 16.803 15.8382 16.6695 15.8382Z" fill="#7B51B7"/>
</g>
<defs>
<clipPath id="clip0_1140_596">
<rect width="24" height="24" fill="white"/>
</clipPath>
</defs>
</svg>
