<svg width="24" height="24" viewBox="0 0 24 24" fill="none" xmlns="http://www.w3.org/2000/svg">
<path d="M12 16.5C14.4853 16.5 16.5 14.4853 16.5 12C16.5 9.51472 14.4853 7.5 12 7.5C9.51472 7.5 7.5 9.51472 7.5 12C7.5 14.4853 9.51472 16.5 12 16.5Z" fill="#FCD465"/>
<path d="M13.5937 7.79712C14.082 8.59693 14.3077 9.52946 14.2392 10.464C14.1707 11.3985 13.8116 12.2882 13.212 13.0083C12.6125 13.7285 11.8026 14.2429 10.8959 14.4796C9.98928 14.7163 9.03129 14.6633 8.15625 14.3281C8.52686 14.9416 9.03876 15.4576 9.64928 15.8331C10.2598 16.2086 10.9512 16.4327 11.6659 16.4867C12.3807 16.5407 13.0979 16.4231 13.7579 16.1436C14.418 15.8641 15.0016 15.4309 15.4602 14.8801C15.9188 14.3293 16.2391 13.6768 16.3943 12.9771C16.5495 12.2773 16.5352 11.5506 16.3526 10.8575C16.17 10.1644 15.8243 9.52507 15.3444 8.9927C14.8645 8.46034 14.2642 8.05042 13.5937 7.79712Z" fill="#E5AC2E"/>
<path d="M19.4317 17.3951L17.0981 19.1453L12.8085 19.86L11.883 19.3973L12.168 19.1123L15.7867 18.8111C16.0856 18.7837 16.3633 18.645 16.5649 18.4226C16.7664 18.2002 16.8771 17.9102 16.875 17.61C16.8747 17.3164 16.7683 17.0328 16.5753 16.8116C16.3823 16.5903 16.1158 16.4464 15.825 16.4063L10.9241 15.7538C10.8805 15.7479 10.8362 15.7498 10.7932 15.7594L7.45871 16.5H4.49996C4.4005 16.5 4.30512 16.5395 4.2348 16.6098C4.16447 16.6802 4.12496 16.7756 4.12496 16.875V21C4.12496 21.0995 4.16447 21.1949 4.2348 21.2652C4.30512 21.3355 4.4005 21.375 4.49996 21.375H6.68921L11.1315 22.8559C11.1906 22.8755 11.2538 22.8802 11.3152 22.8694L17.6902 21.7444C17.7585 21.7323 17.8221 21.7015 17.874 21.6555L20.7926 19.0609C21.0024 18.877 21.1326 18.6188 21.1557 18.3407C21.1788 18.0627 21.0931 17.7866 20.9165 17.5705C20.74 17.3545 20.4865 17.2154 20.2094 17.1827C19.9323 17.15 19.6537 17.2262 19.4317 17.3951ZM20.7787 2.62501H18.5895L14.1476 1.14414C14.0885 1.12419 14.0252 1.11955 13.9638 1.13064L7.58884 2.25564C7.52057 2.26778 7.45698 2.29853 7.40509 2.34451L4.48646 4.93914C4.27665 5.12304 4.14646 5.38124 4.12333 5.65928C4.10021 5.93732 4.18596 6.21348 4.36251 6.42951C4.53906 6.64555 4.7926 6.78459 5.06967 6.81731C5.34675 6.85002 5.6257 6.77387 5.84771 6.60489L8.18096 4.85476L12.4706 4.14001L13.3961 4.60276L13.1111 4.88776L9.49234 5.18889C9.19343 5.21632 8.91573 5.35498 8.71419 5.57742C8.51266 5.79986 8.40198 6.08986 8.40409 6.39001C8.40432 6.68361 8.51076 6.9672 8.70375 7.18845C8.89674 7.4097 9.16325 7.55366 9.45409 7.59376L14.3546 8.24701C14.371 8.24911 14.3875 8.25011 14.4041 8.25001C14.4315 8.25004 14.4588 8.24702 14.4855 8.24101L17.82 7.50001H20.7787C20.8782 7.50001 20.9735 7.46051 21.0439 7.39018C21.1142 7.31985 21.1537 7.22447 21.1537 7.12501V3.00001C21.1537 2.90056 21.1142 2.80518 21.0439 2.73485C20.9735 2.66452 20.8782 2.62501 20.7787 2.62501Z" fill="#FFAB91"/>
<path d="M6.74951 20.6251H4.12451V21.0001C4.12451 21.0995 4.16402 21.1949 4.23435 21.2653C4.30467 21.3356 4.40006 21.3751 4.49951 21.3751H6.68876C11.3763 22.9306 11.1344 22.8751 11.2495 22.8751C11.3118 22.8751 11.2833 22.8732 12.772 22.6126C6.47051 20.5186 6.86276 20.6251 6.74951 20.6251ZM16.8663 17.6967C16.8685 17.6678 16.8745 17.6397 16.8745 17.6101C16.8743 17.3165 16.7678 17.0329 16.5749 16.8117C16.3819 16.5904 16.1154 16.4464 15.8245 16.4063L10.9236 15.7538C10.88 15.7479 10.8357 15.7498 10.7928 15.7595L7.45826 16.5001H4.49951C4.40006 16.5001 4.30467 16.5396 4.23435 16.6099C4.16402 16.6802 4.12451 16.7756 4.12451 16.8751V17.6251H7.49951C7.5265 17.6251 7.5534 17.6222 7.57976 17.6165L10.9068 16.886L15.2875 17.4698L16.8663 17.6967Z" fill="#F4947A"/>
<path d="M19.4318 17.3951L17.0982 19.1453L12.8086 19.86L11.8831 19.3973L12.5701 18.7106L12.0398 18.18L10.5061 19.7138L11.0363 20.244L11.3239 19.9564L12.5821 20.5856C12.653 20.621 12.7334 20.6329 12.8116 20.6198L17.3116 19.8698C17.3709 19.8599 17.4269 19.836 17.4751 19.8L20.6989 17.382C20.5136 17.2494 20.2909 17.1793 20.063 17.1816C19.8352 17.184 19.6144 17.2588 19.4318 17.3951ZM18.5288 3.375H21.1538V3C21.1538 2.90055 21.1143 2.80516 21.044 2.73484C20.9736 2.66451 20.8783 2.625 20.7788 2.625H18.5896C13.9021 1.0695 14.1439 1.125 14.0288 1.125C13.9666 1.125 13.9951 1.12688 12.5063 1.3875C18.8089 3.4815 18.4163 3.375 18.5296 3.375H18.5288ZM8.41206 6.30338C8.40981 6.33225 8.40381 6.36038 8.40381 6.39C8.40404 6.68359 8.51048 6.96719 8.70347 7.18844C8.89646 7.40968 9.16297 7.55365 9.45381 7.59375L14.3543 8.247C14.3979 8.2529 14.4422 8.25099 14.4852 8.24138L17.8201 7.5H20.7788C20.8783 7.5 20.9736 7.46049 21.044 7.39017C21.1143 7.31984 21.1538 7.22446 21.1538 7.125V6.375H17.7788C17.7518 6.37495 17.7249 6.37784 17.6986 6.38363L14.3716 7.11413L9.99081 6.53025L8.41206 6.30338Z" fill="#F4947A"/>
<path d="M5.8472 6.60479L8.18083 4.85467L12.4705 4.13991L13.396 4.60267L12.7093 5.28929L13.2396 5.81954L14.773 4.28617L14.2427 3.75591L13.9551 4.04354L12.6966 3.41429C12.6257 3.37902 12.5455 3.36707 12.4675 3.38016L7.96745 4.13016C7.90816 4.14 7.85209 4.16392 7.80395 4.19991L4.58008 6.61792C4.76544 6.75041 4.98813 6.82055 5.21597 6.81819C5.44381 6.81583 5.66462 6.7411 5.8472 6.60479Z" fill="#F4947A"/>
<path d="M19.4317 17.3951L17.0981 19.1453L12.8085 19.86L11.883 19.3973L12.168 19.1123L15.7867 18.8111C16.0856 18.7837 16.3633 18.645 16.5649 18.4226C16.7664 18.2002 16.8771 17.9102 16.875 17.61C16.8747 17.3164 16.7683 17.0328 16.5753 16.8116C16.3823 16.5903 16.1158 16.4464 15.825 16.4063L13.7756 16.1333C14.5225 15.8131 15.1686 15.2965 15.6453 14.6384C16.122 13.9803 16.4113 13.2053 16.4826 12.3958C16.5538 11.5863 16.4043 10.7726 16.0499 10.0414C15.6956 9.3101 15.1496 8.68856 14.4701 8.24289C14.475 8.24177 14.4802 8.24214 14.4851 8.24101L17.8207 7.50001H20.7795V6.75001H17.7795C17.7521 6.74999 17.7248 6.75301 17.6981 6.75901L14.388 7.49439L9.55384 6.85014C9.43963 6.83429 9.33543 6.77645 9.26158 6.6879C9.18774 6.59935 9.14954 6.48646 9.15446 6.37126C9.15497 6.26194 9.19628 6.15675 9.27029 6.07628C9.3443 5.99582 9.44569 5.94589 9.55459 5.93626L13.3106 5.62351C13.399 5.61618 13.482 5.57764 13.5446 5.51476L14.2946 4.76476C14.3366 4.72274 14.368 4.67136 14.3862 4.61483C14.4044 4.55831 14.4089 4.49826 14.3994 4.43963C14.3899 4.38101 14.3666 4.32549 14.3314 4.27763C14.2962 4.22978 14.2502 4.19097 14.1971 4.16439L12.6971 3.41439C12.6263 3.37848 12.5458 3.36638 12.4676 3.37989L7.96759 4.12989C7.90839 4.1399 7.85245 4.16394 7.80446 4.20001L5.39771 6.00489C5.33054 6.05828 5.24505 6.08307 5.15974 6.07387C5.07443 6.06468 4.99617 6.02224 4.94193 5.95577C4.88768 5.88929 4.8618 5.80411 4.8699 5.71869C4.87801 5.63327 4.91943 5.55448 4.98521 5.49939L7.82396 2.97564L14.001 1.88626L18.411 3.35626C18.449 3.36878 18.4887 3.37511 18.5287 3.37501H20.7787V2.62501H18.5895L14.1476 1.14414C14.0885 1.12419 14.0252 1.11955 13.9638 1.13064L7.58884 2.25564C7.52057 2.26778 7.45698 2.29853 7.40509 2.34451L4.48646 4.93914C4.27665 5.12304 4.14646 5.38124 4.12333 5.65928C4.10021 5.93732 4.18596 6.21348 4.36251 6.42951C4.53906 6.64555 4.7926 6.78459 5.06967 6.81731C5.34675 6.85002 5.6257 6.77387 5.84771 6.60489L8.18096 4.85476L12.4706 4.14001L13.3961 4.60276L13.1111 4.88776L9.49234 5.18889C9.19343 5.21632 8.91573 5.35498 8.71419 5.57742C8.51266 5.79986 8.40198 6.08986 8.40409 6.39001C8.40432 6.68361 8.51076 6.9672 8.70375 7.18845C8.89674 7.4097 9.16325 7.55366 9.45409 7.59376L10.5592 7.74114C9.72826 8.02147 8.99743 8.5387 8.45673 9.22914C7.91602 9.91958 7.58905 10.7531 7.51608 11.627C7.4431 12.5009 7.6273 13.3771 8.04601 14.1477C8.46471 14.9182 9.09963 15.5495 9.87259 15.9638L7.45871 16.5H4.49996V17.25H7.49996C7.52734 17.25 7.55463 17.247 7.58134 17.241L10.8915 16.5056L15.726 17.1499C15.8401 17.1658 15.9442 17.2237 16.018 17.3122C16.0918 17.4008 16.1299 17.5136 16.125 17.6288C16.1245 17.7381 16.0831 17.8433 16.0091 17.9237C15.9351 18.0042 15.8337 18.0541 15.7248 18.0638L11.9688 18.3761C11.8804 18.3835 11.7975 18.422 11.7348 18.4849L10.9848 19.2349C10.9428 19.2769 10.9113 19.3283 10.8931 19.3849C10.8748 19.4415 10.8702 19.5016 10.8797 19.5602C10.8893 19.6189 10.9126 19.6745 10.9478 19.7224C10.9831 19.7703 11.0292 19.8091 11.0823 19.8356L12.5823 20.5856C12.6533 20.6211 12.7336 20.6332 12.8118 20.6201L17.3118 19.8701C17.371 19.8601 17.427 19.8361 17.475 19.8L19.8817 17.9948C19.9489 17.9414 20.0344 17.9166 20.1197 17.9258C20.205 17.935 20.2832 17.9774 20.3375 18.0439C20.3917 18.1104 20.4176 18.1955 20.4095 18.281C20.4014 18.3664 20.36 18.4452 20.2942 18.5003L17.4555 21.024L11.2785 22.1141L6.86846 20.6441C6.83025 20.6314 6.79023 20.625 6.74996 20.625H4.49996V21.375H6.68921L11.1315 22.8559C11.1906 22.8755 11.2538 22.8802 11.3152 22.8694L17.6902 21.7444C17.7585 21.7323 17.8221 21.7015 17.874 21.6555L20.7926 19.0609C21.0024 18.877 21.1326 18.6188 21.1557 18.3407C21.1788 18.0627 21.0931 17.7866 20.9165 17.5705C20.74 17.3545 20.4865 17.2154 20.2094 17.1827C19.9323 17.15 19.6537 17.2262 19.4317 17.3951ZM8.24996 12C8.24996 11.2583 8.46989 10.5333 8.88195 9.91663C9.29401 9.29994 9.87968 8.81929 10.5649 8.53547C11.2501 8.25164 12.0041 8.17737 12.7316 8.32207C13.459 8.46676 14.1272 8.82392 14.6516 9.34836C15.1761 9.87281 15.5332 10.541 15.6779 11.2684C15.8226 11.9959 15.7483 12.7499 15.4645 13.4351C15.1807 14.1203 14.7 14.706 14.0833 15.118C13.4667 15.5301 12.7416 15.75 12 15.75C11.0057 15.7489 10.0525 15.3535 9.34952 14.6505C8.64649 13.9474 8.25105 12.9942 8.24996 12Z" fill="black"/>
<path d="M12.3752 14.6516V14.061C12.6928 14.0531 12.9947 13.9214 13.2166 13.694C13.4384 13.4666 13.5626 13.1615 13.5626 12.8438C13.5626 12.5261 13.4384 12.2209 13.2166 11.9935C12.9947 11.7661 12.6928 11.6344 12.3752 11.6265V10.6901C12.4968 10.6934 12.6123 10.7438 12.6973 10.8309C12.7823 10.9179 12.8301 11.0346 12.8304 11.1563H13.5804C13.5799 10.8357 13.4531 10.5282 13.2275 10.3004C13.0019 10.0726 12.6957 9.94276 12.3752 9.93901V9.34839H11.6252V9.93901C11.3076 9.9469 11.0056 10.0786 10.7838 10.306C10.5619 10.5334 10.4378 10.8386 10.4378 11.1563C10.4378 11.474 10.5619 11.7791 10.7838 12.0065C11.0056 12.2339 11.3076 12.3656 11.6252 12.3735V13.3099C11.5036 13.3067 11.388 13.2562 11.303 13.1692C11.218 13.0821 11.1703 12.9654 11.1699 12.8438H10.4199C10.4205 13.1644 10.5473 13.4718 10.7728 13.6996C10.9984 13.9274 11.3046 14.0573 11.6252 14.061V14.6516H12.3752ZM12.8304 12.8438C12.8301 12.9654 12.7823 13.0821 12.6973 13.1692C12.6123 13.2562 12.4968 13.3067 12.3752 13.3099V12.3776C12.4968 12.3809 12.6123 12.4313 12.6973 12.5184C12.7823 12.6054 12.8301 12.7221 12.8304 12.8438ZM11.1699 11.1563C11.1703 11.0346 11.218 10.9179 11.303 10.8309C11.388 10.7438 11.5036 10.6934 11.6252 10.6901V11.6224C11.5036 11.6192 11.388 11.5687 11.303 11.4817C11.218 11.3946 11.1703 11.2779 11.1699 11.1563Z" fill="black"/>
</svg>
