<svg width="24" height="24" viewBox="0 0 24 24" fill="none" xmlns="http://www.w3.org/2000/svg">
<path d="M7.6875 10.0125C7.6875 7.61255 9.6375 6.30005 12.0375 6.30005C14.4375 6.30005 16.3875 7.61255 16.3875 10.0125C13.4625 12.15 10.575 12.15 7.6875 10.0125Z" fill="#FCD66F"/>
<path d="M12.0376 7.87505C12.9696 7.87505 13.7251 7.52247 13.7251 7.08755C13.7251 6.65262 12.9696 6.30005 12.0376 6.30005C11.1056 6.30005 10.3501 6.65262 10.3501 7.08755C10.3501 7.52247 11.1056 7.87505 12.0376 7.87505Z" fill="#E6AC43"/>
<path d="M14.7748 4.2375C14.7748 5.7375 13.3873 7.4625 12.0373 7.4625C10.6873 7.4625 9.2998 5.775 9.2998 4.2375C9.2998 2.7 10.4998 1.5 12.0373 1.5C13.5748 1.5 14.7748 2.7375 14.7748 4.2375Z" fill="#FCE0B9"/>
<path d="M11.4377 4.27505C11.4377 4.27505 11.2127 4.50005 10.9127 4.50005C10.6127 4.50005 10.3877 4.27505 10.3877 4.27505C10.3877 4.27505 10.6127 4.05005 10.9127 4.05005C11.1752 4.01255 11.4377 4.27505 11.4377 4.27505Z" fill="white"/>
<path d="M10.8751 4.425C10.9579 4.425 11.0251 4.35784 11.0251 4.275C11.0251 4.19216 10.9579 4.125 10.8751 4.125C10.7923 4.125 10.7251 4.19216 10.7251 4.275C10.7251 4.35784 10.7923 4.425 10.8751 4.425Z" fill="#445C6C"/>
<path d="M10.8748 4.34995C10.9162 4.34995 10.9498 4.31637 10.9498 4.27495C10.9498 4.23353 10.9162 4.19995 10.8748 4.19995C10.8334 4.19995 10.7998 4.23353 10.7998 4.27495C10.7998 4.31637 10.8334 4.34995 10.8748 4.34995Z" fill="#2D434F"/>
<path d="M10.2749 4.05C10.4624 3.9375 10.6499 3.8625 10.8374 3.825C10.9499 3.7875 11.0624 3.7875 11.1749 3.825C11.2874 3.825 11.3999 3.8625 11.4749 3.9375L11.3999 4.05C11.3249 3.975 11.2499 3.9375 11.1374 3.9375C11.0624 3.9 10.9499 3.9 10.8374 3.9C10.6499 3.9 10.4624 3.9375 10.2749 4.05Z" fill="#445C6C"/>
<path d="M12.6377 4.27505C12.6377 4.27505 12.8627 4.50005 13.1627 4.50005C13.4627 4.50005 13.6877 4.27505 13.6877 4.27505C13.6877 4.27505 13.4627 4.05005 13.1627 4.05005C12.8627 4.01255 12.6377 4.27505 12.6377 4.27505Z" fill="white"/>
<path d="M13.1627 4.425C13.2455 4.425 13.3127 4.35784 13.3127 4.275C13.3127 4.19216 13.2455 4.125 13.1627 4.125C13.0799 4.125 13.0127 4.19216 13.0127 4.275C13.0127 4.35784 13.0799 4.425 13.1627 4.425Z" fill="#445C6C"/>
<path d="M13.1253 4.2C13.0878 4.2375 13.0878 4.275 13.1253 4.3125C13.1628 4.35 13.2003 4.35 13.2378 4.3125C13.2753 4.275 13.2753 4.2375 13.2378 4.2C13.2003 4.1625 13.1628 4.1625 13.1253 4.2Z" fill="#2D434F"/>
<path d="M13.8001 4.05C13.6126 3.9375 13.4251 3.8625 13.2376 3.825C13.1251 3.7875 13.0126 3.7875 12.9001 3.825C12.7876 3.825 12.6751 3.8625 12.6001 3.9375L12.6751 4.05C12.7501 3.975 12.8251 3.9375 12.9376 3.9375C13.0126 3.9 13.1251 3.9 13.2376 3.9C13.3876 3.9 13.6126 3.9375 13.8001 4.05Z" fill="#445C6C"/>
<path d="M11.1748 5.77505C11.3248 5.85005 11.4748 5.88755 11.5873 5.92505C11.7373 5.96255 11.8873 5.96255 11.9998 5.96255C12.1498 5.96255 12.2998 5.92505 12.4123 5.88755C12.5623 5.85005 12.7123 5.81255 12.8623 5.73755C12.7498 5.88755 12.5998 5.96255 12.4498 6.03755C12.2998 6.11255 12.1498 6.15005 11.9998 6.15005C11.8498 6.15005 11.6998 6.11255 11.5498 6.03755C11.4373 6.00005 11.2873 5.92505 11.1748 5.77505Z" fill="#F7747E"/>
<path d="M13.9125 1.65004C14.7 2.40004 14.775 4.01254 14.775 4.01254C14.775 4.01254 13.1625 3.97504 12.375 3.22504C11.5875 2.47504 11.5125 1.72504 11.9625 1.27504C12.375 0.862544 13.125 0.900044 13.9125 1.65004Z" fill="#445C6C"/>
<path d="M11.9623 1.83762C12.0373 1.61262 11.9623 1.35012 11.7373 1.23762L11.6998 1.20012C11.5498 1.08762 11.3623 1.08762 11.1748 1.16262C11.0623 1.20012 10.9498 1.23762 10.8748 1.27512C10.5373 1.42512 10.1623 1.57512 9.78728 2.10012C9.18728 2.88762 9.26228 4.27512 9.26228 4.27512C9.26228 4.27512 10.6123 3.93762 11.1748 3.11262C11.2498 3.07512 11.2498 3.03762 11.2873 3.03762C11.4373 3.30012 11.6623 3.48762 11.9248 3.67512C12.0748 3.78762 12.2623 3.86262 12.4123 3.93762C11.8873 3.33762 11.6998 2.51262 11.9623 1.83762Z" fill="#445C6C"/>
<path d="M12.0002 2.55L7.0127 1.275L12.0002 0L16.9877 1.275L12.0002 2.55Z" fill="#2D434F"/>
<path d="M14.5501 2.8876C12.8251 2.4751 11.1376 2.4751 9.4126 2.8876V1.5751C9.4126 1.4626 9.4876 1.3501 9.6001 1.3501C11.1751 0.975098 12.7501 0.975098 14.3626 1.3501C14.4751 1.3876 14.5501 1.4626 14.5501 1.5751V2.8876Z" fill="#364C56"/>
<path d="M15.6005 1.23755H15.3755V3.00005H15.6005V1.23755Z" fill="#2D434F"/>
<path d="M16.1253 4.87515H14.9253L15.4128 3.33765H15.6003L16.1253 4.87515Z" fill="#627C89"/>
<path d="M15.9004 3.2251C15.9004 3.4501 15.7129 3.6001 15.5254 3.6001C15.3004 3.6001 15.1504 3.4126 15.1504 3.2251C15.1504 3.0001 15.3379 2.8501 15.5254 2.8501C15.7129 2.8501 15.9004 3.0001 15.9004 3.2251Z" fill="#627C89"/>
<path d="M8.25016 10.3875C8.25016 10.3125 7.83766 8.13745 10.0502 6.26245L10.3877 6.63745C8.40016 8.32495 8.73766 10.2 8.73766 10.275L8.25016 10.3875Z" fill="#EBEBEB"/>
<path d="M10.9128 6.7499C10.5378 7.1249 10.0128 7.2374 9.75029 6.9749C9.48779 6.7124 9.56279 6.1874 9.97529 5.8124C10.3503 5.4374 10.8753 5.3249 11.1378 5.5874C11.3628 5.8124 11.2878 6.3749 10.9128 6.7499Z" fill="#445C6C"/>
<path d="M17.4375 9.8999H6.5625V23.9999H17.4375V9.8999Z" fill="#ECB285"/>
<path d="M16.2891 23.9762V11.2637H7.73906V23.9762H16.2891Z" fill="#FCE0B9"/>
<path d="M18.5252 9.8999H5.5127V11.6999H18.5252V9.8999Z" fill="#CE9278"/>
<path d="M12.0003 15L12.6003 16.8375H14.5128L12.9753 17.9625L13.5378 19.7625L12.0003 18.6375L10.4628 19.7625L11.0253 17.9625L9.48779 16.8375H11.4003L12.0003 15Z" fill="#CE9278"/>
</svg>
