<svg width="13" height="24" viewBox="0 0 13 24" fill="none" xmlns="http://www.w3.org/2000/svg">
<g clip-path="url(#clip0_1140_773)">
<path d="M6.54502 24C5.66856 23.9993 4.79274 23.9569 3.92116 23.873C3.23593 23.8079 2.5981 23.5248 2.12047 23.0737C1.64284 22.6227 1.35619 22.0327 1.3112 21.4081L0.534437 10.9668L0 10.9215V9.52484C0.000354532 9.18271 0.100464 8.84677 0.290144 8.5512C0.479823 8.25563 0.752302 8.01098 1.07986 7.84215C1.40637 6.31243 2.77761 5.05473 4.66717 4.55258L4.31942 1.23375V1.18853C4.31942 0.889234 4.4695 0.136345 5.89711 0.0133019C6.00327 0.00465567 6.10356 0 6.20386 0C7.53483 0 7.68711 0.822059 7.70614 0.987003L8.0722 4.5027C10.0262 4.96827 11.497 6.25523 11.8557 7.81355C12.2 7.97719 12.4885 8.22314 12.6901 8.52484C12.8918 8.82654 12.9989 9.17254 13 9.52551V10.9222L12.4099 10.9714L11.6339 21.4161C11.5882 22.0393 11.3019 22.6278 10.8254 23.078C10.3489 23.5282 9.71272 23.8111 9.02906 23.877C8.20419 23.9565 7.37526 23.9962 6.54576 23.996L6.54502 24Z" fill="white"/>
<path d="M2.36857 21.3437C2.3978 21.7417 2.58064 22.1176 2.88489 22.4052C3.18914 22.6928 3.59532 22.8737 4.03192 22.916C5.65574 23.0753 7.29355 23.0779 8.91799 22.924C9.35424 22.8811 9.7598 22.6996 10.0632 22.4116C10.3665 22.1236 10.5482 21.7475 10.5762 21.3497L11.4145 10.083C11.5894 10.0697 11.7652 10.0564 11.9409 10.0417V9.52295C11.9407 9.2669 11.8292 9.02129 11.6306 8.83956C11.4321 8.65782 11.1626 8.55468 10.8808 8.55257C10.8808 6.9018 9.23353 5.53703 7.09285 5.31356L7.01964 4.6325L6.86004 3.10278L6.71362 1.6675L6.70044 1.54312L6.65212 1.07756C6.64261 0.988435 6.34977 0.941213 5.99835 0.971142C5.64694 1.00107 5.36874 1.09818 5.37826 1.1873L5.51736 2.51749L5.59057 3.24511L5.67769 4.07847L5.80874 5.32087C3.68929 5.55565 2.06475 6.9171 2.06475 8.55324C1.79277 8.56815 1.5373 8.6768 1.35049 8.85701C1.16369 9.03722 1.05964 9.27541 1.05957 9.52295V10.0431C1.21697 10.0564 1.37438 10.0683 1.53105 10.0803L2.36857 21.3437Z" fill="white"/>
<path d="M6.47246 11.8253C8.90694 11.8253 10.8805 10.3603 10.8805 8.55304C10.8805 6.74581 8.90694 5.28076 6.47246 5.28076C4.03799 5.28076 2.06445 6.74581 2.06445 8.55304C2.06445 10.3603 4.03799 11.8253 6.47246 11.8253Z" fill="#EAEAEA"/>
<path d="M1.43848 8.83716H11.5071L10.5759 21.3496C10.5472 21.747 10.3653 22.1224 10.0619 22.4099C9.75864 22.6973 9.35345 22.8784 8.91767 22.9212C7.29323 23.0752 5.65541 23.0725 4.03159 22.9133C3.59499 22.8709 3.18882 22.6901 2.88457 22.4025C2.58031 22.1149 2.39748 21.739 2.36825 21.341L1.43848 8.83716Z" fill="#EAEAEA"/>
<path d="M2.36621 11.5481C2.36621 11.5481 8.83729 10.5897 10.5738 11.6206L6.83059 12.1241L2.87722 12.0575L2.36621 11.5481Z" fill="#884E32"/>
<path d="M10.5738 11.6206L10.4911 12.7273L10.2049 16.5849L10.1778 16.948L9.9479 20.0347L9.91788 20.4464L9.85492 21.2904C9.83558 21.5393 9.72007 21.774 9.52878 21.953C9.33749 22.132 9.08273 22.2439 8.80947 22.2688C8.05723 22.3402 7.30141 22.376 6.54507 22.3759C5.73587 22.3751 4.92726 22.336 4.12253 22.2588C3.85157 22.2326 3.59949 22.1204 3.41066 21.9419C3.22184 21.7634 3.10838 21.5301 3.09026 21.2831L3.07489 21.0836L3.06098 20.8987L2.81206 17.5493L2.75423 16.7665L2.46505 12.8763L2.36621 11.5461C4.09726 11.7689 5.85095 11.8082 7.59198 11.6632C8.58398 11.582 9.60893 11.4397 10.5738 11.6206Z" fill="#BC6D34"/>
<path d="M8.20309 16.3147C8.56011 16.3147 8.84954 16.0518 8.84954 15.7274C8.84954 15.4031 8.56011 15.1401 8.20309 15.1401C7.84607 15.1401 7.55664 15.4031 7.55664 15.7274C7.55664 16.0518 7.84607 16.3147 8.20309 16.3147Z" fill="#723D1E"/>
<path d="M8.61675 15.6852C8.66678 15.6398 8.61579 15.5198 8.50286 15.4172C8.38992 15.3146 8.25781 15.2682 8.20778 15.3137C8.15775 15.3591 8.20874 15.4792 8.32167 15.5818C8.4346 15.6844 8.56671 15.7307 8.61675 15.6852Z" fill="#F2904C"/>
<path d="M7.614 5.78241C7.614 5.87486 7.4383 5.95666 7.16596 6.00854C7.12276 6.01586 7.07664 6.02384 7.02905 6.03049C6.64901 6.08078 6.26284 6.07921 5.88331 6.02584C5.83206 6.01852 5.78301 6.01054 5.73689 6.00123C5.48943 5.94868 5.33203 5.86821 5.33203 5.78307C5.33203 5.69794 5.52384 5.60217 5.81815 5.55029H5.83206C5.88477 5.54098 5.94188 5.533 6.00118 5.52701C6.15739 5.50998 6.31459 5.50154 6.47192 5.50174C6.68733 5.50091 6.90241 5.51715 7.11471 5.55029C7.41634 5.59951 7.614 5.68531 7.614 5.78241Z" fill="#CFCFCE"/>
<path d="M5.88259 6.02578L5.83867 5.60943L5.83281 5.54824L5.67907 4.0797L5.51654 2.51806L5.37744 1.18787L6.65131 1.07812L6.69962 1.54369L6.86288 3.10334L7.02175 4.63306L7.11766 5.54757L7.16524 6.00848C7.12205 6.0158 7.07593 6.02378 7.02834 6.03043C6.6483 6.08072 6.26212 6.07915 5.88259 6.02578Z" fill="#FFE8C8"/>
<path d="M7.32853 7.57071C7.02971 7.98068 6.62309 8.31648 6.14544 8.54773L5.99902 7.16899C6.47769 6.93833 6.88536 6.60272 7.18503 6.19263L7.32853 7.57071Z" fill="#F3CFB4"/>
<path d="M7.73759 11.4861C7.31207 11.5486 6.87827 11.5486 6.45275 11.4861L6.30633 10.1087L6.14307 8.54905C6.62071 8.3178 7.02734 7.98199 7.32615 7.57202L7.48868 9.13234L7.6351 10.5104L7.73759 11.4861Z" fill="#F3CFB4"/>
<path d="M6.03096 1.29325C6.38276 1.26293 6.66043 1.16631 6.65115 1.07745C6.64187 0.98859 6.34916 0.941137 5.99735 0.971461C5.64555 1.00178 5.36787 1.0984 5.37716 1.18726C5.38644 1.27612 5.67915 1.32358 6.03096 1.29325Z" fill="#F3CFB4"/>
<path d="M6.69968 1.54248L6.86221 3.10213C6.56357 3.51206 6.15688 3.84768 5.67913 4.07849L5.5166 2.51818C5.99416 2.28741 6.4008 1.95206 6.69968 1.54248Z" fill="#C64450"/>
<path d="M7.18474 6.19278C6.88629 6.60237 6.48018 6.93794 6.00312 7.16914L5.88232 6.02584C6.26185 6.07922 6.64803 6.08078 7.02807 6.03049C7.07566 6.02384 7.12178 6.01586 7.16497 6.00854L7.18474 6.19278Z" fill="#AE3B4C"/>
<path d="M7.16495 6.00854C7.12176 6.01586 7.07564 6.02384 7.02805 6.03049C6.64801 6.08078 6.26183 6.07921 5.88231 6.02584L5.83838 5.60949C5.89402 5.58288 5.9482 5.55495 6.00164 5.52502C6.40959 5.29969 6.7578 4.99538 7.02146 4.63379L7.11737 5.5483L7.16495 6.00854Z" fill="#C64450"/>
<path d="M7.49112 9.13107C7.19343 9.54202 6.78687 9.87844 6.30877 10.1094L6.14551 8.54978C6.62315 8.31853 7.02978 7.98272 7.32859 7.57275L7.49112 9.13107ZM7.73784 11.4862C7.31232 11.5487 6.87851 11.5487 6.45299 11.4862C6.93128 11.2557 7.33793 10.9195 7.63534 10.5085L7.73784 11.4862Z" fill="#AE3B4C"/>
<path d="M11.9409 10.043C8.32148 10.3469 4.67895 10.3469 1.05957 10.043V9.52352C1.05956 9.39154 1.08915 9.26094 1.14652 9.13969C1.2039 9.01844 1.28787 8.90908 1.39329 8.81828C1.49872 8.72748 1.62341 8.65714 1.75975 8.61156C1.89608 8.56597 2.04121 8.5461 2.18628 8.55314C5.06034 8.68716 7.94008 8.68716 10.8141 8.55314C10.9592 8.54619 11.1043 8.56614 11.2406 8.61175C11.3769 8.65737 11.5015 8.72772 11.6069 8.8185C11.7123 8.90928 11.7963 9.0186 11.8537 9.13981C11.9111 9.26101 11.9408 9.39157 11.9409 9.52352V10.043Z" fill="#CFCFCE"/>
<path d="M10.1763 16.9514L9.94638 20.0381L9.91636 20.4498L9.8534 21.2938C9.83407 21.5427 9.71855 21.7774 9.52726 21.9564C9.33597 22.1354 9.08121 22.2473 8.80796 22.2722C8.05572 22.3436 7.29989 22.3794 6.54355 22.3793C5.73435 22.3785 4.92575 22.3394 4.12102 22.2622C3.84974 22.2356 3.59754 22.1228 3.40893 21.9436C3.22033 21.7645 3.10744 21.5306 3.09021 21.2832L3.07484 21.0837L3.06093 20.8988L2.81201 17.5493C3.24759 17.2757 3.74654 17.0965 4.27039 17.0257C4.79424 16.9549 5.32899 16.9943 5.83341 17.141C6.22802 17.2607 6.5948 17.4456 6.98355 17.5819C7.3723 17.7183 7.79912 17.8067 8.2047 17.7203C8.5056 17.6538 8.77355 17.5015 9.03345 17.3485C9.29334 17.1955 9.56056 17.0419 9.86219 16.978C9.96496 16.9556 10.0707 16.9467 10.1763 16.9514Z" fill="#F7B33C"/>
<path d="M9.91763 20.4497L9.85467 21.2937C9.83534 21.5425 9.71982 21.7772 9.52853 21.9562C9.33724 22.1352 9.08248 22.2471 8.80923 22.272C8.05699 22.3434 7.30116 22.3792 6.54482 22.3791C5.73562 22.3783 4.92702 22.3392 4.12229 22.262C3.85074 22.2357 3.5982 22.123 3.40929 21.9438C3.22039 21.7647 3.1073 21.5306 3.09002 21.283L3.07464 21.0835C3.09221 21.0835 3.10905 21.0782 3.12589 21.0748C3.25987 21.0466 3.38412 20.9888 3.48768 20.9065C3.59123 20.8243 3.67089 20.7201 3.71963 20.6033C3.77454 20.4703 3.78552 20.3213 3.84262 20.1876C3.89973 20.0539 4.02052 19.9216 4.17866 19.9216C4.33679 19.9216 4.4715 20.0433 4.53373 20.1776C4.59596 20.312 4.61426 20.461 4.67429 20.5966C4.89393 21.0868 5.60846 21.2351 6.17511 21.1101C6.74176 20.9851 7.23154 20.6671 7.77769 20.4836C8.46714 20.2571 9.2199 20.2451 9.91763 20.4497ZM10.5736 11.6205L10.4909 12.7272C10.362 12.6863 10.2224 12.6828 10.0913 12.7171C9.96011 12.7514 9.84394 12.8219 9.75877 12.9188C9.61747 13.0944 9.53914 13.371 9.29974 13.3843C9.15332 13.391 9.03398 13.2812 8.96224 13.1662C8.89049 13.0511 8.84364 12.9208 8.7426 12.8257C7.94534 12.0728 7.30695 13.8013 7.05876 14.1831C6.957 14.3414 6.79374 14.4804 6.59387 14.505C6.01258 14.5768 5.69924 13.5513 5.50084 13.2141C5.44934 13.1255 5.37647 13.0486 5.28767 12.9892C5.19888 12.9297 5.09645 12.8893 4.98805 12.8709C4.87964 12.8525 4.76805 12.8566 4.66162 12.8828C4.55519 12.9091 4.45666 12.9568 4.3734 13.0225C4.21746 13.1436 4.12521 13.3165 4.00002 13.4635C3.87483 13.6105 3.68595 13.7395 3.48389 13.7109C3.22912 13.675 3.10027 13.4242 2.94652 13.2373C2.81786 13.0844 2.65098 12.9616 2.45967 12.8789L2.36084 11.5487C4.09189 11.7714 5.84558 11.8107 7.58661 11.6657C8.58374 11.5819 9.60869 11.4396 10.5736 11.6205Z" fill="#723D1E"/>
<path d="M9.50631 11.7876C9.86334 11.7876 10.1528 11.5247 10.1528 11.2003C10.1528 10.876 9.86334 10.613 9.50631 10.613C9.14929 10.613 8.85986 10.876 8.85986 11.2003C8.85986 11.5247 9.14929 11.7876 9.50631 11.7876Z" fill="#F7B33C"/>
<path d="M9.92046 11.1579C9.97049 11.1124 9.9195 10.9924 9.80657 10.8898C9.69364 10.7872 9.56153 10.7409 9.51149 10.7864C9.46146 10.8318 9.51245 10.9518 9.62538 11.0544C9.73831 11.157 9.87042 11.2033 9.92046 11.1579Z" fill="#FFD48F"/>
<path d="M7.78463 12.1846C8.14166 12.1846 8.43108 11.9216 8.43108 11.5973C8.43108 11.2729 8.14166 11.01 7.78463 11.01C7.42761 11.01 7.13818 11.2729 7.13818 11.5973C7.13818 11.9216 7.42761 12.1846 7.78463 12.1846Z" fill="#F7B33C"/>
<path d="M8.19829 11.5551C8.24832 11.5096 8.19733 11.3896 8.0844 11.287C7.97147 11.1844 7.83936 11.1381 7.78932 11.1836C7.73929 11.229 7.79028 11.349 7.90321 11.4516C8.01615 11.5542 8.14825 11.6006 8.19829 11.5551Z" fill="#FFD48F"/>
<path d="M5.21334 11.6086C5.57037 11.6086 5.85979 11.3457 5.85979 11.0214C5.85979 10.697 5.57037 10.4341 5.21334 10.4341C4.85632 10.4341 4.56689 10.697 4.56689 11.0214C4.56689 11.3457 4.85632 11.6086 5.21334 11.6086Z" fill="#F7B33C"/>
<path d="M5.627 10.9792C5.67703 10.9337 5.62604 10.8137 5.51311 10.7111C5.40018 10.6085 5.26807 10.5622 5.21803 10.6076C5.168 10.6531 5.21899 10.7731 5.33192 10.8757C5.44486 10.9783 5.57697 11.0246 5.627 10.9792Z" fill="#FFD48F"/>
<path d="M3.01266 12.1213C3.36968 12.1213 3.65911 11.8584 3.65911 11.5341C3.65911 11.2097 3.36968 10.9468 3.01266 10.9468C2.65564 10.9468 2.36621 11.2097 2.36621 11.5341C2.36621 11.8584 2.65564 12.1213 3.01266 12.1213Z" fill="#F7B33C"/>
<path d="M3.42632 11.4919C3.47635 11.4464 3.42536 11.3264 3.31243 11.2238C3.1995 11.1212 3.06738 11.0749 3.01735 11.1203C2.96732 11.1658 3.01831 11.2858 3.13124 11.3884C3.24417 11.491 3.37628 11.5373 3.42632 11.4919Z" fill="#FFD48F"/>
<path d="M6.41159 20.0952C6.76861 20.0952 7.05804 19.8323 7.05804 19.5079C7.05804 19.1836 6.76861 18.9207 6.41159 18.9207C6.05456 18.9207 5.76514 19.1836 5.76514 19.5079C5.76514 19.8323 6.05456 20.0952 6.41159 20.0952Z" fill="#723D1E"/>
<path d="M6.82573 19.4665C6.87576 19.421 6.82477 19.301 6.71184 19.1984C6.59891 19.0958 6.4668 19.0495 6.41677 19.0949C6.36673 19.1404 6.41772 19.2604 6.53065 19.363C6.64359 19.4656 6.7757 19.5119 6.82573 19.4665Z" fill="#F2904C"/>
<path d="M4.77633 17.5439C5.13336 17.5439 5.42278 17.281 5.42278 16.9567C5.42278 16.6323 5.13336 16.3694 4.77633 16.3694C4.41931 16.3694 4.12988 16.6323 4.12988 16.9567C4.12988 17.281 4.41931 17.5439 4.77633 17.5439Z" fill="#723D1E"/>
<path d="M5.18999 16.9142C5.24002 16.8688 5.18903 16.7488 5.0761 16.6462C4.96317 16.5436 4.83106 16.4972 4.78102 16.5427C4.73099 16.5882 4.78198 16.7082 4.89491 16.8108C5.00784 16.9134 5.13995 16.9597 5.18999 16.9142Z" fill="#F2904C"/>
</g>
<defs>
<clipPath id="clip0_1140_773">
<rect width="13" height="24" fill="white"/>
</clipPath>
</defs>
</svg>
