<svg width="24" height="24" viewBox="0 0 24 24" fill="none" xmlns="http://www.w3.org/2000/svg">
<path d="M17.7931 7.55622L18.0441 7.57703C18.1849 7.58805 18.3086 7.67132 18.3735 7.79622L19.6408 10.2427L20.1343 9.98683L18.8645 7.53662C18.7996 7.41173 18.8033 7.26234 18.8755 7.14111L18.998 6.93295C19.216 6.56928 19.2172 6.11744 19.0066 5.75009L17.3033 2.87744C17.1821 3.2056 17.2053 3.56928 17.367 3.88152L18.027 5.15499C18.0698 5.23826 18.0735 5.33132 18.0404 5.41336L17.8849 5.81009C17.8311 5.95826 17.6706 6.03663 17.5213 5.99867L17.1123 5.89458C17.0266 5.87377 16.9519 5.81744 16.9115 5.73785L16.2502 4.46071C16.0886 4.14846 15.8008 3.92193 15.4629 3.83132L16.827 6.8803C17.0045 7.26356 17.3743 7.52193 17.7931 7.55622Z" fill="white"/>
<path d="M20.1354 9.98682L19.6444 10.2403L18.4027 7.84274C18.3378 7.71785 18.3415 7.56968 18.4125 7.44846L18.535 7.23907C18.7542 6.87417 18.7554 6.42356 18.5448 6.05621L18.0525 5.22601C18.0464 5.20274 18.0379 5.17825 18.0256 5.15499L17.3656 3.88274C17.2027 3.57172 17.1819 3.20683 17.3007 2.87866L19.004 5.75009C19.2146 6.11744 19.2134 6.5705 18.9954 6.93295L18.873 7.14234C18.8019 7.26356 18.7983 7.41295 18.8632 7.53662L20.1354 9.98682Z" fill="#FEE4CE"/>
<path d="M13.7939 18.1605V18.7556C13.7939 18.8621 13.7082 18.9454 13.6041 18.9454H4.91636C4.81228 18.9454 4.72656 18.8621 4.72656 18.7556V18.1605C4.72656 18.0564 4.81228 17.9707 4.91636 17.9707H13.6041C13.7082 17.9707 13.7939 18.0564 13.7939 18.1605Z" fill="white"/>
<path d="M13.7937 18.1593V18.4458C13.7594 18.4091 13.7092 18.3858 13.6565 18.3858H4.96877C4.86469 18.3858 4.7802 18.4715 4.7802 18.5768V18.8866C4.74714 18.8536 4.7251 18.807 4.7251 18.7544V18.1593C4.7251 18.0552 4.81081 17.9707 4.91612 17.9707H13.6026C13.708 17.9707 13.7937 18.0552 13.7937 18.1593Z" fill="#FEE4CE"/>
<path d="M13.6043 19.0053H4.91655C4.77818 19.0053 4.66553 18.8927 4.66553 18.7543V18.1592C4.66553 18.0209 4.77818 17.9082 4.91655 17.9082H13.6043C13.7427 17.9082 13.8553 18.0209 13.8553 18.1592V18.7543C13.8553 18.8927 13.7427 19.0053 13.6043 19.0053ZM4.91655 18.0319C4.84675 18.0319 4.78798 18.0907 4.78798 18.1604V18.7555C4.78798 18.8266 4.84553 18.8841 4.91655 18.8841H13.6043C13.6765 18.8841 13.7329 18.8278 13.7329 18.7555V18.1604C13.7329 18.0907 13.6741 18.0319 13.6043 18.0319H4.91655Z" fill="black"/>
<path d="M5.98212 11.9922L3.12109 21.863L4.28542 22.2005L7.14645 12.3296L5.98212 11.9922Z" fill="white"/>
<path d="M7.14501 12.3599L7.14012 12.3758L6.48379 12.186L3.62706 22.0407L3.12012 21.895L5.98175 12.0232L7.14501 12.3599Z" fill="#FEE4CE"/>
<path d="M12.5388 12.0236L11.3745 12.3611L14.2355 22.232L15.3999 21.8945L12.5388 12.0236Z" fill="white"/>
<path d="M15.4005 21.895L14.236 22.2318L14.1907 22.0701L14.7968 21.895L11.9805 12.1836L12.5401 12.0232L15.4005 21.895Z" fill="#FEE4CE"/>
<path d="M4.2835 22.293C4.27738 22.293 4.27248 22.2918 4.26636 22.2906L3.10309 21.9538C3.08717 21.9489 3.07493 21.9391 3.06636 21.9244C3.05779 21.9098 3.05656 21.8938 3.06146 21.8779L5.92309 12.0061C5.93289 11.9742 5.96595 11.9547 5.99901 11.9644L7.16227 12.3012C7.17819 12.3061 7.19044 12.3159 7.19901 12.3306C7.20758 12.3453 7.20881 12.3612 7.20391 12.3771L4.34227 22.2489C4.33493 22.2759 4.31044 22.293 4.2835 22.293ZM3.19615 21.8522L4.24187 22.1559L7.06921 12.4016L6.0235 12.0979L3.19615 21.8522ZM14.2362 22.293C14.2092 22.293 14.1847 22.2759 14.1774 22.2489L11.3157 12.3771C11.3059 12.344 11.3255 12.311 11.3574 12.3012L12.5206 11.9644C12.5537 11.9559 12.5868 11.9742 12.5966 12.0061L15.4582 21.8779C15.4631 21.8938 15.4606 21.9098 15.4533 21.9244C15.4459 21.9391 15.4325 21.9489 15.4166 21.9538L14.2533 22.2906C14.2484 22.2918 14.2423 22.293 14.2362 22.293ZM11.4517 12.4016L14.279 22.1559L15.3247 21.8522L12.4974 12.0979L11.4517 12.4016Z" fill="black"/>
<path d="M2.29248 8.95947C2.37452 12.7382 5.46146 15.7762 9.25983 15.7762C13.0582 15.7762 16.1451 12.7382 16.2272 8.95947H2.29248Z" fill="#5FA7D8"/>
<path d="M15.5571 11.7966C14.4367 14.1489 12.0392 15.775 9.2608 15.775C6.63427 15.775 4.34815 14.3228 3.16162 12.1762C4.60897 12.8019 6.6808 13.195 8.98285 13.195C11.7196 13.195 14.133 12.6391 15.5571 11.7966Z" fill="#3585C5"/>
<path d="M9.25953 15.8376C7.4081 15.8376 5.66075 15.1237 4.33953 13.8282C3.01953 12.5352 2.27137 10.8062 2.23096 8.96089C2.23096 8.94497 2.23708 8.92905 2.2481 8.91681C2.25912 8.90456 2.27504 8.89844 2.29218 8.89844H16.2269C16.2428 8.89844 16.2587 8.90456 16.271 8.91681C16.2832 8.92905 16.2893 8.94497 16.2881 8.96089C16.2477 10.8062 15.4995 12.5352 14.1795 13.8282C12.8583 15.1237 11.111 15.8376 9.25953 15.8376ZM2.35463 9.01966C2.46851 12.7164 5.553 15.7139 9.25953 15.7139C12.9661 15.7139 16.0493 12.7164 16.1644 9.01966H2.35463Z" fill="black"/>
<path d="M8.8202 7.5649C8.8202 7.75837 8.74306 7.93102 8.61694 8.05837C8.48959 8.18571 8.31816 8.26408 8.12347 8.26408H3.63082C3.2451 8.26408 2.93408 7.95061 2.93408 7.5649C2.93408 7.37143 3.01123 7.19878 3.13735 7.07143C3.26469 6.94408 3.43612 6.86816 3.63082 6.86816H8.12347C8.50796 6.86816 8.8202 7.17918 8.8202 7.5649ZM15.5867 7.5649C15.5867 7.75837 15.5096 7.93102 15.3835 8.05837C15.2561 8.18571 15.0847 8.26408 14.89 8.26408H10.3973C10.0116 8.26408 9.70061 7.95061 9.70061 7.5649C9.70061 7.37143 9.77776 7.19878 9.90388 7.07143C10.0312 6.94408 10.2027 6.86816 10.3973 6.86816H14.89C15.2745 6.86816 15.5867 7.17918 15.5867 7.5649Z" fill="#F26A90"/>
<path d="M15.5867 7.56617C15.5867 7.75964 15.5096 7.93229 15.3822 8.05964C15.2549 8.18698 15.0822 8.26535 14.8888 8.26535H10.3973C10.0116 8.26535 9.70184 7.95188 9.70184 7.56617C9.70184 7.41678 9.74714 7.28086 9.82429 7.16943C10.3765 7.50862 11.4345 7.73637 12.648 7.73637C13.8578 7.73637 14.912 7.50862 15.4667 7.17188C15.5427 7.28454 15.5867 7.41801 15.5867 7.56617ZM8.8202 7.56617C8.8202 7.75964 8.74306 7.93229 8.61572 8.05964C8.48837 8.18698 8.31572 8.26535 8.12225 8.26535H3.62959C3.24388 8.26535 2.93408 7.95188 2.93408 7.56617C2.93408 7.41678 2.97939 7.28086 3.05653 7.16943C3.60878 7.50862 4.66674 7.73637 5.8802 7.73637C7.09 7.73637 8.14429 7.50862 8.69898 7.17188C8.7749 7.28454 8.8202 7.41801 8.8202 7.56617Z" fill="#E74E6C"/>
<path d="M8.12317 8.32536H3.63052C3.21297 8.32536 2.87256 7.98373 2.87256 7.56495C2.87256 7.36169 2.95093 7.17067 3.09419 7.02863C3.23746 6.88536 3.42725 6.80699 3.63052 6.80699H8.12317C8.54072 6.80699 8.88113 7.1474 8.88113 7.56495C8.88113 7.76822 8.80276 7.95801 8.6595 8.10128C8.51501 8.24699 8.32399 8.32536 8.12317 8.32536ZM3.63052 6.92944C3.46031 6.92944 3.29991 6.99556 3.17991 7.11556C3.05991 7.23556 2.99378 7.39475 2.99378 7.56618C2.99378 7.91761 3.27909 8.20414 3.62929 8.20414H8.12195C8.29093 8.20414 8.45133 8.13801 8.57256 8.01679C8.69256 7.89679 8.75868 7.73761 8.75868 7.56618C8.75868 7.21597 8.47337 6.93067 8.12317 6.93067H3.63052V6.92944ZM14.8897 8.32536H10.397C9.9795 8.32536 9.63909 7.98373 9.63909 7.56495C9.63909 7.36169 9.71746 7.17067 9.86072 7.02863C10.004 6.88536 10.1938 6.80699 10.397 6.80699H14.8897C15.3073 6.80699 15.6477 7.1474 15.6477 7.56495C15.6477 7.76822 15.5693 7.95924 15.426 8.10128C15.2815 8.24699 15.0905 8.32536 14.8897 8.32536ZM10.397 6.92944C10.2268 6.92944 10.0664 6.99556 9.94766 7.11556C9.82766 7.23556 9.76154 7.39475 9.76154 7.56618C9.76154 7.91761 10.0468 8.20414 10.397 8.20414H14.8897C15.0587 8.20414 15.2191 8.13801 15.3391 8.01679C15.4591 7.89679 15.5252 7.73761 15.5252 7.56618C15.5252 7.21597 15.2399 6.93067 14.8897 6.93067H10.397V6.92944ZM9.22766 5.31801C9.20929 5.31801 9.19215 5.30944 9.1799 5.29475C9.15909 5.26781 9.16399 5.22985 9.1897 5.20903C9.1946 5.20536 9.69909 4.8025 9.67093 4.41189C9.65868 4.24536 9.54848 4.09965 9.34154 3.97965C9.09297 3.83516 8.68276 3.54985 8.72439 3.25352C8.75256 3.06005 8.96439 2.91434 9.35746 2.81761C9.39052 2.80903 9.42358 2.82985 9.43092 2.86291C9.4395 2.89597 9.41868 2.92903 9.38562 2.93638C9.05133 3.01842 8.86399 3.13475 8.8444 3.27067C8.82113 3.4323 9.02929 3.65761 9.40154 3.87312C9.64644 4.01516 9.77746 4.19271 9.79215 4.4021C9.82399 4.85761 9.28766 5.28618 9.2644 5.30332C9.2546 5.31312 9.24113 5.31801 9.22766 5.31801ZM6.70521 5.58863C6.68439 5.58863 6.6648 5.57883 6.65256 5.55924C6.63542 5.52985 6.64399 5.49312 6.67337 5.47475C6.67582 5.4723 6.9795 5.28495 6.97705 5.06577C6.97582 4.94944 6.88521 4.83924 6.70766 4.73638C6.39542 4.55516 6.24358 4.36414 6.25827 4.16577C6.28154 3.83148 6.77378 3.62699 6.7946 3.61842C6.82644 3.60618 6.86195 3.62087 6.87419 3.65148C6.88644 3.6821 6.87174 3.71883 6.84113 3.73107C6.71746 3.78128 6.39542 3.95883 6.38072 4.17312C6.37093 4.32005 6.50195 4.47312 6.77011 4.62863C6.98684 4.75475 7.09827 4.90046 7.10072 5.06332C7.1044 5.3523 6.75419 5.56903 6.73827 5.57761C6.72603 5.58618 6.71501 5.58863 6.70521 5.58863ZM11.7648 5.58863C11.744 5.58863 11.7244 5.57883 11.7121 5.55924C11.695 5.52985 11.7036 5.49312 11.733 5.47475C11.7354 5.4723 12.0391 5.28495 12.0366 5.06577C12.0354 4.94944 11.9448 4.83924 11.7673 4.73638C11.455 4.55516 11.3032 4.36414 11.3179 4.16577C11.3411 3.83148 11.8334 3.62699 11.8542 3.61842C11.886 3.60618 11.9215 3.62087 11.9338 3.65148C11.946 3.68332 11.9313 3.71883 11.9007 3.73107C11.777 3.78128 11.455 3.95883 11.4403 4.17312C11.4305 4.32005 11.5615 4.47312 11.8297 4.62863C12.0464 4.75475 12.1579 4.90046 12.1603 5.06332C12.164 5.3523 11.8138 5.56903 11.7979 5.57761C11.7868 5.58618 11.7758 5.58863 11.7648 5.58863ZM19.6407 10.3041C19.6346 10.3041 19.6285 10.3029 19.6224 10.3017C19.6064 10.2968 19.5942 10.2858 19.5868 10.2711L18.3183 7.82454C18.2632 7.71801 18.1579 7.64822 18.0379 7.63842L17.7868 7.61761C17.3472 7.5821 16.9566 7.30903 16.7693 6.90618L15.4052 3.8572C15.3954 3.83516 15.3991 3.81067 15.415 3.7923C15.4297 3.77393 15.4542 3.76659 15.4775 3.77271C15.835 3.86822 16.135 4.10944 16.3028 4.43393L16.964 5.71108C16.997 5.77352 17.0558 5.81883 17.1256 5.83597L17.5358 5.94005C17.6583 5.97067 17.7856 5.90454 17.8273 5.79067L17.9828 5.39271C18.0097 5.32536 18.006 5.24944 17.9717 5.18454L17.3117 3.91108C17.1428 3.58536 17.1183 3.20087 17.2444 2.85801C17.253 2.83597 17.2726 2.82005 17.2958 2.81761C17.3203 2.81516 17.3424 2.8274 17.3546 2.84699L19.0579 5.71965C19.2807 6.10781 19.277 6.58414 19.0493 6.96495L18.9268 7.17312C18.8656 7.2772 18.8632 7.4021 18.9183 7.50985L20.1881 9.96005C20.204 9.99067 20.1917 10.0274 20.1624 10.0421L19.6689 10.298C19.6603 10.3017 19.6505 10.3041 19.6407 10.3041ZM15.5742 3.93312L16.8819 6.85475C17.0509 7.2172 17.4024 7.46332 17.7979 7.49516L18.0489 7.51597C18.2117 7.52944 18.3526 7.62373 18.4285 7.76822L19.6677 10.1596L20.0534 9.96005L18.8117 7.56373C18.737 7.41924 18.7419 7.24903 18.824 7.10944L18.9464 6.90005C19.1521 6.5572 19.1546 6.12863 18.955 5.77965L17.3228 3.02699C17.2566 3.3025 17.2909 3.59761 17.4232 3.8523L18.0832 5.12577C18.1334 5.2225 18.1395 5.33516 18.0991 5.43556L17.9436 5.83107C17.8811 6.00495 17.6938 6.10291 17.5077 6.05638L17.0987 5.9523C16.9946 5.92781 16.9064 5.85924 16.8575 5.76495L16.1962 4.48781C16.0628 4.23557 15.8411 4.0372 15.5742 3.93312Z" fill="black"/>
<path d="M20.6815 9.46538C20.6864 9.47885 20.6876 9.49109 20.69 9.50089C20.6986 9.62701 20.521 9.97844 20.521 9.97844C20.477 10.1058 20.5015 10.2466 20.5872 10.3519C20.9962 10.8515 22.1986 12.3821 22.6664 13.647C23.0019 14.5568 21.7468 15.2058 21.2006 14.405C20.4402 13.2931 19.8855 11.4307 19.7141 10.8062C19.6786 10.6752 19.577 10.5735 19.4459 10.5368C19.4459 10.5368 19.0553 10.4793 18.9562 10.4009C18.9427 10.3899 18.9292 10.374 18.9157 10.3507C18.8362 10.2233 18.8827 10.0556 19.0088 9.97354C19.4043 9.71395 19.8427 9.49232 20.3178 9.3013C20.461 9.24007 20.6325 9.31599 20.6815 9.46538Z" fill="#FDD503"/>
<path d="M22.0799 14.7356C22.1962 14.5445 22.233 14.3033 22.135 14.0376C21.6673 12.7715 20.4648 11.2421 20.0558 10.7413C19.9701 10.6372 19.9469 10.4964 19.9897 10.3678C19.9897 10.3678 20.1685 10.0164 20.1599 9.89026C20.1562 9.88047 20.1562 9.86822 20.1501 9.85598C20.1024 9.70537 19.9309 9.63067 19.7852 9.69067C19.4718 9.81557 19.1754 9.95394 18.895 10.1082C18.9171 10.0531 18.955 10.0054 19.0064 9.97108C19.402 9.71271 19.8416 9.48863 20.3154 9.30006C20.4611 9.24006 20.6338 9.31475 20.6815 9.46414C20.6864 9.47761 20.6877 9.49108 20.6901 9.50088C20.6987 9.627 20.5211 9.97843 20.5211 9.97843C20.4783 10.1058 20.5016 10.2466 20.5873 10.3519C20.995 10.8527 22.1999 12.3821 22.6664 13.6482C22.8624 14.1797 22.5134 14.6229 22.0799 14.7356Z" fill="#F2AF06"/>
<path d="M21.8584 14.8286C21.6025 14.8286 21.3405 14.7171 21.1494 14.4392C20.3743 13.3065 19.8086 11.3841 19.6543 10.822C19.6237 10.7106 19.5392 10.6261 19.4278 10.5955C19.3678 10.5869 19.0225 10.5331 18.916 10.4473C18.8964 10.4326 18.8792 10.4106 18.8609 10.38C18.7666 10.2306 18.8156 10.0237 18.9723 9.92081C19.3605 9.66611 19.805 9.43836 20.2923 9.24366C20.378 9.20815 20.4772 9.2106 20.5629 9.25101C20.6474 9.2902 20.7099 9.35877 20.738 9.44571C20.7429 9.45917 20.7454 9.47264 20.7478 9.48366C20.7478 9.48611 20.7503 9.49591 20.7503 9.49836C20.7588 9.63428 20.6046 9.94652 20.5739 10.0077C20.5397 10.1094 20.5605 10.2269 20.6327 10.3151C21.1078 10.8955 22.2613 12.382 22.7217 13.6273C22.909 14.1343 22.6397 14.5433 22.2894 14.7233C22.1609 14.7894 22.0115 14.8286 21.8584 14.8286ZM20.4209 9.3404C20.3927 9.3404 20.3658 9.3453 20.3401 9.35632C19.8601 9.54856 19.4229 9.77264 19.0421 10.0224C18.9405 10.0886 18.9074 10.2208 18.9674 10.3163C18.9809 10.3396 18.9894 10.3482 18.9943 10.3518C19.0568 10.402 19.3103 10.4547 19.4548 10.4755C19.6152 10.5196 19.7315 10.6359 19.7731 10.7902C19.9274 11.3473 20.4882 13.2539 21.2523 14.3706C21.5143 14.7539 21.9356 14.7686 22.238 14.6131C22.5405 14.4575 22.7719 14.1049 22.6115 13.6677C22.1572 12.4384 21.0135 10.9665 20.5421 10.3898C20.4429 10.2698 20.4148 10.1082 20.465 9.95754C20.5335 9.81917 20.6364 9.58285 20.6315 9.50326C20.6303 9.49836 20.629 9.49224 20.6266 9.48611C20.6266 9.48489 20.6254 9.48366 20.6254 9.48244C20.607 9.42734 20.5678 9.38448 20.5139 9.35877C20.4833 9.34775 20.4515 9.3404 20.4209 9.3404Z" fill="black"/>
<path d="M21.8779 14.2322C22.051 14.2322 22.1914 14.0918 22.1914 13.9187C22.1914 13.7456 22.051 13.6052 21.8779 13.6052C21.7048 13.6052 21.5645 13.7456 21.5645 13.9187C21.5645 14.0918 21.7048 14.2322 21.8779 14.2322Z" fill="#000E3F"/>
<path d="M19.1106 2.18087C19.1914 2.3474 19.1988 2.52618 19.1424 2.68904C19.0873 2.85067 18.9722 2.99026 18.8069 3.0723L14.9608 4.95434C14.6302 5.11598 14.2322 4.97761 14.0718 4.64822C13.991 4.48169 13.9837 4.30291 14.04 4.14006C14.0951 3.97843 14.2114 3.84006 14.3767 3.75924L18.2228 1.8772C18.5522 1.71434 18.949 1.85026 19.1106 2.18087Z" fill="#F26A90"/>
<path d="M19.1435 2.68769C19.0872 2.85055 18.9733 2.98892 18.8067 3.07096L14.9606 4.953C14.6312 5.11341 14.2333 4.97627 14.0704 4.64688C14.0569 4.61871 14.0435 4.58933 14.0361 4.56116C14.1904 4.60402 14.3606 4.59545 14.5149 4.51953L18.361 2.63749C18.5263 2.55667 18.6414 2.41708 18.6953 2.25422C18.7418 2.11953 18.7455 1.97382 18.699 1.83545C18.8729 1.88688 19.0259 2.0081 19.1104 2.18198C19.1912 2.34606 19.1986 2.52729 19.1435 2.68769Z" fill="#E74E6C"/>
<path d="M14.6704 5.08289C14.5908 5.08289 14.5112 5.06942 14.4328 5.04249C14.2492 4.97881 14.101 4.84779 14.0165 4.67391C13.9308 4.49881 13.9186 4.30289 13.981 4.11922C14.0435 3.93677 14.1745 3.78861 14.3496 3.70289L18.1957 1.82085C18.3696 1.73514 18.5667 1.72289 18.7504 1.78534C18.9341 1.84779 19.081 1.97881 19.1667 2.15269C19.2524 2.32779 19.2647 2.52371 19.2022 2.70738C19.1386 2.89228 19.0088 3.04044 18.8349 3.12493L14.9875 5.0082C14.8871 5.05718 14.7794 5.08289 14.6704 5.08289ZM18.5141 1.86983C18.4235 1.86983 18.3328 1.89065 18.2484 1.93228L14.4022 3.81432C14.2565 3.88534 14.1488 4.00779 14.0961 4.15963C14.0435 4.31147 14.0545 4.47555 14.1255 4.62004C14.1965 4.76575 14.319 4.87473 14.472 4.92738C14.6251 4.98004 14.788 4.97024 14.9337 4.89922L18.7798 3.01718C18.9243 2.94616 19.032 2.82371 19.0847 2.66942C19.1373 2.51759 19.1263 2.35351 19.0553 2.20902C18.9843 2.06453 18.8618 1.95555 18.7088 1.90289C18.6463 1.87963 18.5802 1.86983 18.5141 1.86983ZM3.8104 7.87473C3.80183 7.87473 3.79448 7.87351 3.78591 7.86983C3.7553 7.85636 3.7406 7.82085 3.75285 7.78902L3.96224 7.29555C3.97571 7.26493 4.01122 7.25024 4.04305 7.26249C4.07367 7.27595 4.08836 7.31146 4.07611 7.3433L3.86673 7.83677C3.85693 7.86004 3.83367 7.87473 3.8104 7.87473ZM4.79122 7.87473C4.78264 7.87473 4.7753 7.87351 4.76673 7.86983C4.73611 7.85636 4.72142 7.82085 4.73367 7.78902L4.94305 7.29555C4.95652 7.26493 4.99203 7.25024 5.02387 7.26249C5.05448 7.27595 5.06918 7.31146 5.05693 7.3433L4.84754 7.83677C4.83775 7.86004 4.81448 7.87473 4.79122 7.87473ZM5.77203 7.87473C5.76346 7.87473 5.75611 7.87351 5.74754 7.86983C5.71693 7.85636 5.70224 7.82085 5.71448 7.78902L5.92387 7.29555C5.93734 7.26493 5.97285 7.25024 6.00469 7.26249C6.0353 7.27595 6.04999 7.31146 6.03775 7.3433L5.82836 7.83677C5.81856 7.86004 5.7953 7.87473 5.77203 7.87473ZM6.75285 7.87473C6.74428 7.87473 6.73693 7.87351 6.72836 7.86983C6.69775 7.85636 6.68305 7.82085 6.6953 7.78902L6.90469 7.29555C6.91815 7.26493 6.95367 7.25024 6.9855 7.26249C7.01611 7.27595 7.03081 7.31146 7.01856 7.3433L6.80918 7.83677C6.79938 7.86004 6.77611 7.87473 6.75285 7.87473ZM7.73367 7.87473C7.72509 7.87473 7.71775 7.87351 7.70918 7.86983C7.67856 7.85636 7.66387 7.82085 7.67611 7.78902L7.8855 7.29555C7.89897 7.26493 7.93448 7.25024 7.96632 7.26249C7.99693 7.27595 8.01162 7.31146 7.99938 7.3433L7.78999 7.83677C7.7802 7.86004 7.75693 7.87473 7.73367 7.87473Z" fill="black"/>
<path d="M10.577 7.87461C10.5684 7.87461 10.5611 7.87339 10.5525 7.86972C10.5219 7.85625 10.5072 7.82074 10.5195 7.7889L10.7288 7.29543C10.7423 7.26482 10.7778 7.25013 10.8097 7.26237C10.8403 7.27584 10.855 7.31135 10.8427 7.34319L10.6333 7.83666C10.6235 7.85992 10.6003 7.87461 10.577 7.87461ZM11.5578 7.87461C11.5492 7.87461 11.5419 7.87339 11.5333 7.86972C11.5027 7.85625 11.488 7.82074 11.5003 7.7889L11.7097 7.29543C11.7231 7.26482 11.7586 7.25013 11.7905 7.26237C11.8211 7.27584 11.8358 7.31135 11.8235 7.34319L11.6141 7.83666C11.6043 7.85992 11.5811 7.87461 11.5578 7.87461ZM12.5386 7.87461C12.5301 7.87461 12.5227 7.87339 12.5141 7.86972C12.4835 7.85625 12.4688 7.82074 12.4811 7.7889L12.6905 7.29543C12.7039 7.26482 12.7395 7.25013 12.7713 7.26237C12.8019 7.27584 12.8166 7.31135 12.8043 7.34319L12.595 7.83666C12.5852 7.85992 12.5619 7.87461 12.5386 7.87461ZM13.5195 7.87461C13.5109 7.87461 13.5035 7.87339 13.495 7.86972C13.4643 7.85625 13.4497 7.82074 13.4619 7.7889L13.6713 7.29543C13.6848 7.26482 13.7203 7.25013 13.7521 7.26237C13.7827 7.27584 13.7974 7.31135 13.7852 7.34319L13.5758 7.83666C13.566 7.85992 13.5427 7.87461 13.5195 7.87461ZM14.5003 7.87461C14.4917 7.87461 14.4843 7.87339 14.4758 7.86972C14.4452 7.85625 14.4305 7.82074 14.4427 7.7889L14.6521 7.29543C14.6656 7.26482 14.7011 7.25013 14.7329 7.26237C14.7635 7.27584 14.7782 7.31135 14.766 7.34319L14.5566 7.83666C14.5468 7.85992 14.5235 7.87461 14.5003 7.87461Z" fill="black"/>
<path d="M15.0246 4.59187C14.994 4.59187 14.9671 4.56861 14.9634 4.53677L14.9144 4.04452C14.9108 4.01146 14.9352 3.98085 14.9695 3.97718C15.0026 3.9735 15.0332 3.99799 15.0369 4.03228L15.0859 4.52452C15.0895 4.55759 15.065 4.5882 15.0308 4.59187C15.0283 4.59065 15.0271 4.59187 15.0246 4.59187ZM15.8205 4.15718C15.7899 4.15718 15.763 4.13391 15.7593 4.10207L15.7103 3.60983C15.7067 3.57677 15.7312 3.54616 15.7654 3.54248C15.7985 3.54003 15.8291 3.5633 15.8328 3.59758L15.8818 4.08983C15.8854 4.12289 15.861 4.1535 15.8267 4.15718C15.8242 4.15595 15.8218 4.15718 15.8205 4.15718ZM16.6152 3.72248C16.5846 3.72248 16.5577 3.69922 16.554 3.66738L16.505 3.17514C16.5014 3.14208 16.5259 3.11146 16.5601 3.10779C16.5932 3.10534 16.6238 3.12861 16.6275 3.16289L16.6765 3.65514C16.6801 3.6882 16.6557 3.71881 16.6214 3.72248C16.6201 3.72248 16.6177 3.72248 16.6152 3.72248ZM17.4112 3.28779C17.3805 3.28779 17.3536 3.26452 17.3499 3.23269L17.301 2.74044C17.2973 2.70738 17.3218 2.67677 17.3561 2.6731C17.3891 2.67065 17.4197 2.69391 17.4234 2.7282L17.4724 3.22044C17.4761 3.2535 17.4516 3.28412 17.4173 3.28779C17.4148 3.28779 17.4136 3.28779 17.4112 3.28779ZM18.2071 2.8531C18.1765 2.8531 18.1495 2.82983 18.1459 2.79799L18.0969 2.30575C18.0932 2.27269 18.1177 2.24208 18.152 2.2384C18.1863 2.23473 18.2157 2.25922 18.2193 2.2935L18.2683 2.78575C18.272 2.81881 18.2475 2.84942 18.2132 2.8531C18.2108 2.8531 18.2083 2.8531 18.2071 2.8531Z" fill="black"/>
<path d="M14.7648 23.0205C15.5256 23.0205 16.1423 22.4037 16.1423 21.6429C16.1423 20.8821 15.5256 20.2654 14.7648 20.2654C14.004 20.2654 13.3872 20.8821 13.3872 21.6429C13.3872 22.4037 14.004 23.0205 14.7648 23.0205Z" fill="#3A3A3A"/>
<path d="M16.1426 21.643C16.1426 22.4034 15.5242 23.0205 14.765 23.0205C14.154 23.0205 13.6361 22.6226 13.4561 22.0716C13.5871 22.1144 13.7291 22.1377 13.8748 22.1377C14.6254 22.1377 15.2352 21.5279 15.2352 20.7773C15.2352 20.6181 15.2071 20.4663 15.1569 20.323C15.7263 20.492 16.1426 21.0185 16.1426 21.643Z" fill="#2B2D2C"/>
<path d="M15.5154 21.6429C15.5154 22.0568 15.1787 22.3936 14.7648 22.3936C14.5223 22.3936 14.3093 22.2809 14.1709 22.1034C14.0717 21.976 14.0117 21.8168 14.0117 21.6429C14.0117 21.2291 14.3485 20.8923 14.7636 20.8923C14.9289 20.8923 15.0831 20.9474 15.208 21.0393C15.3954 21.1764 15.5154 21.3944 15.5154 21.6429Z" fill="white"/>
<path d="M14.7649 23.0817C13.9715 23.0817 13.3262 22.4363 13.3262 21.6429C13.3262 20.8494 13.9715 20.2041 14.7649 20.2041C15.5584 20.2041 16.2037 20.8494 16.2037 21.6429C16.2037 22.4363 15.5572 23.0817 14.7649 23.0817ZM14.7649 20.3278C14.0388 20.3278 13.4486 20.918 13.4486 21.6441C13.4486 22.3702 14.0388 22.9604 14.7649 22.9604C15.4911 22.9604 16.0813 22.3702 16.0813 21.6441C16.0813 20.918 15.4898 20.3278 14.7649 20.3278Z" fill="black"/>
<path d="M15.5154 21.643C15.5154 22.0569 15.1787 22.3936 14.7648 22.3936C14.5223 22.3936 14.3093 22.2809 14.1709 22.1034C14.695 21.9871 15.1052 21.5683 15.208 21.0393C15.3954 21.1764 15.5154 21.3944 15.5154 21.643Z" fill="#FEE4CE"/>
<path d="M14.765 22.4559C14.3168 22.4559 13.9531 22.091 13.9531 21.6441C13.9531 21.1972 14.318 20.8323 14.765 20.8323C15.2119 20.8323 15.5768 21.1972 15.5768 21.6441C15.5768 22.091 15.2131 22.4559 14.765 22.4559ZM14.765 20.9535C14.3841 20.9535 14.0756 21.2633 14.0756 21.6429C14.0756 22.0225 14.3854 22.3323 14.765 22.3323C15.1446 22.3323 15.4543 22.0225 15.4543 21.6429C15.4543 21.2633 15.1446 20.9535 14.765 20.9535Z" fill="black"/>
<path d="M16.6679 9.01355C16.6679 9.21926 16.5846 9.40538 16.4475 9.54253C16.314 9.67845 16.1242 9.76294 15.9185 9.76294H2.59973C2.18462 9.76294 1.85156 9.4262 1.85156 9.01477C1.85156 8.80906 1.93483 8.62294 2.07197 8.48579C2.20544 8.34987 2.39156 8.26538 2.60095 8.26538H15.9209C16.3348 8.26416 16.6679 8.60089 16.6679 9.01355Z" fill="#5FA7D8"/>
<path d="M16.6679 9.01231C16.6679 9.21802 16.5858 9.40537 16.4475 9.54129C16.3152 9.67721 16.1242 9.7617 15.9209 9.7617H2.59973C2.18585 9.7617 1.85156 9.42496 1.85156 9.01231C1.85156 8.88864 1.88217 8.77231 1.93728 8.66823C2.06217 8.90333 2.31197 9.06496 2.5985 9.06496H15.9185C16.123 9.06496 16.3128 8.98047 16.4475 8.84455C16.5014 8.79068 16.5467 8.72945 16.5797 8.66333C16.6373 8.76741 16.6679 8.88496 16.6679 9.01231Z" fill="#3585C5"/>
<path d="M15.9194 9.82288H2.59943C2.15249 9.82288 1.79004 9.4592 1.79004 9.01349C1.79004 8.79798 1.87453 8.59471 2.02759 8.44165C2.1782 8.28859 2.38147 8.2041 2.59943 8.2041H15.9194C16.3664 8.2041 16.7288 8.56778 16.7288 9.01349C16.7288 9.229 16.6443 9.43226 16.4913 9.58533C16.3431 9.73594 16.1349 9.82288 15.9194 9.82288ZM2.59943 8.32533C2.41453 8.32533 2.24188 8.39635 2.11453 8.52737C1.98351 8.65839 1.91249 8.83104 1.91249 9.01349C1.91249 9.39308 2.22106 9.70043 2.59943 9.70043H15.9194C16.1019 9.70043 16.2794 9.62696 16.4043 9.49839C16.5353 9.36737 16.6064 9.19471 16.6064 9.01226C16.6064 8.6339 16.2978 8.32533 15.9194 8.32533H2.59943Z" fill="black"/>
<path d="M3.62169 23.0205C4.38249 23.0205 4.99924 22.4037 4.99924 21.6429C4.99924 20.8821 4.38249 20.2654 3.62169 20.2654C2.86089 20.2654 2.24414 20.8821 2.24414 21.6429C2.24414 22.4037 2.86089 23.0205 3.62169 23.0205Z" fill="#3A3A3A"/>
<path d="M4.99952 21.643C4.99952 22.4034 4.38115 23.0205 3.62197 23.0205C3.01095 23.0205 2.49299 22.6226 2.31299 22.0716C2.44401 22.1144 2.58605 22.1377 2.73176 22.1377C3.48238 22.1377 4.09217 21.5279 4.09217 20.7773C4.09217 20.6181 4.06401 20.4663 4.0138 20.323C4.58319 20.492 4.99952 21.0185 4.99952 21.643Z" fill="#2B2D2C"/>
<path d="M4.37233 21.6429C4.37233 22.0568 4.03559 22.3936 3.62171 22.3936C3.37926 22.3936 3.1662 22.2809 3.02784 22.1034C2.92865 21.976 2.86865 21.8168 2.86865 21.6429C2.86865 21.2291 3.20539 20.8923 3.62049 20.8923C3.7858 20.8923 3.94008 20.9474 4.06498 21.0393C4.25233 21.1764 4.37233 21.3944 4.37233 21.6429Z" fill="white"/>
<path d="M3.62188 23.0817C2.82841 23.0817 2.18311 22.4363 2.18311 21.6429C2.18311 20.8494 2.82841 20.2041 3.62188 20.2041C4.41535 20.2041 5.06066 20.8494 5.06066 21.6429C5.06066 22.4363 4.41413 23.0817 3.62188 23.0817ZM3.62188 20.3278C2.89576 20.3278 2.30555 20.918 2.30555 21.6441C2.30555 22.3702 2.89576 22.9604 3.62188 22.9604C4.348 22.9604 4.93821 22.3702 4.93821 21.6441C4.93698 20.918 4.34678 20.3278 3.62188 20.3278Z" fill="black"/>
<path d="M4.37232 21.643C4.37232 22.0569 4.03559 22.3936 3.62171 22.3936C3.37926 22.3936 3.1662 22.2809 3.02783 22.1034C3.55191 21.9871 3.96212 21.5683 4.06498 21.0393C4.25232 21.1764 4.37232 21.3944 4.37232 21.643Z" fill="#FEE4CE"/>
<path d="M3.6219 22.4559C3.17373 22.4559 2.81006 22.091 2.81006 21.6441C2.81006 21.1972 3.17496 20.8323 3.6219 20.8323C4.06883 20.8323 4.43373 21.1972 4.43373 21.6441C4.43373 22.091 4.06883 22.4559 3.6219 22.4559ZM3.6219 20.9535C3.24108 20.9535 2.93251 21.2633 2.93251 21.6429C2.93251 22.0225 3.2423 22.3323 3.6219 22.3323C4.00149 22.3323 4.31128 22.0225 4.31128 21.6429C4.31128 21.2633 4.00149 20.9535 3.6219 20.9535Z" fill="black"/>
<path d="M7.97257 11.4164C7.97513 11.1398 7.82536 10.9141 7.63803 10.9124C7.4507 10.9107 7.29677 11.1335 7.2942 11.4101C7.29163 11.6867 7.44141 11.9123 7.62873 11.914C7.81606 11.9158 7.97 11.693 7.97257 11.4164Z" fill="black"/>
<path d="M11.0292 11.4447C11.0318 11.1681 10.882 10.9425 10.6947 10.9407C10.5073 10.939 10.3534 11.1618 10.3508 11.4384C10.3483 11.715 10.498 11.9406 10.6854 11.9424C10.8727 11.9441 11.0266 11.7213 11.0292 11.4447Z" fill="black"/>
<path d="M9.90143 12.5609C9.83164 13.0397 9.54021 13.3997 9.1949 13.3972C8.84959 13.3936 8.56674 13.0287 8.50429 12.5487C8.49204 12.4544 8.54225 12.3674 8.60837 12.3674L9.80225 12.3785C9.86592 12.3797 9.9149 12.4666 9.90143 12.5609Z" fill="black"/>
<path d="M7.56594 12.9597C7.56842 12.6926 7.2223 12.4728 6.79288 12.4688C6.36345 12.4648 6.01332 12.6782 6.01084 12.9453C6.00836 13.2124 6.35447 13.4322 6.7839 13.4362C7.21333 13.4402 7.56346 13.2268 7.56594 12.9597Z" fill="white"/>
<path d="M12.3828 13.0044C12.3853 12.7373 12.0392 12.5175 11.6098 12.5135C11.1803 12.5095 10.8302 12.7228 10.8277 12.99C10.8253 13.2571 11.1714 13.4769 11.6008 13.4808C12.0302 13.4848 12.3804 13.2715 12.3828 13.0044Z" fill="white"/>
<path d="M1.45107 6.20197C1.41923 6.16646 1.39352 6.12483 1.3776 6.07585C1.23433 5.64728 1.24168 5.33871 1.39964 5.15871C1.57719 4.95667 1.83678 4.97748 2.04005 5.00442C1.99964 4.83422 1.97025 4.62606 2.11107 4.44728C2.15515 4.39218 2.28862 4.22197 2.84576 4.19504C3.03923 4.18524 3.20331 4.33463 3.21311 4.5281C3.2229 4.72157 3.07352 4.88565 2.88005 4.89544C2.83597 4.89789 2.78576 4.90279 2.74046 4.90891C2.78699 5.08891 2.85556 5.35585 2.66576 5.56279C2.47964 5.76606 2.2078 5.73422 2.00331 5.70606C2.01433 5.75504 2.02903 5.80646 2.04372 5.85177C2.10495 6.03544 2.00454 6.23381 1.82086 6.29504C1.68495 6.34402 1.54168 6.30116 1.45107 6.20197Z" fill="#3DD4C5"/>
<path d="M3.21299 4.53178C3.22156 4.72525 3.0734 4.88933 2.8787 4.89913C2.83462 4.90036 2.78564 4.90525 2.73911 4.91382C2.78687 5.0926 2.85421 5.36076 2.66564 5.56648C2.47952 5.76974 2.20646 5.73913 2.00319 5.71097C2.01421 5.75995 2.02768 5.81138 2.04238 5.85668C2.10483 6.04036 2.00442 6.2375 1.82074 6.29995C1.68483 6.34403 1.54156 6.3024 1.44972 6.20321C1.41789 6.16893 1.39217 6.12729 1.37748 6.07831C1.37258 6.06607 1.36768 6.05138 1.36523 6.03913C1.41299 6.0428 1.46197 6.03791 1.5085 6.02321C1.69217 5.96076 1.79258 5.76362 1.73258 5.57995C1.71666 5.53464 1.70319 5.48321 1.6934 5.43423C1.89666 5.4624 2.1685 5.49423 2.35462 5.28974C2.54319 5.08403 2.47585 4.81587 2.43054 4.63709C2.47585 4.62974 2.52483 4.62485 2.57013 4.6224C2.7636 4.6126 2.91299 4.44974 2.90442 4.25505C2.90319 4.23668 2.90197 4.21709 2.89707 4.20117C3.06605 4.21464 3.20442 4.35546 3.21299 4.53178Z" fill="#26AEA4"/>
<path d="M7.67987 20.2922C7.70681 20.253 7.74354 20.2187 7.7864 20.193C8.17456 19.9616 8.47823 19.9028 8.6864 20.0179C8.9215 20.1477 8.95701 20.406 8.97415 20.6105C9.13089 20.5346 9.32925 20.4624 9.53252 20.5616C9.59619 20.5922 9.78966 20.6865 9.93538 21.2252C9.98558 21.4126 9.87538 21.6048 9.68803 21.655C9.50068 21.7052 9.30844 21.595 9.25823 21.4077C9.24721 21.3648 9.2313 21.3171 9.21538 21.2742C9.05007 21.3587 8.80272 21.4824 8.56028 21.3416C8.32272 21.2032 8.29456 20.9301 8.27864 20.7244C8.23334 20.7465 8.18558 20.7709 8.14395 20.7954C7.97742 20.8946 7.76191 20.8395 7.66272 20.673C7.5917 20.5518 7.60272 20.4024 7.67987 20.2922Z" fill="#FDD503"/>
<path d="M9.7568 21.6294C9.61109 21.0955 9.42007 21.0012 9.3564 20.9706C9.15191 20.8715 8.95476 20.9437 8.79803 21.0196C8.78088 20.8164 8.74537 20.5568 8.51027 20.4257C8.30578 20.3131 8.00946 20.3682 7.63231 20.5898C7.60048 20.4882 7.62007 20.3768 7.68007 20.291C7.70823 20.2519 7.74374 20.2176 7.78782 20.1919C8.17599 19.9617 8.47844 19.9017 8.6866 20.018C8.9217 20.1466 8.95721 20.4061 8.97313 20.6106C9.13109 20.5335 9.32946 20.4612 9.5315 20.5617C9.59517 20.5923 9.78986 20.6878 9.93558 21.2253C9.98088 21.3906 9.90252 21.5572 9.7568 21.6294Z" fill="#F2AF06"/>
<path d="M17.1329 15.9147C17.1745 15.9367 17.2137 15.9685 17.2443 16.0077C17.5235 16.364 17.6203 16.6567 17.5333 16.8783C17.4341 17.1281 17.1831 17.1967 16.9823 17.2396C17.0778 17.3853 17.1758 17.5726 17.1035 17.7881C17.0815 17.8555 17.0129 18.06 16.4962 18.273C16.3174 18.3465 16.1117 18.262 16.0382 18.0832C15.9647 17.9045 16.0492 17.6987 16.228 17.6253C16.2684 17.6081 16.3137 17.5873 16.3554 17.5653C16.25 17.4122 16.097 17.1832 16.2047 16.9249C16.3113 16.6714 16.5782 16.6089 16.7803 16.5661C16.7533 16.5232 16.7227 16.4804 16.6933 16.4424C16.5745 16.2893 16.6015 16.0689 16.7533 15.9502C16.8647 15.8608 17.0141 15.8522 17.1329 15.9147Z" fill="#FB7E05"/>
<path d="M17.5334 16.8796C17.4355 17.1294 17.1844 17.198 16.9824 17.2396C17.0791 17.3866 17.1747 17.5739 17.1036 17.787C17.0804 17.8555 17.0118 18.0588 16.4975 18.2719C16.32 18.3453 16.1167 18.2633 16.0396 18.0882L16.0493 18.0845C16.5649 17.8715 16.6322 17.667 16.6567 17.6009C16.7277 17.3853 16.631 17.198 16.5355 17.0523C16.7363 17.0094 16.9885 16.9409 17.0865 16.6911C17.1673 16.4841 17.0889 16.2147 16.8538 15.8927C16.9457 15.8596 17.0485 15.867 17.1355 15.9135C17.1771 15.9355 17.2151 15.9662 17.2469 16.0078C17.5236 16.3641 17.6204 16.6568 17.5334 16.8796Z" fill="#F55600"/>
<path d="M11.505 1.35788C11.5295 1.31747 11.5638 1.28073 11.6054 1.25257C11.9789 0.997875 12.2777 0.920733 12.4932 1.02237C12.7356 1.13747 12.7871 1.39339 12.8165 1.59665C12.9683 1.51094 13.1618 1.42645 13.3712 1.51339C13.4361 1.54032 13.6356 1.62237 13.8144 2.15134C13.8769 2.33502 13.7777 2.53461 13.594 2.59583C13.4103 2.65828 13.212 2.5591 13.1495 2.37543C13.1348 2.33379 13.1165 2.28726 13.0981 2.24441C12.9377 2.33869 12.6989 2.47706 12.4491 2.35216C12.203 2.22849 12.1589 1.95788 12.1295 1.75461C12.0854 1.7791 12.0401 1.80604 11.9997 1.83298C11.8393 1.94196 11.6214 1.90032 11.5124 1.73992C11.434 1.62237 11.4352 1.47175 11.505 1.35788Z" fill="white"/>
<path d="M13.6946 2.54562C13.6922 2.53337 13.6885 2.52235 13.6848 2.51011C13.5073 1.98113 13.3065 1.89786 13.2416 1.87215C13.0309 1.78521 12.8399 1.8697 12.6869 1.95541C12.6575 1.75215 12.606 1.49623 12.3636 1.38113C12.1481 1.27827 11.8493 1.35664 11.4758 1.61133C11.4722 1.615 11.4673 1.61745 11.4636 1.62113C11.4416 1.53051 11.4563 1.43623 11.5052 1.35786C11.5297 1.31745 11.5652 1.28194 11.6056 1.25255C11.9803 0.999086 12.2791 0.921943 12.4934 1.02235C12.7371 1.13745 12.7873 1.39337 12.8179 1.59786C12.9697 1.51215 13.162 1.42766 13.3726 1.5146C13.4375 1.54276 13.6371 1.62358 13.8158 2.15255C13.866 2.29949 13.8122 2.45623 13.6946 2.54562Z" fill="#FEE4CE"/>
<path d="M20.3031 6.12241C20.3631 6.08078 20.4366 6.05873 20.515 6.06241C20.7072 6.07098 20.8542 6.23384 20.8456 6.42608C20.8236 6.89751 21.148 6.9722 21.1848 6.97955C21.3734 7.01506 21.4982 7.19629 21.4627 7.38486C21.4272 7.57343 21.246 7.69833 21.0574 7.66282C20.7256 7.60159 20.1109 7.25629 20.1513 6.39424C20.1574 6.28037 20.2162 6.18241 20.3031 6.12241Z" fill="#5FA7D8"/>
<path d="M21.4504 7.43512C21.394 7.5943 21.2287 7.69348 21.0585 7.66165C20.7255 7.60042 20.1108 7.25512 20.1524 6.3943C20.1573 6.28042 20.2161 6.18246 20.3018 6.12369C20.3373 6.10042 20.3728 6.08328 20.4132 6.07471C20.401 6.10409 20.3949 6.13716 20.3924 6.17267C20.3532 7.03593 20.9679 7.38124 21.2985 7.44246C21.35 7.45103 21.4014 7.44981 21.4504 7.43512Z" fill="#3585C5"/>
<path d="M3.15305 15.9589C3.08447 15.9821 3.00733 15.9833 2.93264 15.9589C2.75019 15.8976 2.65223 15.7005 2.71345 15.5193C2.86407 15.0711 2.57141 14.9119 2.53835 14.8948C2.36692 14.8091 2.2959 14.6009 2.38162 14.4295C2.46733 14.258 2.67549 14.187 2.84692 14.2727C3.14937 14.4221 3.64651 14.9217 3.37223 15.7409C3.33672 15.8474 3.25345 15.9258 3.15305 15.9589Z" fill="#F26A90"/>
<path d="M2.40381 14.3926C2.49687 14.2469 2.68789 14.1942 2.84707 14.2726C3.1483 14.422 3.64789 14.9228 3.37238 15.7407C3.33565 15.8473 3.25238 15.9244 3.1532 15.9599C3.10544 15.9758 3.05401 15.9807 3.00258 15.9746C3.0185 15.9501 3.03197 15.9232 3.04177 15.8926C3.31605 15.0746 2.81769 14.575 2.51524 14.4256C2.47973 14.4073 2.44299 14.3975 2.40381 14.3926Z" fill="#E74E6C"/>
<path d="M1.71054 6.37714C1.59666 6.37714 1.48523 6.32938 1.40564 6.24367C1.36645 6.20081 1.33707 6.1506 1.3187 6.0955C1.16809 5.64489 1.18033 5.3155 1.35176 5.11958C1.52931 4.91632 1.78401 4.91632 1.96033 4.93469C1.93094 4.7706 1.92972 4.57836 2.06074 4.41183C2.1085 4.3506 2.25543 4.16571 2.84074 4.13632C2.95217 4.13142 3.05625 4.16938 3.13707 4.24285C3.21911 4.31632 3.26686 4.41795 3.27176 4.52816C3.28278 4.75469 3.10768 4.94816 2.88115 4.95918C2.86033 4.9604 2.83707 4.96163 2.81503 4.96407C2.85911 5.14407 2.89707 5.40122 2.70972 5.60693C2.5285 5.8053 2.27258 5.80285 2.08401 5.78081C2.0889 5.79918 2.09503 5.81754 2.10115 5.83591C2.17217 6.05142 2.05462 6.2853 1.83911 6.35632C1.79747 6.37101 1.75339 6.37714 1.71054 6.37714ZM1.82931 5.04979C1.68727 5.04979 1.5489 5.08163 1.44605 5.2004C1.30401 5.36203 1.30156 5.64979 1.43625 6.05754C1.44972 6.09673 1.46931 6.13101 1.49747 6.16163C1.57462 6.24612 1.69462 6.27673 1.80237 6.24122C1.95421 6.19101 2.03625 6.02693 1.98605 5.87509C1.97013 5.82734 1.95543 5.77469 1.94441 5.72326C1.93952 5.70367 1.94564 5.68285 1.95911 5.66816C1.97258 5.65346 1.99217 5.64612 2.01298 5.64856C2.24441 5.6804 2.46605 5.69509 2.62156 5.52489C2.79054 5.34122 2.72441 5.09265 2.68156 4.92856C2.67666 4.91142 2.68033 4.89305 2.69013 4.87958C2.69992 4.86489 2.71584 4.85509 2.73298 4.85265C2.78074 4.84652 2.83217 4.8404 2.8787 4.83918C3.03788 4.83183 3.16156 4.69469 3.15421 4.5355C3.15054 4.45836 3.11747 4.38734 3.05992 4.33469C3.00237 4.28326 2.92768 4.25509 2.85176 4.25999C2.32278 4.28571 2.20156 4.43877 2.16237 4.48897C2.03992 4.64326 2.06196 4.82326 2.10237 4.99346C2.10727 5.01305 2.10237 5.03387 2.0889 5.04856C2.07543 5.06326 2.05462 5.0706 2.03503 5.06816C1.96523 5.05714 1.89666 5.04979 1.82931 5.04979ZM9.5987 21.7298C9.41747 21.7298 9.25094 21.6086 9.20074 21.4261C9.19462 21.4053 9.1885 21.3845 9.18115 21.3624C9.01462 21.4433 8.77217 21.5363 8.53094 21.3967C8.29829 21.262 8.24686 21.011 8.22727 20.8224C8.21013 20.8322 8.19299 20.8408 8.17707 20.8506C7.98115 20.9657 7.7289 20.902 7.61258 20.7061C7.52931 20.5665 7.53666 20.3902 7.62972 20.258C7.66278 20.2102 7.70564 20.171 7.75584 20.1416C8.16482 19.898 8.48809 19.8392 8.71707 19.9653C8.95339 20.0963 9.0085 20.3449 9.02809 20.5212C9.18237 20.4563 9.36972 20.4147 9.56074 20.5077C9.63054 20.542 9.8436 20.6449 9.99666 21.2106C10.0248 21.3171 10.0114 21.4273 9.95625 21.5229C9.90115 21.6184 9.81298 21.6869 9.70645 21.7151C9.66972 21.7261 9.63421 21.7298 9.5987 21.7298ZM9.21666 21.2155C9.224 21.2155 9.23135 21.2167 9.2387 21.2192C9.25462 21.2253 9.26809 21.2388 9.27421 21.2547C9.29135 21.3 9.30727 21.349 9.31952 21.3931C9.36115 21.5473 9.52156 21.6392 9.67462 21.5963C9.74931 21.5767 9.81176 21.5278 9.84972 21.4616C9.88768 21.3943 9.8987 21.3159 9.87788 21.2424C9.73952 20.7306 9.56441 20.6449 9.50686 20.618C9.32931 20.5322 9.15911 20.591 9.00115 20.6669C8.98278 20.6755 8.96196 20.6755 8.9436 20.6645C8.92645 20.6547 8.91421 20.6363 8.91299 20.6167C8.89584 20.4122 8.86033 20.1845 8.65707 20.0718C8.46849 19.9677 8.18686 20.0265 7.81829 20.2457C7.78278 20.2665 7.75339 20.2947 7.73013 20.3277C7.66401 20.4208 7.65911 20.5445 7.71788 20.6424C7.7987 20.7796 7.97747 20.8249 8.11462 20.7441C8.15747 20.7184 8.20645 20.6926 8.25421 20.6706C8.27258 20.662 8.29339 20.6633 8.31054 20.6731C8.32768 20.6829 8.3387 20.7012 8.34115 20.7208C8.35952 20.9547 8.39258 21.1739 8.59217 21.289C8.80768 21.4139 9.03666 21.2975 9.1885 21.2204C9.19707 21.2167 9.20686 21.2155 9.21666 21.2155ZM16.3616 18.3612C16.3077 18.3612 16.255 18.3502 16.2036 18.3294C16.102 18.2878 16.0224 18.2082 15.9807 18.1065C15.8938 17.8971 15.9942 17.6547 16.2036 17.5677C16.2232 17.5592 16.244 17.5506 16.2648 17.5408C16.1632 17.3853 16.0395 17.1575 16.1473 16.9004C16.2514 16.6531 16.4938 16.5686 16.6775 16.5257C16.6665 16.5098 16.6542 16.4939 16.6432 16.4792C16.5036 16.3004 16.5354 16.0408 16.7142 15.9012C16.8416 15.8008 17.0179 15.7849 17.1611 15.8608C17.2126 15.8877 17.2567 15.9245 17.2922 15.971C17.586 16.3445 17.6852 16.658 17.5897 16.9016C17.4905 17.1526 17.2518 17.2384 17.0791 17.2812C17.166 17.4306 17.2285 17.6057 17.1599 17.8077C17.1354 17.8812 17.0595 18.1053 16.5183 18.3294C16.4681 18.3502 16.4154 18.3612 16.3616 18.3612ZM16.9689 15.9355C16.9052 15.9355 16.8416 15.9563 16.7901 15.9967C16.664 16.0947 16.642 16.2771 16.7399 16.4033C16.7705 16.4424 16.8024 16.4877 16.8305 16.5318C16.8416 16.549 16.8428 16.5698 16.8354 16.5882C16.8281 16.6065 16.8109 16.62 16.7914 16.6249C16.5624 16.6726 16.3493 16.7339 16.2599 16.9469C16.1632 17.1771 16.3089 17.389 16.4044 17.5286C16.4142 17.5433 16.4179 17.5616 16.413 17.5775C16.4081 17.5935 16.3971 17.6094 16.3824 17.6167C16.3395 17.6388 16.293 17.6608 16.2501 17.6792C16.1032 17.7404 16.0322 17.9106 16.0934 18.0575C16.1228 18.1286 16.1791 18.1849 16.2501 18.2143C16.3211 18.2437 16.4007 18.2437 16.4718 18.2143C16.9616 18.011 17.024 17.8273 17.0436 17.7661C17.106 17.58 17.0265 17.4184 16.9297 17.2714C16.9187 17.2543 16.9163 17.2335 16.9248 17.2151C16.9334 17.1967 16.9493 17.1833 16.9689 17.1784C17.1697 17.1355 17.3901 17.0706 17.4758 16.8539C17.5554 16.6543 17.4611 16.3812 17.1954 16.0445C17.1697 16.0126 17.1391 15.9869 17.1036 15.9673C17.062 15.9465 17.0154 15.9355 16.9689 15.9355ZM13.4828 2.6755C13.3114 2.6755 13.1497 2.56652 13.0922 2.39509C13.0848 2.3755 13.0775 2.35346 13.0689 2.33265C12.9073 2.42448 12.6709 2.53101 12.4224 2.40611C12.1824 2.28611 12.115 2.03877 12.0832 1.85142C12.066 1.86122 12.0501 1.87224 12.0354 1.88203C11.8469 2.00938 11.5909 1.9604 11.4636 1.77305C11.3718 1.63836 11.3681 1.46326 11.4538 1.32489C11.4844 1.27591 11.5248 1.23428 11.5726 1.20122C11.9656 0.933054 12.284 0.854686 12.5203 0.967339C12.764 1.08367 12.8338 1.32734 12.8644 1.50244C13.0138 1.42897 13.1987 1.37509 13.3958 1.45591C13.4681 1.4853 13.686 1.57591 13.8734 2.1306C13.9089 2.23469 13.9016 2.34611 13.8526 2.4453C13.8036 2.54448 13.7191 2.61795 13.615 2.65224C13.5709 2.66938 13.5269 2.6755 13.4828 2.6755ZM13.0995 2.18448C13.1056 2.18448 13.1118 2.18571 13.1179 2.18693C13.135 2.19183 13.1485 2.20407 13.1546 2.21999C13.1742 2.26407 13.1926 2.31183 13.2085 2.35591C13.2599 2.50652 13.424 2.58856 13.5758 2.53714C13.6493 2.51265 13.7081 2.46122 13.7424 2.39142C13.7767 2.32162 13.7816 2.24326 13.7571 2.16979C13.5881 1.66775 13.4081 1.59305 13.3493 1.56856C13.1669 1.49387 12.993 1.56734 12.8473 1.64938C12.8301 1.65918 12.8081 1.6604 12.7897 1.6506C12.7714 1.64203 12.7591 1.62489 12.7567 1.60407C12.7273 1.40081 12.6783 1.17673 12.4677 1.07632C12.2742 0.984482 11.995 1.05918 11.6411 1.30162C11.6069 1.32489 11.5799 1.35428 11.5579 1.38856C11.4979 1.4853 11.5003 1.60897 11.5652 1.70326C11.6546 1.8355 11.8358 1.86979 11.9681 1.7804C12.0097 1.75224 12.0562 1.72407 12.1028 1.69836C12.1199 1.68856 12.142 1.68856 12.1591 1.69714C12.1775 1.70571 12.1897 1.72285 12.1922 1.74367C12.2252 1.97509 12.2718 2.19183 12.4775 2.29591C12.7003 2.40734 12.922 2.27754 13.0677 2.1906C13.0775 2.18693 13.0885 2.18448 13.0995 2.18448ZM21.1224 7.72897C21.0967 7.72897 21.0722 7.72652 21.0465 7.72163C20.6975 7.65673 20.0473 7.29428 20.0901 6.38938C20.0963 6.26081 20.1611 6.14448 20.2677 6.07101C20.3412 6.02081 20.4281 5.99632 20.5175 5.99999C20.7428 6.01101 20.9167 6.20203 20.9069 6.42734C20.8873 6.84734 21.1652 6.91101 21.1971 6.91714C21.3048 6.93673 21.3979 6.99795 21.4591 7.08734C21.5203 7.17673 21.5436 7.28571 21.524 7.39346C21.5044 7.50122 21.4432 7.59428 21.3538 7.6555C21.284 7.70448 21.2044 7.72897 21.1224 7.72897ZM20.4979 6.12367C20.4403 6.12367 20.3852 6.14081 20.3375 6.17387C20.2628 6.2253 20.2175 6.30612 20.2126 6.39673C20.1734 7.21714 20.7563 7.54407 21.0685 7.60285C21.1432 7.61632 21.2203 7.6004 21.2828 7.55754C21.3465 7.51469 21.3881 7.44856 21.4028 7.37387C21.4163 7.29918 21.4003 7.22203 21.3575 7.15958C21.3146 7.09714 21.2485 7.05428 21.1738 7.03958C21.1309 7.03101 20.7599 6.94652 20.7844 6.42367C20.7918 6.26571 20.6693 6.13224 20.5126 6.12489C20.5077 6.12367 20.5028 6.12367 20.4979 6.12367ZM3.04278 16.0384C2.9987 16.0384 2.95584 16.031 2.91299 16.0175C2.69992 15.9453 2.5836 15.7139 2.65584 15.4996C2.78931 15.1004 2.53952 14.9633 2.51135 14.9498C2.41339 14.9008 2.33992 14.8175 2.30564 14.7147C2.27135 14.6118 2.2787 14.5004 2.32645 14.4024C2.37543 14.3045 2.4587 14.2322 2.56156 14.1967C2.66441 14.1624 2.77584 14.1698 2.8738 14.2175C3.19217 14.3755 3.7187 14.9008 3.42972 15.7604C3.38809 15.8829 3.29503 15.9771 3.17135 16.0175C3.13094 16.031 3.08686 16.0384 3.04278 16.0384ZM2.69258 14.2971C2.66196 14.2971 2.63135 14.302 2.60074 14.3118C2.5285 14.3363 2.46972 14.3877 2.43543 14.4563C2.40115 14.5249 2.39625 14.602 2.42074 14.6755C2.44523 14.749 2.49666 14.8065 2.56523 14.8408C2.60441 14.8604 2.9387 15.0429 2.77217 15.54C2.72196 15.6894 2.80278 15.8522 2.95217 15.9024C3.01217 15.922 3.07462 15.922 3.13339 15.9024C3.21911 15.8731 3.28523 15.8082 3.31462 15.7224C3.57543 14.9437 3.10523 14.4698 2.81992 14.329C2.77952 14.3069 2.73666 14.2971 2.69258 14.2971Z" fill="black"/>
</svg>
