<svg width="24" height="24" viewBox="0 0 24 24" fill="none" xmlns="http://www.w3.org/2000/svg">
<g clip-path="url(#clip0_1140_625)">
<path d="M1.07237 3.375H2.19737C1.82237 3.375 1.07237 4.125 1.82237 5.25C2.57237 6.375 1.82237 7.125 1.82237 7.125H0.697373C0.697373 7.125 1.44737 6.375 0.697373 5.25C-0.052627 4.125 0.697373 3.375 1.07237 3.375Z" fill="#F2E5AD"/>
<path d="M1.80389 5.21924C1.58752 5.46599 1.30064 5.63924 0.957141 5.78511C1.21252 6.60599 0.697266 7.12499 0.697266 7.12499H1.82227C1.82227 7.12499 2.57227 6.37499 1.82227 5.24999C1.81514 5.23949 1.81064 5.22974 1.80389 5.21924Z" fill="#F2C63B"/>
<path d="M23.5724 23.625H22.4474C22.0724 23.625 21.3224 22.875 22.0724 21.75C22.8224 20.625 22.0724 19.875 22.0724 19.875H23.1974C23.1974 19.875 23.9474 20.625 23.1974 21.75C22.4474 22.875 23.1974 23.625 23.5724 23.625Z" fill="#F2E5AD"/>
<path d="M23.1976 21.7499C23.6975 21.0003 23.531 20.4187 23.3645 20.113C23.0649 21.1998 23.2344 22.639 21.7651 22.8487C21.839 23.3362 22.2151 23.6249 22.4476 23.6249H23.5726C23.1976 23.6249 22.4476 22.8749 23.1976 21.7499Z" fill="#F2DA66"/>
<path d="M22.6875 9.75C22.9982 9.75 23.25 9.49816 23.25 9.1875C23.25 8.87684 22.9982 8.625 22.6875 8.625C22.3768 8.625 22.125 8.87684 22.125 9.1875C22.125 9.49816 22.3768 9.75 22.6875 9.75Z" fill="#F2E5AD"/>
<path d="M16.6875 2.625C16.9982 2.625 17.25 2.37316 17.25 2.0625C17.25 1.75184 16.9982 1.5 16.6875 1.5C16.3768 1.5 16.125 1.75184 16.125 2.0625C16.125 2.37316 16.3768 2.625 16.6875 2.625Z" fill="#F2E5AD"/>
<path d="M12.75 3V4.125H11.25V3H12H12.75Z" fill="#F2DA66"/>
<path d="M20.3098 8.77499C20.9473 9.80999 21.3973 10.9762 21.6073 12.2212C20.6848 11.9812 19.5635 11.775 18.2998 11.6137C18.1948 10.2712 17.9773 8.99999 17.666 7.83374C18.6298 8.08874 19.5148 8.40749 20.3098 8.77499Z" fill="#F7A537"/>
<path d="M16.8223 5.40381C18.2509 6.21491 19.4507 7.37475 20.3098 8.77506C19.5148 8.40756 18.6298 8.08881 17.666 7.83381C17.4373 6.95631 17.1523 6.14256 16.8223 5.40381Z" fill="#F2DA66"/>
<path d="M18.3001 11.6137C18.4194 13.1224 18.3968 14.6391 18.2326 16.1437C17.1113 16.2824 15.8776 16.3837 14.5688 16.4437C14.6063 15.6149 14.6251 14.7562 14.6251 13.8749C14.6251 12.9937 14.6063 12.1349 14.5688 11.3062C15.9038 11.3662 17.1638 11.4712 18.3001 11.6137Z" fill="#F7A537"/>
<path d="M17.6663 7.83382C17.9776 9.00007 18.1951 10.2713 18.3001 11.6138C17.1638 11.4713 15.9038 11.3663 14.5688 11.3063C14.5013 9.83257 14.3813 8.45632 14.2163 7.22632C15.4388 7.34257 16.5976 7.54882 17.6663 7.83382ZM14.5688 16.4438C15.8776 16.3838 17.1113 16.2826 18.2326 16.1438C18.0751 17.5201 17.8013 18.8101 17.4301 19.9763C16.4288 20.2313 15.3488 20.4188 14.2163 20.5238C14.3813 19.2938 14.5013 17.9176 14.5688 16.4438Z" fill="#F2DA66"/>
<path d="M17.6663 7.83383C16.5976 7.54883 15.4388 7.34258 14.2163 7.22633C14.0626 6.10508 13.8713 5.10383 13.6538 4.26758C14.7901 4.45883 15.8588 4.84883 16.8226 5.40383C17.1526 6.14258 17.4376 6.95633 17.6663 7.83383Z" fill="#F7A537"/>
<path d="M14.5687 11.3062C14.6062 12.135 14.625 12.9938 14.625 13.875C14.625 14.7562 14.6062 15.615 14.5687 16.4437C13.74 16.4812 12.8812 16.5 12 16.5C11.1188 16.5 10.26 16.4812 9.43125 16.4437C9.39375 15.615 9.375 14.7562 9.375 13.875C9.375 12.9938 9.39375 12.135 9.43125 11.3062C10.26 11.2687 11.1188 11.25 12 11.25C12.8812 11.25 13.74 11.2687 14.5687 11.3062Z" fill="#F2DA66"/>
<path d="M14.2162 7.22625C14.3812 8.45625 14.5012 9.8325 14.5687 11.3062C13.7399 11.2687 12.8812 11.25 11.9999 11.25C11.1187 11.25 10.2599 11.2687 9.43115 11.3062C9.49865 9.8325 9.61865 8.45625 9.78365 7.22625C10.5037 7.15875 11.2424 7.125 11.9999 7.125C12.7574 7.125 13.4962 7.15875 14.2162 7.22625ZM14.5687 16.4437C14.5012 17.9175 14.3812 19.2937 14.2162 20.5238C13.4962 20.5912 12.7574 20.625 11.9999 20.625C11.2424 20.625 10.5037 20.5912 9.78365 20.5238C9.61865 19.2937 9.49865 17.9175 9.43115 16.4437C10.2599 16.4812 11.1187 16.5 11.9999 16.5C12.8812 16.5 13.7399 16.4812 14.5687 16.4437Z" fill="#F7A537"/>
<path d="M13.6537 4.2675C13.8712 5.10375 14.0624 6.105 14.2162 7.22625C13.4962 7.15875 12.7574 7.125 11.9999 7.125C11.2424 7.125 10.5037 7.15875 9.78369 7.22625C9.93744 6.105 10.1287 5.10375 10.3462 4.2675C10.8824 4.17375 11.4374 4.125 11.9999 4.125C12.5624 4.125 13.1174 4.17375 13.6537 4.2675Z" fill="#F2DA66"/>
<path d="M10.3465 4.26758C10.129 5.10383 9.93773 6.10508 9.78398 7.22633C8.56148 7.34258 7.40273 7.54883 6.33398 7.83383C6.56273 6.95633 6.84773 6.14258 7.17773 5.40383C8.14148 4.84883 9.21023 4.45883 10.3465 4.26758Z" fill="#F7A537"/>
<path d="M9.78395 7.22632C9.61895 8.45632 9.49895 9.83257 9.43145 11.3063C8.09645 11.3663 6.83645 11.4713 5.7002 11.6138C5.8052 10.2713 6.0227 9.00007 6.33395 7.83382C7.4027 7.54882 8.56145 7.34257 9.78395 7.22632ZM9.43145 16.4438C9.49895 17.9176 9.61895 19.2938 9.78395 20.5238C8.65145 20.4188 7.57145 20.2313 6.5702 19.9763C6.19895 18.8101 5.9252 17.5201 5.7677 16.1438C6.88895 16.2826 8.1227 16.3838 9.43145 16.4438Z" fill="#F2DA66"/>
<path d="M9.43147 11.3062C9.39397 12.1349 9.37522 12.9937 9.37522 13.8749C9.37522 14.7562 9.39397 15.6149 9.43147 16.4437C8.12272 16.3837 6.88897 16.2824 5.76772 16.1437C5.60356 14.6391 5.58096 13.1224 5.70022 11.6137C6.83647 11.4712 8.09647 11.3662 9.43147 11.3062Z" fill="#F7A537"/>
<path d="M7.17744 5.40381C6.84744 6.14256 6.56244 6.95631 6.33369 7.83381C5.36994 8.08881 4.48494 8.40756 3.68994 8.77506C4.54899 7.37475 5.74882 6.21491 7.17744 5.40381Z" fill="#F2DA66"/>
<path d="M5.76758 16.1437C5.92508 17.52 6.19883 18.81 6.57008 19.9762C5.51633 19.7137 4.54883 19.3725 3.69008 18.975C3.03976 17.9205 2.59919 16.7503 2.39258 15.5287C3.33383 15.7762 4.47383 15.9825 5.76758 16.1437ZM6.33383 7.83374C6.02258 8.99999 5.80508 10.2712 5.70008 11.6137C4.43633 11.775 3.31508 11.9812 2.39258 12.2212C2.59919 10.9997 3.03976 9.8295 3.69008 8.77499C4.48508 8.40749 5.37008 8.08874 6.33383 7.83374Z" fill="#F7A537"/>
<path d="M5.7 11.6138C5.58074 13.1226 5.60334 14.6392 5.7675 16.1438C4.47375 15.9825 3.33375 15.7763 2.3925 15.5288C2.29875 14.9925 2.25 14.4375 2.25 13.875C2.25 13.3125 2.29875 12.7575 2.3925 12.2213C3.315 11.9813 4.43625 11.775 5.7 11.6138Z" fill="#F2DA66"/>
<path d="M18.6379 6.7395C18.5524 7.17413 18.4688 7.60838 18.3833 8.03963C19.0411 8.24202 19.6847 8.48768 20.3101 8.775C19.8474 8.02395 19.2849 7.33919 18.6379 6.7395Z" fill="#F2C63B"/>
<path d="M17.5205 11.5249C16.9445 13.2488 16.0895 14.8009 14.5838 15.9957C14.5782 16.1445 14.5756 16.2972 14.5688 16.4438C15.8776 16.3838 17.1113 16.2825 18.2326 16.1438C18.3968 14.6392 18.4194 13.1226 18.3001 11.6138C18.047 11.5819 17.7856 11.5527 17.5205 11.5249Z" fill="#F7852F"/>
<path d="M18.0509 9.60815C17.9044 10.255 17.7273 10.8946 17.5203 11.5248C17.7851 11.5529 18.0468 11.5818 18.2999 11.6137C18.2475 10.9417 18.1644 10.2725 18.0509 9.60815ZM6.56994 19.9762C6.87744 20.9587 7.25619 21.8512 7.69494 22.6237C6.04191 21.8104 4.65325 20.5452 3.68994 18.9749C4.54869 19.3724 5.51619 19.7137 6.56994 19.9762Z" fill="#F2C63B"/>
<path d="M21.6073 12.2212C21.4007 10.9996 20.9601 9.82944 20.3098 8.77493C19.6844 8.4876 19.0408 8.24194 18.383 8.03955C18.2808 8.56406 18.17 9.08688 18.0508 9.6078C18.1614 10.2547 18.2458 10.9244 18.2998 11.6133C19.5635 11.7749 20.6848 11.9812 21.6073 12.2212Z" fill="#F7852F"/>
<path d="M21.6074 12.2213C21.7012 12.7575 21.7499 13.3125 21.7499 13.875C21.7499 14.4375 21.7012 14.9925 21.6074 15.5288C20.6662 15.7763 19.5262 15.9825 18.2324 16.1438C18.3966 14.6392 18.4192 13.1226 18.2999 11.6138C19.5637 11.775 20.6849 11.9813 21.6074 12.2213Z" fill="#F2C63B"/>
<path d="M21.6077 15.5288C21.4011 16.7504 20.9605 17.9205 20.3102 18.9751C19.4514 19.3726 18.4839 19.7138 17.4302 19.9763C17.8014 18.8101 18.0752 17.5201 18.2327 16.1438C19.5264 15.9826 20.6664 15.7763 21.6077 15.5288Z" fill="#F7852F"/>
<path d="M20.3102 18.9751C19.3469 20.5454 17.9582 21.8106 16.3052 22.6238C16.7439 21.8513 17.1227 20.9588 17.4302 19.9763C18.4839 19.7138 19.4514 19.3726 20.3102 18.9751Z" fill="#F2C63B"/>
<path d="M14.2163 20.5238C15.3488 20.4188 16.4288 20.2313 17.4301 19.9763C17.1226 20.9588 16.7438 21.8513 16.3051 22.6238C15.4683 23.0387 14.5749 23.3281 13.6538 23.4826C13.8713 22.6463 14.0626 21.6451 14.2163 20.5238Z" fill="#F7852F"/>
<path d="M14.2162 20.5237C14.0624 21.6449 13.8712 22.6462 13.6537 23.4824C13.1174 23.5762 12.5624 23.6249 11.9999 23.6249C11.4374 23.6249 10.8824 23.5762 10.3462 23.4824C10.1287 22.6462 9.93744 21.6449 9.78369 20.5237C10.5037 20.5912 11.2424 20.6249 11.9999 20.6249C12.7574 20.6249 13.4962 20.5912 14.2162 20.5237Z" fill="#F2C63B"/>
<path d="M9.78357 20.5238C9.93732 21.6451 10.1286 22.6463 10.3461 23.4826C9.40857 23.3251 8.51982 23.0326 7.69482 22.6238C7.25607 21.8513 6.87732 20.9588 6.56982 19.9763C7.57107 20.2313 8.65107 20.4188 9.78357 20.5238Z" fill="#F7852F"/>
<path d="M14.2163 20.5238C15.3488 20.4188 16.4288 20.2313 17.4301 19.9763C17.8013 18.81 18.0751 17.52 18.2326 16.1438C17.1113 16.2825 15.8776 16.3838 14.5688 16.4438C14.5013 17.9175 14.3813 19.2938 14.2163 20.5238ZM20.3101 18.975C19.3468 20.5454 17.9581 21.8105 16.3051 22.6238C16.7438 21.8513 17.1226 20.9588 17.4301 19.9763C18.4838 19.7138 19.4513 19.3725 20.3101 18.975Z" fill="#F2C63B"/>
<path d="M14.5688 16.4437C14.5755 16.2967 14.5781 16.1441 14.5838 15.9956C14.3775 16.1591 14.1581 16.3155 13.9268 16.4655C14.1409 16.458 14.3584 16.4531 14.5688 16.4437Z" fill="#F2DA66"/>
<path d="M9.54199 18.1928C9.60649 19.0126 9.68637 19.7963 9.78387 20.5238C10.5039 20.5913 11.2426 20.6251 12.0001 20.6251C12.7576 20.6251 13.4964 20.5913 14.2164 20.5238C14.3814 19.2938 14.5014 17.9176 14.5689 16.4438C14.3585 16.4532 14.141 16.4581 13.9269 16.4652C13.9092 16.4768 13.8927 16.4888 13.8751 16.5001C12.5577 17.2321 11.0686 17.8456 9.54199 18.1928Z" fill="#F7852F"/>
<path d="M6.16406 18.458C6.27809 18.9696 6.41359 19.4762 6.57019 19.9764C7.57144 20.2314 8.65144 20.4189 9.78394 20.5239C9.68644 19.7964 9.60656 19.0126 9.54206 18.1929C8.41819 18.4486 7.27519 18.5577 6.16406 18.458Z" fill="#F2C63B"/>
<path d="M3.69006 18.9751C4.54881 19.3726 5.51631 19.7138 6.57006 19.9763C6.41328 19.4761 6.27779 18.9696 6.16393 18.4579C5.02806 18.3559 3.92893 18.0297 2.91943 17.4248C3.12947 17.9635 3.38738 18.4824 3.69006 18.9751Z" fill="#F7852F"/>
<path d="M0.9375 19.5C1.24816 19.5 1.5 19.2482 1.5 18.9375C1.5 18.6268 1.24816 18.375 0.9375 18.375C0.62684 18.375 0.375 18.6268 0.375 18.9375C0.375 19.2482 0.62684 19.5 0.9375 19.5Z" fill="#F2E5AD"/>
<path d="M10.673 7.73472C10.1904 7.73472 10.1897 8.48472 10.673 8.48472C11.1553 8.48472 11.1564 7.73472 10.673 7.73472ZM6.67555 12.1893C6.19292 12.1893 6.19217 12.9393 6.67555 12.9393C7.15817 12.9393 7.1593 12.1893 6.67555 12.1893ZM15.6159 11.976C15.1333 11.976 15.1325 12.726 15.6159 12.726C16.0985 12.726 16.0993 11.976 15.6159 11.976ZM15.9212 5.59872C15.4385 5.59872 15.4378 6.34872 15.9212 6.34872C16.4038 6.34872 16.4045 5.59872 15.9212 5.59872ZM8.01842 5.62909C7.5358 5.62909 7.53505 6.37909 8.01842 6.37909C8.50105 6.37909 8.5018 5.62909 8.01842 5.62909ZM4.26505 9.10759C3.78242 9.10759 3.78167 9.85759 4.26505 9.85759C4.74767 9.85759 4.7488 9.10759 4.26505 9.10759ZM3.71605 16.3087C3.23342 16.3087 3.23267 17.0587 3.71605 17.0587C4.19867 17.0587 4.19942 16.3087 3.71605 16.3087ZM10.3982 11.8845C9.91555 11.8845 9.9148 12.6345 10.3982 12.6345C10.8808 12.6345 10.8815 11.8845 10.3982 11.8845ZM16.8669 8.16184C16.3843 8.16184 16.3835 8.91184 16.8669 8.91184C17.3495 8.91184 17.3503 8.16184 16.8669 8.16184ZM11.5577 5.32422C11.075 5.32422 11.0743 6.07422 11.5577 6.07422C12.0403 6.07422 12.041 5.32422 11.5577 5.32422ZM3.56342 12.7691C3.0808 12.7691 3.08005 13.5191 3.56342 13.5191C4.04605 13.5191 4.0468 12.7691 3.56342 12.7691ZM7.80467 8.37522C7.32205 8.37522 7.3213 9.12522 7.80467 9.12522C8.2873 9.12522 8.28805 8.37522 7.80467 8.37522ZM8.01842 17.0411C7.5358 17.0411 7.53505 17.7911 8.01842 17.7911C8.50105 17.7911 8.5018 17.0411 8.01842 17.0411Z" fill="#F2E5AD"/>
<path d="M1.875 13.875C1.875 14.4529 1.92488 15.0308 2.02312 15.5925C2.2367 16.8613 2.69427 18.0766 3.3705 19.1711C4.36575 20.7955 5.80023 22.1052 7.50825 22.9489L7.5105 22.95L7.5285 22.9598C8.3975 23.3903 9.32502 23.6909 10.2814 23.8519C11.4177 24.0498 12.5796 24.0499 13.716 23.8522C14.6729 23.6915 15.6009 23.3909 16.4704 22.9601C16.4768 22.9571 16.4827 22.953 16.4895 22.95L16.4921 22.9485C18.2 22.105 19.6343 20.7956 20.6295 19.1715C21.3056 18.077 21.7632 16.8619 21.9769 15.5933C22.0751 15.0311 22.125 14.4532 22.125 13.875C22.125 13.2968 22.0751 12.7189 21.9772 12.1586C21.7637 10.8893 21.306 9.6735 20.6295 8.5785C19.7438 7.13716 18.5108 5.94092 17.0434 5.09925C17.0144 5.07707 16.9823 5.05937 16.9481 5.04675C15.9471 4.47799 14.854 4.08923 13.7186 3.89813C13.5229 3.864 13.3237 3.84337 13.125 3.82125V3C13.125 2.90054 13.0855 2.80516 13.0152 2.73484C12.9448 2.66451 12.8495 2.625 12.75 2.625H12.375V0.375C12.375 0.275544 12.3355 0.180161 12.2652 0.109835C12.1948 0.0395088 12.0995 0 12 0C11.9005 0 11.8052 0.0395088 11.7348 0.109835C11.6645 0.180161 11.625 0.275544 11.625 0.375V2.625H11.25C11.1505 2.625 11.0552 2.66451 10.9848 2.73484C10.9145 2.80516 10.875 2.90054 10.875 3V3.82125C10.677 3.84337 10.4782 3.86363 10.284 3.89775C9.14716 4.08908 8.0527 4.47835 7.05037 5.04788C7.01664 5.0606 6.98494 5.07816 6.95625 5.1C5.48919 5.94176 4.25641 7.13767 3.3705 8.5785C2.69437 9.67298 2.23681 10.8881 2.02312 12.1567C1.92439 12.7242 1.87483 13.2991 1.875 13.875ZM3.95625 9.06787C4.56143 8.79565 5.18361 8.56291 5.81888 8.37113C5.59884 9.33026 5.44435 10.3033 5.3565 11.2834C4.44825 11.4064 3.62063 11.5519 2.886 11.7184C3.10246 10.7845 3.46357 9.89021 3.95625 9.06787ZM7.47075 5.67412C8.21457 5.25935 9.01301 4.95121 9.84262 4.75875C9.68606 5.46286 9.55684 6.17276 9.45525 6.88688C8.58503 6.97895 7.72111 7.12308 6.86812 7.3185C7.03645 6.75899 7.23768 6.20991 7.47075 5.67412ZM12 4.5C12.4519 4.50228 12.9029 4.53763 13.3496 4.60575C13.5105 5.26237 13.6534 6.00413 13.7767 6.82013C12.5939 6.73575 11.4065 6.73575 10.2236 6.82013C10.347 6.00375 10.4899 5.262 10.6508 4.60575C11.0973 4.53755 11.5483 4.50221 12 4.5ZM16.5292 5.67412C16.7621 6.20983 16.9632 6.75878 17.1315 7.31812C16.2786 7.12274 15.4148 6.9786 14.5448 6.8865C14.4432 6.17239 14.3139 5.46248 14.1574 4.75838C14.987 4.95092 15.7855 5.25918 16.5292 5.67412ZM20.0438 9.0675C20.5365 9.88995 20.8978 10.7844 21.1144 11.7184C20.3801 11.5519 19.5521 11.4068 18.6439 11.2834C18.556 10.3033 18.4015 9.33027 18.1815 8.37113C18.8166 8.56291 19.4386 8.79552 20.0438 9.0675ZM20.0441 18.6821C19.3737 18.9833 18.6825 19.2362 17.976 19.4389C18.2436 18.4669 18.4406 17.4768 18.5655 16.4764C19.5112 16.3515 20.3647 16.203 21.1144 16.0324C20.8976 16.9659 20.5365 17.8599 20.0441 18.6821ZM16.0335 22.335C15.4337 22.6231 14.8042 22.8449 14.1562 22.9965C14.3135 22.2911 14.4431 21.5798 14.5448 20.8643C15.3223 20.7831 16.0948 20.6595 16.8589 20.4941C16.633 21.1287 16.357 21.7443 16.0335 22.335ZM7.9665 22.335C7.64295 21.7443 7.36707 21.1287 7.1415 20.4941C7.89038 20.6576 8.66512 20.7806 9.45563 20.8643C9.5685 21.6383 9.69788 22.353 9.84412 22.9965C9.19601 22.8451 8.56639 22.6233 7.9665 22.335ZM3.95625 18.6825C3.46355 17.8603 3.10232 16.9661 2.88563 16.0324C3.63488 16.203 4.48912 16.3515 5.4345 16.4764C5.55942 17.4769 5.75643 18.4671 6.024 19.4393C5.31768 19.2363 4.62669 18.9834 3.95625 18.6825ZM5.29838 12.0487C5.26789 12.5319 5.25176 13.0159 5.25 13.5C5.25 14.2463 5.29087 14.9839 5.35575 15.7087C4.36575 15.573 3.48563 15.4106 2.73038 15.2242C2.66249 14.7777 2.62727 14.3267 2.625 13.875C2.625 13.422 2.66513 12.9709 2.73075 12.5261C3.47887 12.3427 4.33987 12.183 5.29838 12.0487ZM9.81863 7.59975C11.1296 7.47675 12.555 7.473 13.8814 7.57913C14.0115 8.61337 14.1086 9.73312 14.1716 10.9181C12.7583 10.8656 11.2425 10.8656 9.8295 10.9181C9.87075 10.1396 9.92437 9.37875 9.99487 8.66213C10.0007 8.61262 9.99663 8.56244 9.98285 8.51453C9.96906 8.46661 9.94587 8.42193 9.91461 8.38309C9.88336 8.34425 9.84468 8.31203 9.80082 8.28832C9.75697 8.26461 9.70883 8.24988 9.65921 8.24499C9.6096 8.24011 9.55951 8.24516 9.51188 8.25986C9.46424 8.27456 9.42001 8.29862 9.38178 8.33061C9.34355 8.36261 9.31208 8.40191 9.28922 8.44621C9.26636 8.49051 9.25255 8.53893 9.24862 8.58862C9.17475 9.33862 9.11888 10.1348 9.0765 10.9504C8.04075 11.0033 7.05037 11.0835 6.11963 11.1892C6.21819 10.1628 6.39381 9.14514 6.645 8.145C7.68723 7.88166 8.74827 7.69936 9.81863 7.59975ZM17.3554 8.14425C17.6065 9.14453 17.7822 10.1623 17.8807 11.1889C16.8981 11.0789 15.9122 10.9993 14.9246 10.95C14.8695 9.84812 14.7765 8.74847 14.6456 7.653C15.5588 7.75642 16.464 7.92053 17.3554 8.14425ZM21.2692 12.5261C21.3374 12.9726 21.3728 13.4234 21.375 13.875C21.375 14.328 21.3349 14.7791 21.2692 15.2242C20.5144 15.4106 19.6342 15.573 18.6442 15.7087C18.7091 14.9846 18.75 14.2466 18.75 13.5C18.75 13.0189 18.7305 12.5329 18.7016 12.0487C19.6605 12.183 20.5211 12.3427 21.2692 12.5261ZM14.6456 20.0985C14.7705 19.0718 14.8643 17.9666 14.9246 16.8C15.9334 16.7475 16.8949 16.6706 17.7956 16.5701C17.6479 17.6561 17.4263 18.693 17.1307 19.6609C16.3123 19.8582 15.4823 20.0043 14.6456 20.0985ZM6.86887 19.6609C6.57375 18.6934 6.35213 17.6561 6.20438 16.5701C7.10512 16.6706 8.06625 16.7475 9.07537 16.8C9.13575 17.9666 9.2295 19.0714 9.35437 20.0985C8.51762 20.0042 7.68753 19.858 6.86887 19.6609ZM9.04275 11.7026C9.0165 12.4076 9 13.1325 9 13.875C9 14.6171 9.0165 15.342 9.04275 16.047C8.06487 15.9967 7.08877 15.9162 6.11588 15.8055C6.04031 15.0393 6.00164 14.2699 6 13.5C6.00151 12.983 6.02002 12.4663 6.0555 11.9505C6.99188 11.8406 7.99312 11.7578 9.04275 11.7026ZM9.79425 16.0807C9.76688 15.3664 9.75 14.6295 9.75 13.875C9.75 13.1205 9.76688 12.3836 9.79425 11.6693C11.2264 11.6141 12.7732 11.6141 14.2057 11.6693C14.249 12.7766 14.2602 13.8849 14.2395 14.9929C14.2358 15.1999 14.4004 15.3709 14.6074 15.375H14.6145C14.8181 15.375 14.9854 15.2115 14.9895 15.0071C15.01 13.9055 14.9992 12.8036 14.9573 11.7026C16.0072 11.7578 17.0085 11.8406 17.9445 11.9505C17.98 12.4663 17.9985 12.983 18 13.5C18 14.2808 17.9569 15.0529 17.8841 15.8055C16.8506 15.9251 15.7343 16.0148 14.5519 16.0691C13.0286 16.1381 11.3404 16.14 9.79425 16.0807ZM10.1186 20.1712C9.98205 19.0621 9.88524 17.9484 9.82837 16.8323C10.533 16.8585 11.2579 16.875 12 16.875C12.7421 16.875 13.4666 16.8585 14.1716 16.8323C14.1148 17.9484 14.018 19.0621 13.8814 20.1712C12.629 20.2691 11.371 20.2691 10.1186 20.1712ZM4.74375 19.809C5.23725 19.9883 5.74987 20.1473 6.279 20.2856C6.43259 20.7585 6.6093 21.2236 6.8085 21.6791C6.03053 21.1626 5.33452 20.5322 4.74375 19.809ZM10.6504 23.1442C10.4895 22.4876 10.3466 21.7459 10.2232 20.9303C10.8049 20.9722 11.3974 21 12 21C12.6026 21 13.1951 20.9722 13.7764 20.9299C13.653 21.7459 13.5101 22.4876 13.3492 23.1442C12.462 23.2747 11.5417 23.2751 10.6504 23.1442ZM17.1919 21.6791C17.391 21.2236 17.5676 20.7585 17.721 20.2856C18.24 20.1506 18.7524 19.9915 19.2566 19.809C18.6657 20.532 17.9697 21.1624 17.1919 21.6791ZM19.2518 7.93762C18.8381 7.78762 18.4099 7.65263 17.9708 7.53113C17.8636 7.13774 17.7423 6.74836 17.607 6.36375C18.2171 6.81973 18.7694 7.34824 19.2518 7.93762ZM11.625 3.375H12.375V3.75H11.625V3.375ZM6.39337 6.36375C6.25785 6.74828 6.13652 7.13767 6.02962 7.53113C5.5976 7.65024 5.17028 7.78584 4.74862 7.93762C5.23083 7.34807 5.78316 6.81954 6.39337 6.36375ZM21.546 23.3666C21.7489 23.7454 22.1111 24 22.4475 24H23.5725C23.6724 24.0001 23.7682 23.9608 23.8392 23.8905C23.9102 23.8203 23.9506 23.7249 23.9516 23.625C23.9521 23.5758 23.9428 23.5269 23.9243 23.4813C23.9057 23.4357 23.8783 23.3943 23.8436 23.3594C23.8088 23.3245 23.7675 23.2969 23.722 23.2781C23.6765 23.2593 23.6277 23.2497 23.5785 23.25C23.535 23.2406 23.3921 23.1566 23.3089 22.9639C23.2245 22.7689 23.1908 22.4363 23.5095 21.9578C24.2378 20.8654 23.7975 19.944 23.4626 19.6095C23.3922 19.5394 23.2969 19.5 23.1975 19.5H22.0725C21.9985 19.5004 21.9263 19.5226 21.8648 19.5638C21.8034 19.6051 21.7555 19.6636 21.7272 19.732C21.6989 19.8003 21.6914 19.8755 21.7057 19.9481C21.7199 20.0208 21.7553 20.0875 21.8074 20.1401C21.8126 20.1454 22.3331 20.6828 21.7605 21.5419C21.1856 22.404 21.3795 23.055 21.546 23.3666ZM22.3845 21.9581C22.827 21.2948 22.8379 20.6944 22.7036 20.25H23.0138C23.1356 20.4487 23.3085 20.9077 22.8855 21.5419C22.3744 22.3084 22.4711 22.908 22.6155 23.2504H22.4557C22.4149 23.2432 22.2686 23.1596 22.1839 22.9639C22.0995 22.7692 22.0658 22.4363 22.3845 21.9581ZM0.432375 6.85987C0.379946 6.91232 0.344244 6.97913 0.329781 7.05186C0.315318 7.1246 0.322744 7.19998 0.351121 7.2685C0.379497 7.33701 0.427549 7.39557 0.489203 7.43678C0.550857 7.47798 0.623344 7.49998 0.6975 7.5H1.8225C1.92188 7.5 2.0175 7.46063 2.08763 7.39013C2.4225 7.05563 2.86275 6.13425 2.1345 5.04187C1.81575 4.56375 1.8495 4.23075 1.93388 4.03575C2.01713 3.84337 2.16 3.75938 2.2035 3.75C2.30296 3.7492 2.39802 3.70893 2.46779 3.63804C2.53755 3.56716 2.5763 3.47146 2.5755 3.372C2.5747 3.27254 2.53443 3.17748 2.46354 3.10771C2.39265 3.03795 2.29696 2.9992 2.1975 3H1.0725C0.736125 3 0.373875 3.25463 0.171 3.63338C0.0045 3.94463 -0.189375 4.59562 0.3855 5.45775C0.9375 6.28613 0.482625 6.80662 0.432375 6.85987ZM0.808875 4.03612C0.893625 3.84 1.03987 3.75638 1.0725 3.75H1.2405C1.09575 4.09237 0.99975 4.692 1.5105 5.45813C1.935 6.0945 1.764 6.54938 1.6395 6.75H1.32825C1.4625 6.30562 1.45162 5.70525 1.00912 5.04187C0.69075 4.56375 0.7245 4.23075 0.808875 4.03612ZM1.125 21.75H0.75C0.650544 21.75 0.555161 21.7895 0.484835 21.8598C0.414509 21.9302 0.375 22.0255 0.375 22.125C0.375 22.2245 0.414509 22.3198 0.484835 22.3902C0.555161 22.4605 0.650544 22.5 0.75 22.5H1.125C1.22446 22.5 1.31984 22.4605 1.39017 22.3902C1.46049 22.3198 1.5 22.2245 1.5 22.125C1.5 22.0255 1.46049 21.9302 1.39017 21.8598C1.31984 21.7895 1.22446 21.75 1.125 21.75ZM2.25 21C2.25 20.9005 2.21049 20.8052 2.14016 20.7348C2.06984 20.6645 1.97446 20.625 1.875 20.625C1.77554 20.625 1.68016 20.6645 1.60984 20.7348C1.53951 20.8052 1.5 20.9005 1.5 21V21.375C1.5 21.4745 1.53951 21.5698 1.60984 21.6402C1.68016 21.7105 1.77554 21.75 1.875 21.75C1.97446 21.75 2.06984 21.7105 2.14016 21.6402C2.21049 21.5698 2.25 21.4745 2.25 21.375V21ZM1.875 23.625C1.97446 23.625 2.06984 23.5855 2.14016 23.5152C2.21049 23.4448 2.25 23.3495 2.25 23.25V22.875C2.25 22.7755 2.21049 22.6802 2.14016 22.6098C2.06984 22.5395 1.97446 22.5 1.875 22.5C1.77554 22.5 1.68016 22.5395 1.60984 22.6098C1.53951 22.6802 1.5 22.7755 1.5 22.875V23.25C1.5 23.3495 1.53951 23.4448 1.60984 23.5152C1.68016 23.5855 1.77554 23.625 1.875 23.625ZM2.625 22.5H3C3.09946 22.5 3.19484 22.4605 3.26516 22.3902C3.33549 22.3198 3.375 22.2245 3.375 22.125C3.375 22.0255 3.33549 21.9302 3.26516 21.8598C3.19484 21.7895 3.09946 21.75 3 21.75H2.625C2.52554 21.75 2.43016 21.7895 2.35984 21.8598C2.28951 21.9302 2.25 22.0255 2.25 22.125C2.25 22.2245 2.28951 22.3198 2.35984 22.3902C2.43016 22.4605 2.52554 22.5 2.625 22.5ZM21.375 6H21.75C21.8495 6 21.9448 5.96049 22.0152 5.89016C22.0855 5.81984 22.125 5.72446 22.125 5.625C22.125 5.52554 22.0855 5.43016 22.0152 5.35984C21.9448 5.28951 21.8495 5.25 21.75 5.25H21.375C21.2755 5.25 21.1802 5.28951 21.1098 5.35984C21.0395 5.43016 21 5.52554 21 5.625C21 5.72446 21.0395 5.81984 21.1098 5.89016C21.1802 5.96049 21.2755 6 21.375 6ZM22.5 5.25C22.5995 5.25 22.6948 5.21049 22.7652 5.14016C22.8355 5.06984 22.875 4.97446 22.875 4.875V4.5C22.875 4.40054 22.8355 4.30516 22.7652 4.23484C22.6948 4.16451 22.5995 4.125 22.5 4.125C22.4005 4.125 22.3052 4.16451 22.2348 4.23484C22.1645 4.30516 22.125 4.40054 22.125 4.5V4.875C22.125 4.97446 22.1645 5.06984 22.2348 5.14016C22.3052 5.21049 22.4005 5.25 22.5 5.25ZM22.875 6.75V6.375C22.875 6.27554 22.8355 6.18016 22.7652 6.10983C22.6948 6.03951 22.5995 6 22.5 6C22.4005 6 22.3052 6.03951 22.2348 6.10983C22.1645 6.18016 22.125 6.27554 22.125 6.375V6.75C22.125 6.84946 22.1645 6.94484 22.2348 7.01517C22.3052 7.08549 22.4005 7.125 22.5 7.125C22.5995 7.125 22.6948 7.08549 22.7652 7.01517C22.8355 6.94484 22.875 6.84946 22.875 6.75ZM23.25 6H23.625C23.7245 6 23.8198 5.96049 23.8902 5.89016C23.9605 5.81984 24 5.72446 24 5.625C24 5.52554 23.9605 5.43016 23.8902 5.35984C23.8198 5.28951 23.7245 5.25 23.625 5.25H23.25C23.1505 5.25 23.0552 5.28951 22.9848 5.35984C22.9145 5.43016 22.875 5.52554 22.875 5.625C22.875 5.72446 22.9145 5.81984 22.9848 5.89016C23.0552 5.96049 23.1505 6 23.25 6ZM4.125 3H4.5C4.59946 3 4.69484 2.96049 4.76516 2.89016C4.83549 2.81984 4.875 2.72446 4.875 2.625C4.875 2.52554 4.83549 2.43016 4.76516 2.35984C4.69484 2.28951 4.59946 2.25 4.5 2.25H4.125C4.02554 2.25 3.93016 2.28951 3.85984 2.35984C3.78951 2.43016 3.75 2.52554 3.75 2.625C3.75 2.72446 3.78951 2.81984 3.85984 2.89016C3.93016 2.96049 4.02554 3 4.125 3ZM5.25 2.25C5.34946 2.25 5.44484 2.21049 5.51516 2.14016C5.58549 2.06984 5.625 1.97446 5.625 1.875V1.5C5.625 1.40054 5.58549 1.30516 5.51516 1.23483C5.44484 1.16451 5.34946 1.125 5.25 1.125C5.15054 1.125 5.05516 1.16451 4.98484 1.23483C4.91451 1.30516 4.875 1.40054 4.875 1.5V1.875C4.875 1.97446 4.91451 2.06984 4.98484 2.14016C5.05516 2.21049 5.15054 2.25 5.25 2.25ZM5.25 3C5.15054 3 5.05516 3.03951 4.98484 3.10984C4.91451 3.18016 4.875 3.27554 4.875 3.375V3.75C4.875 3.84946 4.91451 3.94484 4.98484 4.01516C5.05516 4.08549 5.15054 4.125 5.25 4.125C5.34946 4.125 5.44484 4.08549 5.51516 4.01516C5.58549 3.94484 5.625 3.84946 5.625 3.75V3.375C5.625 3.27554 5.58549 3.18016 5.51516 3.10984C5.44484 3.03951 5.34946 3 5.25 3ZM6 2.25C5.90054 2.25 5.80516 2.28951 5.73484 2.35984C5.66451 2.43016 5.625 2.52554 5.625 2.625C5.625 2.72446 5.66451 2.81984 5.73484 2.89016C5.80516 2.96049 5.90054 3 6 3H6.375C6.47446 3 6.56984 2.96049 6.64017 2.89016C6.71049 2.81984 6.75 2.72446 6.75 2.625C6.75 2.52554 6.71049 2.43016 6.64017 2.35984C6.56984 2.28951 6.47446 2.25 6.375 2.25H6ZM0.9375 19.875C1.45425 19.875 1.875 19.4543 1.875 18.9375C1.875 18.4207 1.45425 18 0.9375 18C0.42075 18 0 18.4207 0 18.9375C0 19.4543 0.42075 19.875 0.9375 19.875ZM0.9375 18.75C0.987228 18.75 1.03492 18.7698 1.07008 18.8049C1.10525 18.8401 1.125 18.8878 1.125 18.9375C1.125 18.9872 1.10525 19.0349 1.07008 19.0701C1.03492 19.1052 0.987228 19.125 0.9375 19.125C0.887772 19.125 0.840081 19.1052 0.804918 19.0701C0.769754 19.0349 0.75 18.9872 0.75 18.9375C0.75 18.8878 0.769754 18.8401 0.804918 18.8049C0.840081 18.7698 0.887772 18.75 0.9375 18.75ZM21.75 9.1875C21.75 9.70425 22.1707 10.125 22.6875 10.125C23.2043 10.125 23.625 9.70425 23.625 9.1875C23.625 8.67075 23.2043 8.25 22.6875 8.25C22.1707 8.25 21.75 8.67075 21.75 9.1875ZM22.6875 9C22.7372 9 22.7849 9.01975 22.8201 9.05492C22.8552 9.09008 22.875 9.13777 22.875 9.1875C22.875 9.23723 22.8552 9.28492 22.8201 9.32008C22.7849 9.35525 22.7372 9.375 22.6875 9.375C22.6378 9.375 22.5901 9.35525 22.5549 9.32008C22.5198 9.28492 22.5 9.23723 22.5 9.1875C22.5 9.13777 22.5198 9.09008 22.5549 9.05492C22.5901 9.01975 22.6378 9 22.6875 9ZM15.75 2.0625C15.75 2.57925 16.1707 3 16.6875 3C17.2043 3 17.625 2.57925 17.625 2.0625C17.625 1.54575 17.2043 1.125 16.6875 1.125C16.1707 1.125 15.75 1.54575 15.75 2.0625ZM16.875 2.0625C16.875 2.11223 16.8552 2.15992 16.8201 2.19508C16.7849 2.23025 16.7372 2.25 16.6875 2.25C16.6378 2.25 16.5901 2.23025 16.5549 2.19508C16.5198 2.15992 16.5 2.11223 16.5 2.0625C16.5 2.01277 16.5198 1.96508 16.5549 1.92992C16.5901 1.89475 16.6378 1.875 16.6875 1.875C16.7372 1.875 16.7849 1.89475 16.8201 1.92992C16.8552 1.96508 16.875 2.01277 16.875 2.0625Z" fill="#C15810"/>
</g>
<defs>
<clipPath id="clip0_1140_625">
<rect width="24" height="24" fill="white"/>
</clipPath>
</defs>
</svg>
