<svg width="25" height="32" viewBox="0 0 25 32" fill="none" xmlns="http://www.w3.org/2000/svg">
<g filter="url(#filter0_d_1140_808)">
<path d="M20.0267 1.43998V22.56C20.0267 23.0902 19.579 23.52 19.0267 23.52H5.97363C5.42135 23.52 4.97363 23.0902 4.97363 22.56V1.43998C4.97363 0.909787 5.42135 0.47998 5.97363 0.47998H19.0267C19.579 0.47998 20.0267 0.909787 20.0267 1.43998Z" fill="#C9EAF5"/>
<path d="M18.0266 3.39551H6.97363V18.6729H18.0266V3.39551Z" fill="#66CCFF"/>
<path d="M13.2876 21.0942C13.2876 21.5118 12.9327 21.8526 12.4976 21.8526C12.0626 21.8526 11.7127 21.5118 11.7127 21.0942C11.7127 20.6766 12.0626 20.3406 12.4976 20.3406C12.9327 20.3406 13.2876 20.6766 13.2876 21.0942ZM13.5247 2.29764H11.4756C11.2686 2.29764 11.1006 2.13639 11.1006 1.93764C11.1006 1.73889 11.2686 1.57764 11.4756 1.57764H13.5247C13.7317 1.57764 13.8997 1.73889 13.8997 1.93764C13.8997 2.13639 13.7317 2.29764 13.5247 2.29764Z" fill="#666666"/>
<path d="M15.281 11.3963L12.6431 13.9287C12.5601 14.0084 12.4255 14.0084 12.3425 13.9287L9.75094 11.4408C9.10394 10.8197 9.04017 9.79919 9.66904 9.16114C10.3199 8.50076 11.404 8.4899 12.0669 9.12619C12.2763 9.32505 12.416 9.56635 12.4904 9.82107C12.5673 9.56859 12.7092 9.32727 12.9164 9.12619C13.5681 8.50058 14.627 8.50058 15.281 9.12619C15.9327 9.7518 15.9327 10.7707 15.281 11.3963Z" fill="#FF4848"/>
<path d="M5.67725 5.22131C5.60816 5.22131 5.55225 5.1674 5.55225 5.10131V4.00818C5.55225 3.94209 5.60816 3.88818 5.67725 3.88818C5.74634 3.88818 5.80225 3.94209 5.80225 4.00818V5.10131C5.80225 5.1674 5.74634 5.22131 5.67725 5.22131ZM5.67725 11.564C5.60816 11.564 5.55225 11.5101 5.55225 11.444V6.12506C5.55225 6.05896 5.60816 6.00506 5.67725 6.00506C5.74634 6.00506 5.80225 6.05896 5.80225 6.12506V11.444C5.80225 11.5101 5.74634 11.564 5.67725 11.564Z" fill="white"/>
</g>
<defs>
<filter id="filter0_d_1140_808" x="-4" y="0" width="33" height="32" filterUnits="userSpaceOnUse" color-interpolation-filters="sRGB">
<feFlood flood-opacity="0" result="BackgroundImageFix"/>
<feColorMatrix in="SourceAlpha" type="matrix" values="0 0 0 0 0 0 0 0 0 0 0 0 0 0 0 0 0 0 127 0" result="hardAlpha"/>
<feOffset dy="4"/>
<feGaussianBlur stdDeviation="2"/>
<feComposite in2="hardAlpha" operator="out"/>
<feColorMatrix type="matrix" values="0 0 0 0 0 0 0 0 0 0 0 0 0 0 0 0 0 0 0.25 0"/>
<feBlend mode="normal" in2="BackgroundImageFix" result="effect1_dropShadow_1140_808"/>
<feBlend mode="normal" in="SourceGraphic" in2="effect1_dropShadow_1140_808" result="shape"/>
</filter>
</defs>
</svg>
