<svg width="23" height="23" viewBox="0 0 23 23" fill="none" xmlns="http://www.w3.org/2000/svg">
<path d="M18.2428 4.99875L12.0137 8.95475C11.8601 9.05226 11.6819 9.10404 11.5 9.10404C11.3181 9.10404 11.1399 9.05226 10.9863 8.95475L4.75717 4.99875C4.62095 4.91226 4.50878 4.79279 4.43104 4.65139C4.35331 4.51 4.31254 4.35127 4.3125 4.18992V1.43758C4.3125 1.18342 4.41347 0.93966 4.59319 0.759937C4.77291 0.580215 5.01667 0.479248 5.27083 0.479248H17.7292C17.9833 0.479248 18.2271 0.580215 18.4068 0.759937C18.5865 0.93966 18.6875 1.18342 18.6875 1.43758V4.18992C18.6875 4.35127 18.6467 4.51 18.569 4.65139C18.4912 4.79279 18.379 4.91226 18.2428 4.99875Z" fill="#D65363"/>
<path d="M18.2428 3.08203L12.0137 7.03803C11.8601 7.13554 11.6819 7.18732 11.5 7.18732C11.3181 7.18732 11.1399 7.13554 10.9863 7.03803L4.75717 3.08203C4.62095 2.99554 4.50878 2.87606 4.43104 2.73467C4.35331 2.59328 4.31254 2.43455 4.3125 2.27319V4.18986C4.31254 4.35121 4.35331 4.50994 4.43104 4.65134C4.50878 4.79273 4.62095 4.91221 4.75717 4.99869L10.9863 8.95469C11.1399 9.0522 11.3181 9.10398 11.5 9.10398C11.6819 9.10398 11.8601 9.0522 12.0137 8.95469L18.2428 4.99869C18.379 4.91221 18.4912 4.79273 18.569 4.65134C18.6467 4.50994 18.6875 4.35121 18.6875 4.18986V2.27319C18.6875 2.43455 18.6467 2.59328 18.569 2.73467C18.4912 2.87606 18.379 2.99554 18.2428 3.08203Z" fill="#C94551"/>
<path d="M10.0623 0.479248V8.36633L7.6665 6.84737V0.479248H10.0623Z" fill="white"/>
<path d="M15.3333 0.479248V6.84737L12.9375 8.36633V0.479248H15.3333Z" fill="white"/>
<path d="M12.9375 6.45153V8.36628L15.3333 6.84732V4.93018L12.9375 6.45153Z" fill="#DEE7F6"/>
<path d="M7.6665 4.93018V6.84732L10.0623 8.36628V6.45153L7.6665 4.93018Z" fill="#DEE7F6"/>
<path d="M11.5002 22.5208C14.9404 22.5208 17.7293 19.7319 17.7293 16.2917C17.7293 12.8514 14.9404 10.0625 11.5002 10.0625C8.05989 10.0625 5.271 12.8514 5.271 16.2917C5.271 19.7319 8.05989 22.5208 11.5002 22.5208Z" fill="#FFC75D"/>
<path d="M12.9374 21.0833C11.7921 21.0847 10.6687 20.7699 9.69088 20.1737C8.71306 19.5774 7.91877 18.7229 7.39551 17.7042C6.87224 16.6854 6.64031 15.542 6.72524 14.3999C6.81018 13.2578 7.20869 12.1613 7.87688 11.2312C7.1412 11.7567 6.5288 12.4361 6.08228 13.2222C5.63575 14.0083 5.36582 14.8822 5.29124 15.7832C5.21666 16.6841 5.33923 17.5906 5.65042 18.4394C5.96162 19.2882 6.45397 20.059 7.09324 20.6983C7.73251 21.3376 8.50335 21.8299 9.35217 22.1411C10.201 22.4523 11.1074 22.5749 12.0084 22.5003C12.9094 22.4257 13.7833 22.1558 14.5694 21.7093C15.3555 21.2627 16.0349 20.6503 16.5603 19.9147C15.5053 20.6749 14.2378 21.0838 12.9374 21.0833Z" fill="#EF9943"/>
<path d="M11.5002 18.447L9.4762 19.1667L9.53514 17.0195L8.2251 15.317L10.286 14.7095L11.5002 12.9375L12.7144 14.7095L14.7753 15.317L13.4653 17.0195L13.5242 19.1667L11.5002 18.447Z" fill="white"/>
<path d="M11.4998 22.9999C10.1731 22.9999 8.87607 22.6065 7.77289 21.8694C6.66971 21.1322 5.80989 20.0845 5.30215 18.8588C4.79441 17.633 4.66156 16.2841 4.92041 14.9829C5.17925 13.6816 5.81816 12.4863 6.75633 11.5481C7.69451 10.6099 8.88982 9.971 10.1911 9.71215C11.4924 9.45331 12.8412 9.58616 14.067 10.0939C15.2928 10.6016 16.3405 11.4615 17.0776 12.5646C17.8147 13.6678 18.2082 14.9648 18.2082 16.2916C18.2063 18.0702 17.4989 19.7754 16.2412 21.033C14.9836 22.2906 13.2784 22.998 11.4998 22.9999ZM11.4998 10.5416C10.3626 10.5416 9.25089 10.8788 8.30531 11.5106C7.35973 12.1425 6.62274 13.0405 6.18753 14.0912C5.75233 15.1418 5.63846 16.298 5.86032 17.4134C6.08219 18.5287 6.62982 19.5533 7.43398 20.3575C8.23813 21.1616 9.26268 21.7092 10.3781 21.9311C11.4935 22.153 12.6496 22.0391 13.7003 21.6039C14.7509 21.1687 15.649 20.4317 16.2808 19.4861C16.9126 18.5405 17.2498 17.4288 17.2498 16.2916C17.2482 14.7671 16.6419 13.3055 15.5639 12.2275C14.4859 11.1496 13.0243 10.5432 11.4998 10.5416Z" fill="#09105A"/>
<path d="M17.7293 0H5.271C4.88975 0 4.52412 0.15145 4.25454 0.421034C3.98495 0.690618 3.8335 1.05625 3.8335 1.4375V4.18983C3.8328 4.43201 3.89363 4.67039 4.0103 4.88261C4.12697 5.09482 4.29565 5.27392 4.5005 5.40308L10.7297 9.35956C10.9603 9.50511 11.2274 9.58236 11.5002 9.58236C11.7729 9.58236 12.04 9.50511 12.2707 9.35956L18.4998 5.40308C18.7046 5.27382 18.8732 5.0947 18.9899 4.88251C19.1065 4.67031 19.1674 4.43198 19.1668 4.18983V1.4375C19.1668 1.05625 19.0154 0.690618 18.7458 0.421034C18.4762 0.15145 18.1106 0 17.7293 0ZM14.8543 6.58327L13.4168 7.49369V1.02254C13.414 1.00087 13.4097 0.979413 13.4039 0.958333H14.8673C14.8615 0.979413 14.8572 1.00087 14.8543 1.02254V6.58327ZM9.5835 7.49369L8.146 6.58327V1.02254C8.14317 1.00087 8.13885 0.979413 8.13306 0.958333H9.59644C9.59066 0.979413 9.58633 1.00087 9.5835 1.02254V7.49369ZM4.79184 4.18744V1.4375C4.79184 1.31042 4.84232 1.18854 4.93218 1.09868C5.02204 1.00882 5.14392 0.958333 5.271 0.958333H7.20061C7.19482 0.979413 7.1905 1.00087 7.18767 1.02254V5.97473L5.01369 4.59425C4.94567 4.55095 4.88968 4.49119 4.8509 4.42049C4.81212 4.3498 4.7918 4.27046 4.79184 4.18983V4.18744ZM11.757 8.54785C11.6802 8.59661 11.5911 8.6225 11.5002 8.6225C11.4092 8.6225 11.3201 8.59661 11.2433 8.54785L10.5418 8.1051V1.02254C10.539 1.00087 10.5347 0.979413 10.5289 0.958333H12.4714C12.4657 0.979413 12.4613 1.00087 12.4585 1.02254V8.1051L11.757 8.54785ZM18.2085 4.18983C18.2085 4.27046 18.1882 4.3498 18.1494 4.42049C18.1107 4.49119 18.0547 4.55095 17.9866 4.59425L15.8127 5.97473V1.02254C15.8098 1.00087 15.8055 0.979413 15.7997 0.958333H17.7293C17.8564 0.958333 17.9783 1.00882 18.0682 1.09868C18.158 1.18854 18.2085 1.31042 18.2085 1.4375V4.18983ZM13.5242 19.6458C13.4695 19.6459 13.4152 19.6365 13.3636 19.618L11.5002 18.9558L9.63669 19.618C9.56336 19.6441 9.48478 19.652 9.40774 19.6409C9.3307 19.6298 9.25752 19.6001 9.19453 19.5544C9.13153 19.5087 9.08063 19.4483 9.04621 19.3785C9.0118 19.3087 8.99491 19.2315 8.997 19.1537L9.05163 17.1767L7.84509 15.6089C7.79762 15.5471 7.76592 15.4747 7.75272 15.398C7.73952 15.3213 7.74523 15.2424 7.76934 15.1684C7.79346 15.0944 7.83526 15.0273 7.89112 14.9731C7.94698 14.9188 8.01522 14.879 8.08994 14.857L9.98696 14.2979L11.1049 12.6687C11.1513 12.6079 11.2111 12.5586 11.2797 12.5247C11.3482 12.4908 11.4237 12.4732 11.5002 12.4732C11.5767 12.4732 11.6521 12.4908 11.7207 12.5247C11.7892 12.5586 11.8491 12.6079 11.8955 12.6687L13.0134 14.2979L14.9104 14.857C14.9851 14.879 15.0534 14.9188 15.1092 14.9731C15.1651 15.0273 15.2069 15.0944 15.231 15.1684C15.2551 15.2424 15.2608 15.3213 15.2476 15.398C15.2344 15.4747 15.2027 15.5471 15.1553 15.6089L13.9487 17.1767L14.0033 19.1537C14.0051 19.2177 13.9939 19.2814 13.9706 19.3411C13.9473 19.4007 13.9123 19.4551 13.8676 19.5009C13.823 19.5468 13.7696 19.5833 13.7106 19.6082C13.6516 19.633 13.5882 19.6459 13.5242 19.6458ZM11.5002 17.9687C11.5549 17.9687 11.6092 17.9781 11.6607 17.9965L13.0258 18.4819L12.9856 17.0325C12.9826 16.9223 13.0176 16.8145 13.0848 16.7272L13.9684 15.5772L12.5788 15.1675C12.4729 15.1364 12.381 15.0698 12.3186 14.9787L11.5002 13.7851L10.6813 14.9802C10.6189 15.0712 10.527 15.1379 10.4211 15.169L9.0315 15.5787L9.91508 16.7287C9.98225 16.816 10.0173 16.9238 10.0143 17.0339L9.9745 18.4824L11.3396 17.997C11.3911 17.9784 11.4454 17.9688 11.5002 17.9687Z" fill="#09105A"/>
</svg>
