<svg width="382" height="208" viewBox="0 0 382 208" fill="none" xmlns="http://www.w3.org/2000/svg">
<mask id="mask0_301_607" style="mask-type:luminance" maskUnits="userSpaceOnUse" x="0" y="-23" width="382" height="231">
<path d="M382 -22.5333H0V208H382V-22.5333Z" fill="white"/>
</mask>
<g mask="url(#mask0_301_607)">
<path d="M290.068 94.5422C298.177 94.5422 304.759 104.763 304.759 117.356C304.759 129.949 298.177 140.17 290.068 140.17C281.959 140.17 275.378 129.949 275.378 117.356C275.378 104.763 281.959 94.5422 290.068 94.5422Z" fill="#DCE1E3"/>
<path d="M291.077 103.029V109.569H289.06V103.029C284.751 103.744 281.313 109.067 280.853 115.774H285.074V118.892H280.853C281.313 125.599 284.751 130.938 289.06 131.651V125.097H291.077V131.651C295.386 130.938 298.823 125.599 299.284 118.892H295.063V115.774H299.284C298.823 109.067 295.386 103.744 291.077 103.029ZM290.068 100.246C296.14 100.246 301.086 107.896 301.086 117.356C301.086 126.786 296.16 134.466 290.068 134.466C283.977 134.466 279.051 126.816 279.051 117.356C279.051 107.926 283.977 100.246 290.068 100.246Z" fill="white"/>
<path d="M288.237 117.356C288.237 115.774 289.05 114.497 290.069 114.497C291.087 114.497 291.91 115.774 291.91 117.356C291.91 118.938 291.087 120.2 290.069 120.2C289.05 120.2 288.237 118.938 288.237 117.356Z" fill="white"/>
<path d="M334.602 24.7385C344.336 24.7385 352.23 36.9971 352.23 52.1149C352.23 67.2327 344.336 79.4913 334.602 79.4913C324.867 79.4913 316.974 67.2327 316.974 52.1149C316.974 36.9971 324.867 24.7385 334.602 24.7385Z" fill="#DCE1E3"/>
<path d="M339.91 47.6891H329.294V42.8982C329.294 39.0351 331.674 35.902 334.602 35.902C337.531 35.902 339.91 39.0351 339.91 42.8982V47.6891ZM341.732 71.2784C343.387 71.2784 344.739 69.2251 344.739 66.6852V52.2822C344.739 49.8031 343.446 47.7955 341.84 47.7043V42.8982C341.84 37.4229 338.578 32.9514 334.602 32.9514C330.616 32.9514 327.365 37.4229 327.365 42.8982V47.7043C325.749 47.7955 324.466 49.8031 324.466 52.2822V66.6852C324.466 69.2251 325.808 71.2784 327.473 71.2784H341.732ZM334.602 62.4267C333.808 62.4267 333.153 61.4381 333.153 60.2214V55.7955C333.153 54.5788 333.808 53.5902 334.602 53.5902C335.396 53.5902 336.051 54.5788 336.051 55.7955V60.2214C336.051 61.4381 335.396 62.4267 334.602 62.4267Z" fill="white"/>
<path d="M71.3589 117.627C80.5549 117.627 88.0078 129.2 88.0078 143.483C88.0078 157.764 80.5549 169.338 71.3589 169.338C62.1628 169.338 54.71 157.764 54.71 143.483C54.71 129.2 62.1628 117.627 71.3589 117.627Z" fill="#DCE1E3"/>
<path d="M76.5182 127.027C75.2744 125.065 73.5997 124.091 71.5137 124.091C69.2612 124.091 67.4886 125.247 66.1958 127.513C65.1293 129.408 64.5025 131.781 64.3165 134.663C64.2509 135.675 64.7621 136.564 65.4163 136.564H66.0578C66.6219 136.564 67.0919 135.889 67.1478 135.018C67.2447 133.509 67.4445 132.303 67.7334 131.392C68.4092 129.232 69.6236 128.152 71.406 128.152C72.8358 128.152 73.8543 128.791 74.4811 130.038C75.0883 131.285 75.4017 132.762 75.4017 134.464C75.4017 135.681 75.1863 136.852 74.7651 137.977C74.5301 138.616 74.2363 139.24 73.8543 139.833L72.5812 141.888C71.357 143.863 70.5735 145.597 70.2112 147.118C69.8488 148.639 69.6725 150.646 69.6725 153.126H72.493C72.493 150.935 72.6595 149.293 72.9533 148.152C73.2471 147.042 73.9131 145.673 74.9316 144.061C76.3321 141.84 77.2625 140.152 77.7228 138.996C78.1733 137.856 78.4083 136.365 78.4083 134.525C78.4083 131.483 77.7815 128.973 76.5182 127.027Z" fill="white"/>
<path d="M69.6038 162.875H72.7768V157.457H69.6038V162.875Z" fill="white"/>
<path d="M31.7734 49.9245C38.2665 49.9245 43.5256 58.0918 43.5256 68.1754C43.5256 78.259 38.2665 86.4263 31.7734 86.4263C25.2803 86.4263 20.0212 78.259 20.0212 68.1754C20.0212 58.0918 25.2803 49.9245 31.7734 49.9245Z" fill="#DCE1E3"/>
<path d="M38.3547 63.9929H38.0903C37.8063 58.5024 35.0543 54.183 31.7049 54.183C28.3556 54.183 25.6036 58.5024 25.3196 63.9929H25.1923C24.4969 63.9929 23.9387 64.8902 23.9387 65.9701V73.7115C23.9387 74.7914 24.4969 75.6735 25.1923 75.6735H26.5438C27.2391 75.6735 27.7974 74.7914 27.7974 73.7115V65.9701C27.7974 64.8902 27.2391 63.9929 26.5438 63.9929H26.0051C26.2794 59.1108 28.7375 55.2629 31.7049 55.2629C34.6724 55.2629 37.1207 59.1108 37.4048 63.9929H37.0032C36.3079 63.9929 35.7497 64.8902 35.7497 65.9701V73.7115C35.7497 74.6393 36.1708 75.4606 36.7486 75.6431L37.3558 75.6735C37.3754 76.3123 37.3362 77.5594 36.8073 78.5632C36.3666 79.3845 35.6811 79.8864 34.7507 80.0689C34.594 79.6887 34.3296 79.4453 34.026 79.4453H32.7137C32.2338 79.4453 31.8519 80.0537 31.8519 80.7989C31.8519 81.5594 32.2338 82.1678 32.7137 82.1678H34.026C34.4275 82.1678 34.7703 81.7267 34.8584 81.1335C35.9553 80.9206 36.7976 80.2818 37.346 79.2476C37.9924 78.0005 38.0707 76.51 38.0511 75.6735H38.3547C39.0501 75.6735 39.6083 74.7914 39.6083 73.7115V65.9701C39.6083 64.8902 39.0501 63.9929 38.3547 63.9929Z" fill="white"/>
<path d="M105.996 6.93954C114.105 6.93954 120.686 17.1601 120.686 29.7532C120.686 42.3463 114.105 52.5668 105.996 52.5668C97.8871 52.5668 91.3059 42.3463 91.3059 29.7532C91.3059 17.1601 97.8871 6.93954 105.996 6.93954Z" fill="#DCE1E3"/>
<path d="M105.996 37.3577C103.293 37.3577 101.099 33.9509 101.099 29.7532C101.099 25.5555 103.293 22.1486 105.996 22.1486C108.699 22.1486 110.893 25.5555 110.893 29.7532C110.893 33.9509 108.699 37.3577 105.996 37.3577ZM115.3 26.9243L113.557 26.6049C113.38 25.5707 113.116 24.5821 112.783 23.6695L113.87 21.5251C114.027 21.2057 114.007 20.6886 113.821 20.3996L112.019 17.6011C111.833 17.2969 111.5 17.2665 111.285 17.5251L109.904 19.2133C109.316 18.6962 108.689 18.2855 108.023 18.0118L107.818 15.3045C107.788 14.8787 107.534 14.5441 107.269 14.5441H104.723C104.449 14.5441 104.204 14.8787 104.175 15.3045L103.969 18.0118C103.303 18.2855 102.666 18.6962 102.089 19.2133L100.698 17.5251C100.492 17.2665 100.159 17.2969 99.9731 17.6011L98.1711 20.3996C97.9753 20.6886 97.9557 21.2057 98.1222 21.5403L99.2092 23.6847C98.8763 24.5821 98.6118 25.5707 98.4355 26.6049L96.6923 26.9243C96.4181 26.9699 96.2026 27.3653 96.2026 27.776V31.7304C96.2026 32.1562 96.4181 32.5364 96.6923 32.5821L98.4355 32.9167C98.6118 33.9357 98.8763 34.9243 99.2092 35.8216L98.1222 37.9813C97.9655 38.3007 97.985 38.8178 98.1711 39.1068L99.9731 41.9052C100.159 42.2094 100.492 42.2398 100.698 41.9813L102.089 40.2931C102.666 40.8102 103.303 41.2208 103.969 41.4946L104.175 44.2018C104.204 44.6277 104.459 44.9623 104.723 44.9623H107.269C107.534 44.9623 107.788 44.6277 107.818 44.2018L108.023 41.4946C108.689 41.2208 109.326 40.8102 109.904 40.2931L111.294 41.9813C111.5 42.2398 111.833 42.2094 112.019 41.9052L113.821 39.1068C114.017 38.8178 114.037 38.3007 113.87 37.9661L112.783 35.8216C113.116 34.9243 113.38 33.9357 113.557 32.9015L115.3 32.5821C115.574 32.5364 115.79 32.1562 115.79 31.7304V27.776C115.79 27.3501 115.574 26.9699 115.3 26.9243Z" fill="white"/>
<path d="M234.599 151.705L239.924 176.664C239.924 176.664 242.585 184.287 237.26 184.979H209.324L202.673 151.705H234.599Z" fill="#415868"/>
<path d="M231.937 149.63L237.261 174.59C237.261 174.59 239.924 182.214 234.599 182.904H206.662L200.011 149.63H231.937Z" fill="#90989D"/>
<path d="M209.908 182.428V186.516L219.497 176.311C219.497 176.311 218.122 186.516 223.605 186.516C229.087 186.516 229.542 166.782 222.239 168.135L209.908 182.428Z" fill="#5E6D74"/>
<path d="M221.783 168.073H170.698L159.436 184.979H208.789L221.783 168.073Z" fill="#C3CDD1"/>
<path d="M150.975 23.6056C147.996 23.6056 145.582 27.3556 145.582 31.9817V138.872H264.338V31.9817C264.338 27.3556 261.923 23.6056 258.945 23.6056H150.975Z" fill="#47535B"/>
<path d="M150.975 154.241C147.996 154.241 145.582 150.46 145.582 145.788V137.335H264.338V145.788C264.338 150.46 261.923 154.241 258.945 154.241H150.975Z" fill="#C1CACE"/>
<path d="M202.426 145.942C202.426 143.652 203.625 141.792 205.109 141.792C206.583 141.792 207.78 143.652 207.78 145.942C207.78 148.232 206.583 150.092 205.109 150.092C203.625 150.092 202.426 148.232 202.426 145.942Z" fill="#465962"/>
<path d="M151.52 34.3638H258.4V137.335H151.52V34.3638Z" fill="#C0FFEC"/>
<path d="M199.458 91.5177C198.102 93.5377 196.318 94.6194 194.436 94.5579C192.564 94.4968 190.82 93.2998 189.526 91.1932L189.497 91.1461C188.232 89.0405 187.56 86.2918 187.611 83.3972C187.662 80.4719 188.439 77.7397 189.795 75.7197C191.161 73.7 192.945 72.6183 194.817 72.6795C196.678 72.7403 198.414 73.9215 199.699 75.997L199.727 76.0442C201.021 78.1507 201.703 80.9305 201.652 83.8559C201.601 86.7658 200.823 89.498 199.458 91.5177ZM221.609 43.5451L221.58 43.4979C220.889 42.4278 219.765 42.4065 219.047 43.4614L217.154 46.2804L213.339 40.0398C212.649 38.9081 211.506 38.8708 210.777 39.9561C210.048 41.0261 210.017 42.8121 210.708 43.9439L214.523 50.1844L210.738 55.8069L208.945 52.883C208.265 51.7516 207.112 51.7139 206.383 52.7993C205.655 53.8693 205.623 55.6553 206.314 56.787L208.106 59.7109L201.001 70.2626C199.252 68.2489 197.152 67.102 194.916 67.0289C192.078 66.9362 189.377 68.5734 187.303 71.6483C185.238 74.7082 184.062 78.8446 183.985 83.2788C183.908 87.6822 184.93 91.8596 186.866 95.0501L186.894 95.0973C188.859 98.3041 191.5 100.116 194.338 100.208C197.184 100.301 199.885 98.6643 201.949 95.589C204.015 92.5292 205.201 88.3931 205.278 83.9743C205.339 80.4947 204.706 77.1619 203.494 74.3493L211.903 61.853L211.914 61.838L211.934 61.8233L218.311 52.3416L218.331 52.3115L218.351 52.2813L221.539 47.5482C222.268 46.4628 222.299 44.6768 221.609 43.5451Z" fill="#FFB655"/>
<path d="M187.606 83.4043C187.657 80.4785 188.434 77.7456 189.79 75.7249C191.157 73.7046 192.94 72.6222 194.813 72.6829C196.675 72.7433 198.411 73.9243 199.695 75.9998L221.578 43.4898C220.887 42.4196 219.763 42.3986 219.045 43.4539L217.152 46.2738L213.335 40.0331C212.644 38.9014 211.501 38.8643 210.772 39.95C210.043 41.0204 210.012 42.8067 210.703 43.9385L214.519 50.1791L210.735 55.8036L208.941 52.8796C208.261 51.7481 207.108 51.7107 206.379 52.7965C205.65 53.8668 205.62 55.6531 206.31 56.7849L208.103 59.7089L200.998 70.2641C199.248 68.2506 197.148 67.1039 194.911 67.0314C192.072 66.9394 189.372 68.5775 187.297 71.6535C185.232 74.7143 184.056 78.8518 183.979 83.2867C183.903 87.6909 184.926 91.8688 186.862 95.0594L189.494 91.1541C188.229 89.0484 187.556 86.2994 187.606 83.4043Z" fill="#FFEB49"/>
<path d="M173.291 109.671H236.628C238.271 109.671 239.597 111.731 239.597 114.282V123.503C239.597 126.055 238.271 128.114 236.628 128.114H173.291C171.648 128.114 170.322 126.055 170.322 123.503V114.282C170.322 111.731 171.648 109.671 173.291 109.671Z" fill="white"/>
<path d="M180.951 117.433L179.318 117.171C179.209 117.156 179.12 117.048 179.081 116.895L178.497 114.574C178.398 114.19 178.071 114.19 177.972 114.574L177.398 116.895C177.359 117.048 177.26 117.156 177.161 117.171L175.528 117.433C175.281 117.463 175.182 117.955 175.37 118.232L176.597 119.999C176.676 120.107 176.706 120.276 176.686 120.445L176.32 122.935C176.26 123.319 176.518 123.642 176.735 123.442L178.101 122.136C178.19 122.043 178.289 122.043 178.378 122.136L179.744 123.442C179.962 123.642 180.219 123.334 180.16 122.935L179.793 120.445C179.774 120.276 179.803 120.107 179.882 119.999L181.119 118.232C181.298 117.955 181.199 117.463 180.951 117.433Z" fill="#EC4C4B"/>
<path d="M190.847 117.433L189.215 117.171C189.106 117.156 189.017 117.048 188.977 116.895L188.393 114.574C188.294 114.19 187.968 114.19 187.869 114.574L187.295 116.895C187.255 117.048 187.156 117.156 187.057 117.171L185.424 117.433C185.177 117.463 185.078 117.955 185.266 118.232L186.493 119.999C186.572 120.107 186.602 120.276 186.582 120.445L186.216 122.935C186.157 123.319 186.414 123.642 186.632 123.442L187.997 122.136C188.086 122.043 188.185 122.043 188.274 122.136L189.64 123.442C189.858 123.642 190.115 123.334 190.056 122.935L189.69 120.445C189.67 120.276 189.699 120.107 189.779 119.999L191.016 118.232C191.194 117.955 191.095 117.463 190.847 117.433Z" fill="#EC4C4B"/>
<path d="M199.754 117.433L198.122 117.171C198.012 117.156 197.923 117.048 197.883 116.895L197.3 114.574C197.201 114.19 196.875 114.19 196.775 114.574L196.202 116.895C196.162 117.048 196.063 117.156 195.964 117.171L194.331 117.433C194.084 117.463 193.985 117.955 194.172 118.232L195.4 119.999C195.479 120.107 195.509 120.276 195.488 120.445L195.122 122.935C195.064 123.319 195.321 123.642 195.538 123.442L196.904 122.136C196.993 122.043 197.092 122.043 197.18 122.136L198.546 123.442C198.765 123.642 199.022 123.334 198.962 122.935L198.597 120.445C198.577 120.276 198.606 120.107 198.686 119.999L199.923 118.232C200.101 117.955 200.002 117.463 199.754 117.433Z" fill="#EC4C4B"/>
<path d="M209.65 117.433L208.018 117.171C207.908 117.156 207.819 117.048 207.779 116.895L207.196 114.574C207.097 114.19 206.771 114.19 206.671 114.574L206.098 116.895C206.058 117.048 205.959 117.156 205.86 117.171L204.227 117.433C203.98 117.463 203.881 117.955 204.068 118.232L205.296 119.999C205.375 120.107 205.405 120.276 205.384 120.445L205.018 122.935C204.96 123.319 205.217 123.642 205.434 123.442L206.8 122.136C206.889 122.043 206.988 122.043 207.076 122.136L208.442 123.442C208.661 123.642 208.918 123.334 208.858 122.935L208.493 120.445C208.473 120.276 208.502 120.107 208.582 119.999L209.819 118.232C209.997 117.955 209.898 117.463 209.65 117.433Z" fill="#EC4C4B"/>
<g opacity="0.6258">
<path d="M218.557 117.433L216.925 117.171C216.815 117.156 216.726 117.048 216.686 116.895L216.103 114.574C216.004 114.19 215.678 114.19 215.578 114.574L215.005 116.895C214.965 117.048 214.866 117.156 214.767 117.171L213.134 117.433C212.887 117.463 212.788 117.955 212.975 118.232L214.203 119.999C214.282 120.107 214.312 120.276 214.291 120.445L213.925 122.935C213.867 123.319 214.124 123.642 214.341 123.442L215.707 122.136C215.796 122.043 215.895 122.043 215.983 122.136L217.349 123.442C217.568 123.642 217.825 123.334 217.765 122.935L217.4 120.445C217.38 120.276 217.409 120.107 217.489 119.999L218.726 118.232C218.904 117.955 218.805 117.463 218.557 117.433Z" fill="#EC4C4B"/>
</g>
<path d="M269.415 165.156C269.415 165.156 263.348 163.711 261.329 169.504C259.311 175.283 260.656 180.708 264.021 180.356H288.277C288.277 180.356 291.642 181.077 290.969 173.838C290.296 166.615 286.931 165.156 281.538 165.156H269.415Z" fill="#AEB3B7"/>
<path d="M274.234 180.356H288.248C288.248 180.356 291.652 181.031 290.969 174.285C290.682 171.457 289.93 169.598 288.752 168.367C286.813 168.076 284.784 167.967 282.815 168.215C277.777 168.812 275.363 175.3 274.234 180.356Z" fill="#7B8F98"/>
<path d="M109.799 41.1446C98.8121 50.9592 88.9088 62.3952 80.4543 74.5627C68.5282 91.7267 55.5461 100.157 42.7244 103.844" stroke="#7AC5E3" stroke-width="2" stroke-linecap="round" stroke-linejoin="round"/>
<path d="M88.6835 77.3676C85.8096 80.9562 83.0634 84.6401 80.4547 88.3947C59.9653 117.883 36.3594 121.592 15.8057 119.76" stroke="#7AC5E3" stroke-width="2" stroke-linecap="round" stroke-linejoin="round"/>
<path d="M130.089 32.3943L129.327 24.6168L137.531 20.084L127.823 20.1613L125.923 16.3091L139.768 19.0807L130.089 32.3943ZM141.678 18.1386C141.621 17.7951 141.439 17.5322 141.218 17.4848L124.538 14.013C124.284 13.9555 124.023 14.1522 123.888 14.4989C123.753 14.8455 123.769 15.289 123.926 15.605L126.573 20.9414L124.229 27.4888C123.901 28.3983 124.209 28.9265 124.93 28.5355C125.404 28.2655 128.159 26.6786 128.24 26.6518L129.017 34.4979C129.037 34.7566 129.134 34.9714 129.263 35.1097C129.311 35.1594 129.356 35.192 129.419 35.2237C129.626 35.318 129.865 35.2493 130.041 35.0046L141.494 19.1107C141.666 18.8777 141.742 18.4877 141.678 18.1386Z" fill="#7AC5E3"/>
<path d="M166.325 161.676H182.951V192.928H166.325V161.676Z" fill="#CFA97E"/>
<path d="M180.575 192.928H182.95V161.676H180.575V192.928Z" fill="#FFD99B"/>
<path d="M105.796 95.4281C105.796 95.4281 95.428 82.7133 95.9691 53.2676C96.5103 23.8251 109.864 16.2563 109.864 16.2563C109.864 16.2563 117.72 11.8425 120.378 -0.46383C120.378 -0.46383 126.121 1.89954 127.558 8.62278C128.996 15.3445 129.386 14.7267 131.156 14.0858C132.927 13.4434 131.273 4.57719 129.864 1.22636C128.455 -2.12295 122.274 -9.69205 113.214 -7.71248C104.154 -5.73139 92.4456 9.78238 89.7404 16.5703C87.0351 23.3581 79.5035 42.7928 83.1493 77.3841C86.7952 111.977 103.63 119.38 103.63 119.38L105.796 95.4281Z" fill="#CEA881"/>
<path d="M105.803 95.4204C105.803 95.4204 95.4469 82.7094 95.9876 53.2689C96.5284 23.8314 109.868 16.2639 109.868 16.2639C109.868 16.2639 117.715 11.8509 120.371 -0.45332C120.371 -0.45332 121.538 0.0174294 122.956 1.16175C122.606 0.460596 122.157 -0.114882 121.553 -0.471791C116.501 -3.61337 110.611 -0.76226 109.775 5.23042C108.938 11.2216 103.94 14.5171 103.94 14.5171C103.94 14.5171 90.8799 33.0232 92.2065 60.6856C93.6404 90.5536 104.683 102.799 104.683 102.799L104.803 106.566L105.803 95.4204Z" fill="#FFD99B"/>
<path d="M93.3178 18.3902L101.709 29.3036L105.218 23.7267L95.642 12.8318L93.3178 18.3902Z" fill="#536368"/>
<path d="M90.0106 10.4999C91.5608 6.94834 94.2749 5.55643 96.0778 7.36867C97.8907 9.19608 98.0954 13.5484 96.5551 17.0998C95.005 20.6513 92.2908 22.0432 90.478 20.2311C88.675 18.4035 88.4604 14.0514 90.0106 10.4999Z" fill="#5B6B71"/>
<path d="M90.0106 10.4999C91.5608 6.94834 94.2749 5.55643 96.0778 7.36867C97.8907 9.19608 98.0954 13.5484 96.5551 17.0998C95.005 20.6513 92.2908 22.0432 90.478 20.2311C88.675 18.4035 88.4604 14.0514 90.0106 10.4999Z" stroke="#243949" stroke-width="0.998405" stroke-linecap="round" stroke-linejoin="round"/>
<path d="M149.659 106.524H163.9C163.9 106.524 173.598 105.298 179.328 113.878C185.068 122.457 184.079 135.938 184.079 135.938V163.514H168.65V192.928H117.625V156.161C117.625 156.161 119.198 142.681 112.874 139.617C106.541 136.553 99.4251 131.649 92.6956 119.393L105.749 86.3017C105.749 86.3017 112.676 108.056 134.231 108.362L149.659 106.524Z" fill="#1CAE81"/>
<path d="M153.261 23.7965C153.261 23.7965 163.751 24.4108 163.949 44.0203C164.147 63.6298 163.949 80.7881 163.949 80.7881C163.949 80.7881 164.147 87.2209 159.199 88.1401C154.251 89.0593 151.084 89.3657 150.886 97.3321C150.688 105.298 152.272 117.249 146.136 117.556H136.635C136.635 117.556 131.885 118.474 131.885 110.202V27.4748L153.261 23.7965Z" fill="#CDA883"/>
<path d="M153.262 23.7965L151.213 24.1335C154.123 25.16 160.238 29.0819 160.387 44.0188C160.585 63.6283 160.387 80.7866 160.387 80.7866C160.387 80.7866 160.585 87.2209 155.637 88.1401C150.688 89.0593 147.522 89.3657 147.324 97.3321C147.126 105.298 148.709 117.248 142.573 117.554H146.136C152.272 117.248 150.688 105.298 150.886 97.3321C151.084 89.3657 154.251 89.0593 159.199 88.1401C164.148 87.2209 163.95 80.7866 163.95 80.7866C163.95 80.7866 164.148 63.6283 163.95 44.0188C163.752 24.4093 153.262 23.7965 153.262 23.7965ZM135.775 117.554C136.289 117.616 136.636 117.554 136.636 117.554H135.775Z" fill="#FFD89F"/>
<path d="M162.762 -0.101028C162.762 -0.101028 167.908 16.4445 162.762 21.9596C157.615 27.4748 155.636 27.4748 155.636 27.4748V44.0203C155.636 44.0203 149.896 42.7947 149.698 53.2123V69.7578C149.698 69.7578 150.886 84.1585 142.573 84.4649H125.947V31.1516C125.947 31.1516 124.759 11.2357 137.823 9.09092C150.886 6.94613 159.397 10.6229 162.762 -0.101028Z" fill="#595A56"/>
</g>
</svg>
