<svg width="212" height="249" viewBox="0 0 212 249" fill="none" xmlns="http://www.w3.org/2000/svg">
<g filter="url(#filter0_d_1219_476)">
<path d="M40.1261 113.627C29.1768 105.627 28.5667 89.5026 38.8801 80.6985L63.4239 59.7465C65.0268 58.3782 66.4948 56.8596 67.8081 55.2113L88.1222 29.7146C96.4239 19.2949 112.205 19.1395 120.71 29.3938L141.968 55.0232L146.586 51.1927L141.968 55.0232C143.523 56.8974 145.28 58.5938 147.208 60.0815L170.896 78.3609C181.833 86.8008 181.782 103.321 170.792 111.692L145.248 131.15C142.508 133.237 140.111 135.74 138.146 138.568L123.194 160.083C115.144 171.665 98.1915 172.177 89.4585 161.1L71.0009 137.689C69.1443 135.334 66.9754 133.243 64.554 131.474L40.1261 113.627Z" stroke="#1CAE81" stroke-width="12" shape-rendering="crispEdges"/>
</g>
<mask id="path-2-inside-1_1219_476" fill="white">
<path d="M10.272 208.272L10.128 216.624L14.448 216.672L19.68 216.528L20.112 217.008L19.632 221.856L13.92 221.712L10.032 221.76L9.984 224.208L10.272 234H3.744L4.08 224.784L3.744 203.088H22.128L22.512 203.616L22.032 208.512L14.688 208.224L10.272 208.272ZM41.8586 221.712C44.3546 225.68 46.8346 229.264 49.2986 232.464L49.2026 233.184C47.1226 233.92 44.9946 234.352 42.8186 234.48L42.1466 233.952C39.8426 229.984 37.9706 226.528 36.5306 223.584H31.8746V224.208L32.1626 234H25.6346L25.9706 224.784L25.6346 203.088L37.4906 203.04C40.7226 203.04 43.2186 203.84 44.9786 205.44C46.7386 207.008 47.6186 209.264 47.6186 212.208C47.6186 214.192 47.1066 216.016 46.0826 217.68C45.0906 219.312 43.6826 220.656 41.8586 221.712ZM31.9706 218.544L36.7226 218.736C39.4426 217.808 40.8026 215.84 40.8026 212.832C40.8026 211.2 40.3546 209.984 39.4586 209.184C38.5946 208.352 37.2506 207.904 35.4266 207.84L32.1626 208.032L31.9706 218.544ZM60.1871 224.208L60.4751 234H53.9471L54.2831 224.784L53.9471 203.088H60.5711L60.1871 224.208ZM87.5434 228.624L87.9274 229.152L87.4954 234H68.1034L68.4394 224.784L68.1034 203.088H87.6874L88.0714 203.616L87.5914 208.464L80.1994 208.224L74.6314 208.272L74.4874 215.712L79.8154 215.808L84.8554 215.664L85.2394 216.144L84.8074 220.992L79.3354 220.848L74.3914 220.896L74.3434 224.208L74.4874 228.864L79.9114 228.912L87.5434 228.624ZM118.061 224.448L118.301 234H111.293L98.6693 213.072H98.2853L98.2373 223.344L98.4293 234H92.5253L92.8613 224.88L92.5733 203.088H99.5333L112.157 224.016H112.589L112.445 203.376L118.445 202.992L118.061 224.448ZM139.446 234H131.67L122.214 203.088H128.838L129.606 207.168L135.462 227.952H135.894L142.614 207.504L143.43 203.088H149.862L139.446 234ZM159.703 224.208L159.991 234H153.463L153.799 224.784L153.463 203.088H160.087L159.703 224.208ZM187.019 203.616L186.635 208.464L180.827 208.176H178.907L178.667 224.208L178.955 234H172.427L172.763 224.784L172.523 208.176H170.603L164.699 208.464L164.267 207.936L164.699 203.088H186.635L187.019 203.616ZM210.684 228.624L211.068 229.152L210.636 234H191.244L191.58 224.784L191.244 203.088H210.828L211.212 203.616L210.732 208.464L203.34 208.224L197.772 208.272L197.628 215.712L202.956 215.808L207.996 215.664L208.38 216.144L207.948 220.992L202.476 220.848L197.532 220.896L197.484 224.208L197.628 228.864L203.052 228.912L210.684 228.624Z"/>
</mask>
<path d="M10.272 208.272L10.1416 196.273L-1.52508 196.4L-1.72622 208.065L10.272 208.272ZM10.128 216.624L-1.87022 216.417L-2.07835 228.489L9.99468 228.623L10.128 216.624ZM14.448 216.672L14.3147 228.671L14.5465 228.674L14.7782 228.667L14.448 216.672ZM19.68 216.528L28.5995 208.5L24.8912 204.38L19.3499 204.533L19.68 216.528ZM20.112 217.008L32.0536 218.19L32.5756 212.918L29.0315 208.98L20.112 217.008ZM19.632 221.856L19.3296 233.852L30.4751 234.133L31.5736 223.038L19.632 221.856ZM13.92 221.712L14.2224 209.716L13.9972 209.71L13.7719 209.713L13.92 221.712ZM10.032 221.76L9.88387 209.761L-1.73784 209.904L-1.96569 221.525L10.032 221.76ZM9.984 224.208L-2.01369 223.973L-2.01946 224.267L-2.01081 224.561L9.984 224.208ZM10.272 234V246H22.6301L22.2668 233.647L10.272 234ZM3.744 234L-8.24803 233.563L-8.70147 246H3.744V234ZM4.08 224.784L16.072 225.221L16.0834 224.91L16.0786 224.598L4.08 224.784ZM3.744 203.088V191.088H-8.44328L-8.25456 203.274L3.744 203.088ZM22.128 203.088L31.8329 196.03L28.2387 191.088H22.128V203.088ZM22.512 203.616L34.4547 204.787L34.8998 200.247L32.2169 196.558L22.512 203.616ZM22.032 208.512L21.5618 220.503L32.8705 220.946L33.9747 209.683L22.032 208.512ZM14.688 208.224L15.1582 196.233L14.858 196.221L14.5576 196.225L14.688 208.224ZM-1.72622 208.065L-1.87022 216.417L22.1262 216.831L22.2702 208.479L-1.72622 208.065ZM9.99468 228.623L14.3147 228.671L14.5813 204.673L10.2613 204.625L9.99468 228.623ZM14.7782 228.667L20.0102 228.523L19.3499 204.533L14.1179 204.677L14.7782 228.667ZM10.7605 224.556L11.1925 225.036L29.0315 208.98L28.5995 208.5L10.7605 224.556ZM8.17039 215.826L7.69039 220.674L31.5736 223.038L32.0536 218.19L8.17039 215.826ZM19.9344 209.86L14.2224 209.716L13.6176 233.708L19.3296 233.852L19.9344 209.86ZM13.7719 209.713L9.88387 209.761L10.1801 233.759L14.0681 233.711L13.7719 209.713ZM-1.96569 221.525L-2.01369 223.973L21.9817 224.443L22.0297 221.995L-1.96569 221.525ZM-2.01081 224.561L-1.72281 234.353L22.2668 233.647L21.9788 223.855L-2.01081 224.561ZM10.272 222H3.744V246H10.272V222ZM15.736 234.437L16.072 225.221L-7.91203 224.347L-8.24803 233.563L15.736 234.437ZM16.0786 224.598L15.7426 202.902L-8.25456 203.274L-7.91856 224.97L16.0786 224.598ZM3.744 215.088H22.128V191.088H3.744V215.088ZM12.4232 210.146L12.8072 210.674L32.2169 196.558L31.8329 196.03L12.4232 210.146ZM10.5693 202.445L10.0893 207.341L33.9747 209.683L34.4547 204.787L10.5693 202.445ZM22.5022 196.521L15.1582 196.233L14.2178 220.215L21.5618 220.503L22.5022 196.521ZM14.5576 196.225L10.1416 196.273L10.4024 220.271L14.8184 220.223L14.5576 196.225ZM41.8586 221.712L35.8462 211.327L25.0728 217.564L31.7011 228.101L41.8586 221.712ZM49.2986 232.464L61.1934 234.05L61.8534 229.1L58.8066 225.143L49.2986 232.464ZM49.2026 233.184L53.2056 244.497L60.127 242.048L61.0974 234.77L49.2026 233.184ZM42.8186 234.48L35.4048 243.916L38.9819 246.726L43.5233 246.459L42.8186 234.48ZM42.1466 233.952L31.7692 239.978L32.9241 241.967L34.7328 243.388L42.1466 233.952ZM36.5306 223.584L47.3102 218.311L44.0196 211.584H36.5306V223.584ZM31.8746 223.584V211.584H19.8746V223.584H31.8746ZM31.8746 224.208H19.8746V224.384L19.8798 224.561L31.8746 224.208ZM32.1626 234V246H44.5208L44.1574 233.647L32.1626 234ZM25.6346 234L13.6426 233.563L13.1892 246H25.6346V234ZM25.9706 224.784L37.9627 225.221L37.974 224.91L37.9692 224.598L25.9706 224.784ZM25.6346 203.088L25.586 191.088L13.4481 191.137L13.6361 203.274L25.6346 203.088ZM37.4906 203.04V191.04H37.4663L37.442 191.04L37.4906 203.04ZM44.9786 205.44L36.9066 214.319L36.9511 214.36L36.9962 214.4L44.9786 205.44ZM46.0826 217.68L35.8627 211.391L35.8455 211.419L35.8284 211.447L46.0826 217.68ZM31.9706 218.544L19.9726 218.325L19.7583 230.06L31.4862 230.534L31.9706 218.544ZM36.7226 218.736L36.2382 230.726L38.4769 230.817L40.5974 230.093L36.7226 218.736ZM39.4586 209.184L31.1349 217.828L31.2978 217.985L31.4664 218.135L39.4586 209.184ZM35.4266 207.84L35.8474 195.847L35.2844 195.828L34.722 195.861L35.4266 207.84ZM32.1626 208.032L31.458 196.053L20.3675 196.705L20.1646 207.813L32.1626 208.032ZM31.7011 228.101C34.3676 232.341 37.0624 236.242 39.7907 239.785L58.8066 225.143C56.6068 222.286 54.3416 219.019 52.0162 215.323L31.7011 228.101ZM37.4039 230.878L37.3079 231.598L61.0974 234.77L61.1934 234.05L37.4039 230.878ZM45.1997 221.871C44.1692 222.236 43.1509 222.44 42.114 222.501L43.5233 246.459C46.8384 246.264 50.076 245.604 53.2056 244.497L45.1997 221.871ZM50.2325 225.044L49.5605 224.516L34.7328 243.388L35.4048 243.916L50.2325 225.044ZM52.5241 227.926C50.3114 224.116 48.5869 220.921 47.3102 218.311L25.751 228.857C27.3544 232.135 29.3739 235.852 31.7692 239.978L52.5241 227.926ZM36.5306 211.584H31.8746V235.584H36.5306V211.584ZM19.8746 223.584V224.208H43.8746V223.584H19.8746ZM19.8798 224.561L20.1678 234.353L44.1574 233.647L43.8694 223.855L19.8798 224.561ZM32.1626 222H25.6346V246H32.1626V222ZM37.6267 234.437L37.9627 225.221L13.9786 224.347L13.6426 233.563L37.6267 234.437ZM37.9692 224.598L37.6332 202.902L13.6361 203.274L13.9721 224.97L37.9692 224.598ZM25.6832 215.088L37.5392 215.04L37.442 191.04L25.586 191.088L25.6832 215.088ZM37.4906 215.04C38.1415 215.04 38.2983 215.123 38.124 215.067C38.0289 215.037 37.8526 214.97 37.6263 214.843C37.397 214.713 37.1491 214.54 36.9066 214.319L53.0507 196.561C48.3933 192.327 42.6243 191.04 37.4906 191.04V215.04ZM36.9962 214.4C36.4231 213.889 36.0076 213.255 35.779 212.669C35.5738 212.143 35.6186 211.915 35.6186 212.208H59.6186C59.6186 206.758 57.89 200.871 52.9611 196.48L36.9962 214.4ZM35.6186 212.208C35.6186 212.156 35.6272 212.013 35.6812 211.821C35.7355 211.627 35.8094 211.477 35.8627 211.391L56.3025 223.969C58.5092 220.383 59.6186 216.377 59.6186 212.208H35.6186ZM35.8284 211.447C35.856 211.402 35.8872 211.357 35.9197 211.317C35.9521 211.277 35.9795 211.248 35.9969 211.232C36.014 211.215 36.0155 211.216 35.9945 211.232C35.9732 211.248 35.9261 211.281 35.8462 211.327L47.8711 232.097C51.2504 230.141 54.1958 227.435 56.3369 223.913L35.8284 211.447ZM31.4862 230.534L36.2382 230.726L37.2071 206.746L32.4551 206.554L31.4862 230.534ZM40.5974 230.093C43.8877 228.971 47.2373 226.884 49.6547 223.386C52.0398 219.935 52.8026 216.144 52.8026 212.832H28.8026C28.8026 212.528 28.8855 211.225 29.9105 209.742C30.9679 208.212 32.2775 207.573 32.8478 207.379L40.5974 230.093ZM52.8026 212.832C52.8026 209.063 51.7175 204.042 47.4508 200.233L31.4664 218.135C30.334 217.124 29.6071 215.932 29.2065 214.844C28.8327 213.83 28.8026 213.08 28.8026 212.832H52.8026ZM47.7823 200.54C43.913 196.814 39.1367 195.963 35.8474 195.847L35.0058 219.833C35.3646 219.845 33.2762 219.89 31.1349 217.828L47.7823 200.54ZM34.722 195.861L31.458 196.053L32.8673 220.011L36.1313 219.819L34.722 195.861ZM20.1646 207.813L19.9726 218.325L43.9686 218.763L44.1606 208.251L20.1646 207.813ZM60.1871 224.208L48.1891 223.99L48.1839 224.275L48.1923 224.561L60.1871 224.208ZM60.4751 234V246H72.8333L72.4699 233.647L60.4751 234ZM53.9471 234L41.9551 233.563L41.5017 246H53.9471V234ZM54.2831 224.784L66.2752 225.221L66.2865 224.91L66.2817 224.598L54.2831 224.784ZM53.9471 203.088V191.088H41.7598L41.9486 203.274L53.9471 203.088ZM60.5711 203.088L72.5691 203.306L72.7913 191.088H60.5711V203.088ZM48.1923 224.561L48.4803 234.353L72.4699 233.647L72.1819 223.855L48.1923 224.561ZM60.4751 222H53.9471V246H60.4751V222ZM65.9392 234.437L66.2752 225.221L42.2911 224.347L41.9551 233.563L65.9392 234.437ZM66.2817 224.598L65.9457 202.902L41.9486 203.274L42.2846 224.97L66.2817 224.598ZM53.9471 215.088H60.5711V191.088H53.9471V215.088ZM48.5731 202.87L48.1891 223.99L72.1851 224.426L72.5691 203.306L48.5731 202.87ZM87.5434 228.624L97.2482 221.566L93.4848 216.391L87.0909 216.633L87.5434 228.624ZM87.9274 229.152L99.88 230.217L100.28 225.734L97.6322 222.094L87.9274 229.152ZM87.4954 234V246H98.4736L99.448 235.065L87.4954 234ZM68.1034 234L56.1113 233.563L55.6579 246H68.1034V234ZM68.4394 224.784L80.4314 225.221L80.4428 224.91L80.4379 224.598L68.4394 224.784ZM68.1034 203.088V191.088H55.9161L56.1048 203.274L68.1034 203.088ZM87.6874 203.088L97.3922 196.03L93.7981 191.088H87.6874V203.088ZM88.0714 203.616L100.013 204.798L100.463 200.252L97.7762 196.558L88.0714 203.616ZM87.5914 208.464L87.202 220.458L98.4265 220.822L99.533 209.646L87.5914 208.464ZM80.1994 208.224L80.5888 196.23L80.3424 196.222L80.0959 196.224L80.1994 208.224ZM74.6314 208.272L74.5279 196.272L62.8594 196.373L62.6336 208.04L74.6314 208.272ZM74.4874 215.712L62.4896 215.48L62.2571 227.494L74.2712 227.71L74.4874 215.712ZM79.8154 215.808L79.5992 227.806L79.8787 227.811L80.1581 227.803L79.8154 215.808ZM84.8554 215.664L94.2258 208.168L90.4902 203.498L84.5127 203.669L84.8554 215.664ZM85.2394 216.144L97.192 217.209L97.6197 212.41L94.6098 208.648L85.2394 216.144ZM84.8074 220.992L84.4917 232.988L95.7596 233.284L96.76 222.057L84.8074 220.992ZM79.3354 220.848L79.6511 208.852L79.435 208.846L79.2189 208.849L79.3354 220.848ZM74.3914 220.896L74.2749 208.897L62.5624 209.01L62.3926 220.722L74.3914 220.896ZM74.3434 224.208L62.3446 224.034L62.3407 224.307L62.3491 224.579L74.3434 224.208ZM74.4874 228.864L62.4931 229.235L62.8496 240.761L74.3812 240.864L74.4874 228.864ZM79.9114 228.912L79.8052 240.912L80.0846 240.914L80.3639 240.903L79.9114 228.912ZM77.8385 235.682L78.2225 236.21L97.6322 222.094L97.2482 221.566L77.8385 235.682ZM75.9747 228.087L75.5427 232.935L99.448 235.065L99.88 230.217L75.9747 228.087ZM87.4954 222H68.1034V246H87.4954V222ZM80.0954 234.437L80.4314 225.221L56.4473 224.347L56.1113 233.563L80.0954 234.437ZM80.4379 224.598L80.1019 202.902L56.1048 203.274L56.4408 224.97L80.4379 224.598ZM68.1034 215.088H87.6874V191.088H68.1034V215.088ZM77.9825 210.146L78.3665 210.674L97.7762 196.558L97.3922 196.03L77.9825 210.146ZM76.1298 202.434L75.6498 207.282L99.533 209.646L100.013 204.798L76.1298 202.434ZM87.9808 196.47L80.5888 196.23L79.81 220.218L87.202 220.458L87.9808 196.47ZM80.0959 196.224L74.5279 196.272L74.7348 220.272L80.3028 220.224L80.0959 196.224ZM62.6336 208.04L62.4896 215.48L86.4851 215.944L86.6291 208.504L62.6336 208.04ZM74.2712 227.71L79.5992 227.806L80.0316 203.81L74.7036 203.714L74.2712 227.71ZM80.1581 227.803L85.1981 227.659L84.5127 203.669L79.4727 203.813L80.1581 227.803ZM75.4849 223.16L75.8689 223.64L94.6098 208.648L94.2258 208.168L75.4849 223.16ZM73.2867 215.079L72.8547 219.927L96.76 222.057L97.192 217.209L73.2867 215.079ZM85.1231 208.996L79.6511 208.852L79.0197 232.844L84.4917 232.988L85.1231 208.996ZM79.2189 208.849L74.2749 208.897L74.5079 232.895L79.4519 232.847L79.2189 208.849ZM62.3926 220.722L62.3446 224.034L86.3421 224.382L86.3901 221.07L62.3926 220.722ZM62.3491 224.579L62.4931 229.235L86.4816 228.493L86.3376 223.837L62.3491 224.579ZM74.3812 240.864L79.8052 240.912L80.0176 216.912L74.5936 216.864L74.3812 240.864ZM80.3639 240.903L87.9959 240.615L87.0909 216.633L79.4589 216.921L80.3639 240.903ZM118.061 224.448L106.063 224.233L106.059 224.491L106.065 224.749L118.061 224.448ZM118.301 234V246H130.607L130.297 233.699L118.301 234ZM111.293 234L101.018 240.198L104.518 246H111.293V234ZM98.6693 213.072L108.945 206.874L105.445 201.072H98.6693V213.072ZM98.2852 213.072V201.072H86.3412L86.2854 213.016L98.2852 213.072ZM98.2373 223.344L86.2374 223.288L86.2367 223.424L86.2392 223.56L98.2373 223.344ZM98.4293 234V246H110.647L110.427 233.784L98.4293 234ZM92.5253 234L80.5334 233.558L80.075 246H92.5253V234ZM92.8613 224.88L104.853 225.322L104.864 225.022L104.86 224.721L92.8613 224.88ZM92.5732 203.088V191.088H80.4136L80.5743 203.247L92.5732 203.088ZM99.5332 203.088L109.809 196.89L106.309 191.088H99.5332V203.088ZM112.157 224.016L101.882 230.214L105.382 236.016H112.157V224.016ZM112.589 224.016V236.016H124.673L124.589 223.932L112.589 224.016ZM112.445 203.376L111.679 191.401L100.366 192.124L100.446 203.46L112.445 203.376ZM118.445 202.992L130.443 203.207L130.676 190.185L117.679 191.016L118.445 202.992ZM106.065 224.749L106.305 234.301L130.297 233.699L130.057 224.147L106.065 224.749ZM118.301 222H111.293V246H118.301V222ZM121.569 227.802L108.945 206.874L88.3939 219.27L101.018 240.198L121.569 227.802ZM98.6693 201.072H98.2852V225.072H98.6693V201.072ZM86.2854 213.016L86.2374 223.288L110.237 223.4L110.285 213.128L86.2854 213.016ZM86.2392 223.56L86.4312 234.216L110.427 233.784L110.235 223.128L86.2392 223.56ZM98.4293 222H92.5253V246H98.4293V222ZM104.517 234.442L104.853 225.322L80.8694 224.438L80.5334 233.558L104.517 234.442ZM104.86 224.721L104.572 202.929L80.5743 203.247L80.8623 225.039L104.86 224.721ZM92.5732 215.088H99.5332V191.088H92.5732V215.088ZM89.2579 209.286L101.882 230.214L122.433 217.818L109.809 196.89L89.2579 209.286ZM112.157 236.016H112.589V212.016H112.157V236.016ZM124.589 223.932L124.445 203.292L100.446 203.46L100.59 224.1L124.589 223.932ZM113.212 215.351L119.212 214.967L117.679 191.016L111.679 191.401L113.212 215.351ZM106.447 202.777L106.063 224.233L130.059 224.663L130.443 203.207L106.447 202.777ZM139.446 234V246H148.066L150.818 237.832L139.446 234ZM131.67 234L120.195 237.51L122.792 246H131.67V234ZM122.214 203.088V191.088H105.995L110.739 206.598L122.214 203.088ZM128.838 203.088L140.631 200.868L138.79 191.088H128.838V203.088ZM129.606 207.168L117.813 209.388L117.912 209.91L118.056 210.422L129.606 207.168ZM135.462 227.952L123.912 231.206L126.376 239.952H135.462V227.952ZM135.894 227.952V239.952H144.582L147.295 231.699L135.894 227.952ZM142.614 207.504L154.015 211.251L154.267 210.481L154.415 209.684L142.614 207.504ZM143.43 203.088V191.088H133.445L131.63 200.908L143.43 203.088ZM149.862 203.088L161.234 206.92L166.569 191.088H149.862V203.088ZM139.446 222H131.67V246H139.446V222ZM143.145 230.49L133.689 199.578L110.739 206.598L120.195 237.51L143.145 230.49ZM122.214 215.088H128.838V191.088H122.214V215.088ZM117.045 205.308L117.813 209.388L141.399 204.948L140.631 200.868L117.045 205.308ZM118.056 210.422L123.912 231.206L147.013 224.698L141.157 203.914L118.056 210.422ZM135.462 239.952H135.894V215.952H135.462V239.952ZM147.295 231.699L154.015 211.251L131.214 203.757L124.494 224.205L147.295 231.699ZM154.415 209.684L155.231 205.268L131.63 200.908L130.814 205.324L154.415 209.684ZM143.43 215.088H149.862V191.088H143.43V215.088ZM138.491 199.256L128.075 230.168L150.818 237.832L161.234 206.92L138.491 199.256ZM159.703 224.208L147.705 223.99L147.7 224.275L147.708 224.561L159.703 224.208ZM159.991 234V246H172.349L171.986 233.647L159.991 234ZM153.463 234L141.471 233.563L141.017 246H153.463V234ZM153.799 224.784L165.791 225.221L165.802 224.91L165.797 224.598L153.799 224.784ZM153.463 203.088V191.088H141.275L141.464 203.274L153.463 203.088ZM160.087 203.088L172.085 203.306L172.307 191.088H160.087V203.088ZM147.708 224.561L147.996 234.353L171.986 233.647L171.698 223.855L147.708 224.561ZM159.991 222H153.463V246H159.991V222ZM165.455 234.437L165.791 225.221L141.807 224.347L141.471 233.563L165.455 234.437ZM165.797 224.598L165.461 202.902L141.464 203.274L141.8 224.97L165.797 224.598ZM153.463 215.088H160.087V191.088H153.463V215.088ZM148.089 202.87L147.705 223.99L171.701 224.426L172.085 203.306L148.089 202.87ZM187.019 203.616L198.981 204.564L199.331 200.144L196.724 196.558L187.019 203.616ZM186.635 208.464L186.041 220.449L197.677 221.026L198.597 209.412L186.635 208.464ZM180.827 208.176L181.421 196.191L181.124 196.176H180.827V208.176ZM178.907 208.176V196.176H167.085L166.908 207.996L178.907 208.176ZM178.667 224.208L166.668 224.028L166.664 224.295L166.672 224.561L178.667 224.208ZM178.955 234V246H191.313L190.95 233.647L178.955 234ZM172.427 234L160.435 233.563L159.981 246H172.427V234ZM172.763 224.784L184.755 225.221L184.766 224.916L184.762 224.611L172.763 224.784ZM172.523 208.176L184.522 208.003L184.351 196.176H172.523V208.176ZM170.603 208.176V196.176H170.31L170.018 196.19L170.603 208.176ZM164.699 208.464L155.411 216.063L159.242 220.744L165.284 220.45L164.699 208.464ZM164.267 207.936L152.314 206.871L151.88 211.746L154.979 215.535L164.267 207.936ZM164.699 203.088V191.088H153.721L152.746 202.023L164.699 203.088ZM186.635 203.088L196.34 196.03L192.746 191.088H186.635V203.088ZM175.056 202.668L174.672 207.516L198.597 209.412L198.981 204.564L175.056 202.668ZM187.229 196.479L181.421 196.191L180.233 220.161L186.041 220.449L187.229 196.479ZM180.827 196.176H178.907V220.176H180.827V196.176ZM166.908 207.996L166.668 224.028L190.666 224.388L190.906 208.356L166.908 207.996ZM166.672 224.561L166.96 234.353L190.95 233.647L190.662 223.855L166.672 224.561ZM178.955 222H172.427V246H178.955V222ZM184.419 234.437L184.755 225.221L160.771 224.347L160.435 233.563L184.419 234.437ZM184.762 224.611L184.522 208.003L160.524 208.349L160.764 224.957L184.762 224.611ZM172.523 196.176H170.603V220.176H172.523V196.176ZM170.018 196.19L164.114 196.478L165.284 220.45L171.188 220.162L170.018 196.19ZM173.986 200.865L173.554 200.337L154.979 215.535L155.411 216.063L173.986 200.865ZM176.22 209.001L176.652 204.153L152.746 202.023L152.314 206.871L176.22 209.001ZM164.699 215.088H186.635V191.088H164.699V215.088ZM176.93 210.146L177.314 210.674L196.724 196.558L196.34 196.03L176.93 210.146ZM210.684 228.624L220.389 221.566L216.625 216.391L210.231 216.633L210.684 228.624ZM211.068 229.152L223.021 230.217L223.42 225.734L220.773 222.094L211.068 229.152ZM210.636 234V246H221.614L222.589 235.065L210.636 234ZM191.244 234L179.252 233.563L178.799 246H191.244V234ZM191.58 224.784L203.572 225.221L203.583 224.91L203.579 224.598L191.58 224.784ZM191.244 203.088V191.088H179.057L179.245 203.274L191.244 203.088ZM210.828 203.088L220.533 196.03L216.939 191.088H210.828V203.088ZM211.212 203.616L223.154 204.798L223.604 200.252L220.917 196.558L211.212 203.616ZM210.732 208.464L210.343 220.458L221.567 220.822L222.674 209.646L210.732 208.464ZM203.34 208.224L203.729 196.23L203.483 196.222L203.237 196.224L203.34 208.224ZM197.772 208.272L197.669 196.272L186 196.373L185.774 208.04L197.772 208.272ZM197.628 215.712L185.63 215.48L185.398 227.494L197.412 227.71L197.628 215.712ZM202.956 215.808L202.74 227.806L203.019 227.811L203.299 227.803L202.956 215.808ZM207.996 215.664L217.366 208.168L213.631 203.498L207.653 203.669L207.996 215.664ZM208.38 216.144L220.333 217.209L220.76 212.41L217.75 208.648L208.38 216.144ZM207.948 220.992L207.632 232.988L218.9 233.284L219.901 222.057L207.948 220.992ZM202.476 220.848L202.792 208.852L202.576 208.846L202.359 208.849L202.476 220.848ZM197.532 220.896L197.415 208.897L185.703 209.01L185.533 220.722L197.532 220.896ZM197.484 224.208L185.485 224.034L185.481 224.307L185.49 224.579L197.484 224.208ZM197.628 228.864L185.634 229.235L185.99 240.761L197.522 240.864L197.628 228.864ZM203.052 228.912L202.946 240.912L203.225 240.914L203.505 240.903L203.052 228.912ZM200.979 235.682L201.363 236.21L220.773 222.094L220.389 221.566L200.979 235.682ZM199.115 228.087L198.683 232.935L222.589 235.065L223.021 230.217L199.115 228.087ZM210.636 222H191.244V246H210.636V222ZM203.236 234.437L203.572 225.221L179.588 224.347L179.252 233.563L203.236 234.437ZM203.579 224.598L203.243 202.902L179.245 203.274L179.581 224.97L203.579 224.598ZM191.244 215.088H210.828V191.088H191.244V215.088ZM201.123 210.146L201.507 210.674L220.917 196.558L220.533 196.03L201.123 210.146ZM199.27 202.434L198.79 207.282L222.674 209.646L223.154 204.798L199.27 202.434ZM211.121 196.47L203.729 196.23L202.951 220.218L210.343 220.458L211.121 196.47ZM203.237 196.224L197.669 196.272L197.875 220.272L203.443 220.224L203.237 196.224ZM185.774 208.04L185.63 215.48L209.626 215.944L209.77 208.504L185.774 208.04ZM197.412 227.71L202.74 227.806L203.172 203.81L197.844 203.714L197.412 227.71ZM203.299 227.803L208.339 227.659L207.653 203.669L202.613 203.813L203.299 227.803ZM198.626 223.16L199.01 223.64L217.75 208.648L217.366 208.168L198.626 223.16ZM196.427 215.079L195.995 219.927L219.901 222.057L220.333 217.209L196.427 215.079ZM208.264 208.996L202.792 208.852L202.16 232.844L207.632 232.988L208.264 208.996ZM202.359 208.849L197.415 208.897L197.648 232.895L202.592 232.847L202.359 208.849ZM185.533 220.722L185.485 224.034L209.483 224.382L209.531 221.07L185.533 220.722ZM185.49 224.579L185.634 229.235L209.622 228.493L209.478 223.837L185.49 224.579ZM197.522 240.864L202.946 240.912L203.158 216.912L197.734 216.864L197.522 240.864ZM203.505 240.903L211.137 240.615L210.231 216.633L202.599 216.921L203.505 240.903Z" fill="#1CAE81" mask="url(#path-2-inside-1_1219_476)"/>
<defs>
<filter id="filter0_d_1219_476" x="11.5143" y="5.8004" width="187.552" height="187.298" filterUnits="userSpaceOnUse" color-interpolation-filters="sRGB">
<feFlood flood-opacity="0" result="BackgroundImageFix"/>
<feColorMatrix in="SourceAlpha" type="matrix" values="0 0 0 0 0 0 0 0 0 0 0 0 0 0 0 0 0 0 127 0" result="hardAlpha"/>
<feOffset dy="4"/>
<feGaussianBlur stdDeviation="7"/>
<feComposite in2="hardAlpha" operator="out"/>
<feColorMatrix type="matrix" values="0 0 0 0 0 0 0 0 0 0 0 0 0 0 0 0 0 0 0.35 0"/>
<feBlend mode="normal" in2="BackgroundImageFix" result="effect1_dropShadow_1219_476"/>
<feBlend mode="normal" in="SourceGraphic" in2="effect1_dropShadow_1219_476" result="shape"/>
</filter>
</defs>
</svg>
