<svg width="142" height="38" viewBox="0 0 142 38" fill="none" xmlns="http://www.w3.org/2000/svg">
<mask id="path-1-inside-1_301_308" fill="white">
<path d="M6.848 11.848L6.752 17.416L9.632 17.448L13.12 17.352L13.408 17.672L13.088 20.904L9.28 20.808L6.688 20.84L6.656 22.472L6.848 29H2.496L2.72 22.856L2.496 8.392H14.752L15.008 8.744L14.688 12.008L9.792 11.816L6.848 11.848ZM27.9058 20.808C29.5698 23.4533 31.2231 25.8427 32.8658 27.976L32.8018 28.456C31.4151 28.9467 29.9964 29.2347 28.5458 29.32L28.0978 28.968C26.5618 26.3227 25.3138 24.0187 24.3538 22.056H21.2498V22.472L21.4418 29H17.0898L17.3138 22.856L17.0898 8.392L24.9938 8.36C27.1484 8.36 28.8124 8.89333 29.9858 9.96C31.1591 11.0053 31.7458 12.5093 31.7458 14.472C31.7458 15.7947 31.4044 17.0107 30.7218 18.12C30.0604 19.208 29.1218 20.104 27.9058 20.808ZM21.3138 18.696L24.4818 18.824C26.2951 18.2053 27.2018 16.8933 27.2018 14.888C27.2018 13.8 26.9031 12.9893 26.3058 12.456C25.7298 11.9013 24.8338 11.6027 23.6178 11.56L21.4418 11.688L21.3138 18.696ZM40.1248 22.472L40.3168 29H35.9648L36.1888 22.856L35.9648 8.392H40.3808L40.1248 22.472ZM58.3623 25.416L58.6183 25.768L58.3303 29H45.4023L45.6263 22.856L45.4023 8.392H58.4583L58.7143 8.744L58.3943 11.976L53.4663 11.816L49.7543 11.848L49.6583 16.808L53.2103 16.872L56.5703 16.776L56.8263 17.096L56.5383 20.328L52.8903 20.232L49.5943 20.264L49.5623 22.472L49.6583 25.576L53.2743 25.608L58.3623 25.416ZM78.7075 22.632L78.8675 29H74.1955L65.7795 15.048H65.5235L65.4915 21.896L65.6195 29H61.6835L61.9075 22.92L61.7155 8.392H66.3555L74.7715 22.344H75.0595L74.9635 8.584L78.9635 8.328L78.7075 22.632ZM92.9643 29H87.7803L81.4763 8.392H85.8923L86.4043 11.112L90.3083 24.968H90.5963L95.0763 11.336L95.6203 8.392H99.9083L92.9643 29ZM106.469 22.472L106.661 29H102.309L102.533 22.856L102.309 8.392H106.725L106.469 22.472ZM124.679 8.744L124.423 11.976L120.551 11.784H119.271L119.111 22.472L119.303 29H114.951L115.175 22.856L115.015 11.784H113.735L109.799 11.976L109.511 11.624L109.799 8.392H124.423L124.679 8.744ZM140.456 25.416L140.712 25.768L140.424 29H127.496L127.72 22.856L127.496 8.392H140.552L140.808 8.744L140.488 11.976L135.56 11.816L131.848 11.848L131.752 16.808L135.304 16.872L138.664 16.776L138.92 17.096L138.632 20.328L134.984 20.232L131.688 20.264L131.656 22.472L131.752 25.576L135.368 25.608L140.456 25.416Z"/>
</mask>
<path d="M6.848 11.848L6.71758 -0.151292L-4.94908 -0.0244817L-5.15022 11.6411L6.848 11.848ZM6.752 17.416L-5.24622 17.2091L-5.45435 29.2811L6.61868 29.4153L6.752 17.416ZM9.632 17.448L9.49868 29.4473L9.73045 29.4498L9.96215 29.4435L9.632 17.448ZM13.12 17.352L22.0395 9.32443L18.3312 5.20403L12.7899 5.35654L13.12 17.352ZM13.408 17.672L25.3496 18.8543L25.8716 13.5823L22.3275 9.64443L13.408 17.672ZM13.088 20.904L12.7856 32.9002L23.9311 33.1812L25.0296 22.0863L13.088 20.904ZM9.28 20.808L9.58242 8.81181L9.35717 8.80613L9.13187 8.80891L9.28 20.808ZM6.688 20.84L6.53987 8.84091L-5.08184 8.98439L-5.30969 20.6047L6.688 20.84ZM6.656 22.472L-5.34169 22.2368L-5.34746 22.5308L-5.33881 22.8248L6.656 22.472ZM6.848 29V41H19.2061L18.8428 28.6472L6.848 29ZM2.496 29L-9.49603 28.5628L-9.94947 41H2.496V29ZM2.72 22.856L14.712 23.2932L14.7234 22.9818L14.7186 22.6702L2.72 22.856ZM2.496 8.392V-3.608H-9.69128L-9.50256 8.57782L2.496 8.392ZM14.752 8.392L24.4569 1.33396L20.8627 -3.608H14.752V8.392ZM15.008 8.744L26.9507 9.91486L27.3958 5.37506L24.7129 1.68596L15.008 8.744ZM14.688 12.008L14.2178 23.9988L25.5265 24.4423L26.6307 13.1789L14.688 12.008ZM9.792 11.816L10.2622 -0.174783L9.96201 -0.186557L9.66158 -0.183291L9.792 11.816ZM-5.15022 11.6411L-5.24622 17.2091L18.7502 17.6229L18.8462 12.0549L-5.15022 11.6411ZM6.61868 29.4153L9.49868 29.4473L9.76532 5.44874L6.88532 5.41674L6.61868 29.4153ZM9.96215 29.4435L13.4502 29.3475L12.7899 5.35654L9.30185 5.45254L9.96215 29.4435ZM4.20046 25.3796L4.48846 25.6996L22.3275 9.64443L22.0395 9.32443L4.20046 25.3796ZM1.46639 16.4897L1.14639 19.7217L25.0296 22.0863L25.3496 18.8543L1.46639 16.4897ZM13.3904 8.90781L9.58242 8.81181L8.97758 32.8042L12.7856 32.9002L13.3904 8.90781ZM9.13187 8.80891L6.53987 8.84091L6.83614 32.8391L9.42814 32.8071L9.13187 8.80891ZM-5.30969 20.6047L-5.34169 22.2368L18.6537 22.7072L18.6857 21.0752L-5.30969 20.6047ZM-5.33881 22.8248L-5.14681 29.3528L18.8428 28.6472L18.6508 22.1192L-5.33881 22.8248ZM6.848 17H2.496V41H6.848V17ZM14.488 29.4372L14.712 23.2932L-9.27203 22.4188L-9.49603 28.5628L14.488 29.4372ZM14.7186 22.6702L14.4946 8.20618L-9.50256 8.57782L-9.27856 23.0418L14.7186 22.6702ZM2.496 20.392H14.752V-3.608H2.496V20.392ZM5.04715 15.45L5.30315 15.802L24.7129 1.68596L24.4569 1.33396L5.04715 15.45ZM3.06526 7.57314L2.74526 10.8371L26.6307 13.1789L26.9507 9.91486L3.06526 7.57314ZM15.1582 0.017216L10.2622 -0.174783L9.32178 23.8068L14.2178 23.9988L15.1582 0.017216ZM9.66158 -0.183291L6.71758 -0.151292L6.97843 23.8473L9.92243 23.8153L9.66158 -0.183291ZM27.9058 20.808L21.8933 10.4229L11.1199 16.6601L17.7482 27.1974L27.9058 20.808ZM32.8658 27.976L44.7605 29.562L45.4205 24.6118L42.3737 20.6549L32.8658 27.976ZM32.8018 28.456L36.8047 39.7687L43.7261 37.3195L44.6965 30.042L32.8018 28.456ZM28.5458 29.32L21.1319 38.7558L24.709 41.5664L29.2504 41.2993L28.5458 29.32ZM28.0978 28.968L17.7203 34.9936L18.8753 36.9828L20.6839 38.4038L28.0978 28.968ZM24.3538 22.056L35.1333 16.7834L31.8428 10.056H24.3538V22.056ZM21.2498 22.056V10.056H9.24975V22.056H21.2498ZM21.2498 22.472H9.24975V22.6484L9.25494 22.8248L21.2498 22.472ZM21.4418 29V41H33.7999L33.4366 28.6472L21.4418 29ZM17.0898 29L5.09772 28.5628L4.64428 41H17.0898V29ZM17.3138 22.856L29.3058 23.2932L29.3171 22.9818L29.3123 22.6702L17.3138 22.856ZM17.0898 8.392L17.0412 -3.6079L4.90323 -3.55876L5.09119 8.57782L17.0898 8.392ZM24.9938 8.36V-3.64H24.9695L24.9452 -3.6399L24.9938 8.36ZM29.9858 9.96L21.9137 18.8393L21.9583 18.8798L22.0033 18.9199L29.9858 9.96ZM30.7218 18.12L20.5019 11.8308L20.4846 11.8589L20.4675 11.887L30.7218 18.12ZM21.3138 18.696L9.31575 18.4769L9.1014 30.2124L20.8293 30.6862L21.3138 18.696ZM24.4818 18.824L23.9973 30.8142L26.236 30.9047L28.3566 30.1812L24.4818 18.824ZM26.3058 12.456L17.982 21.0998L18.1449 21.2567L18.3136 21.4072L26.3058 12.456ZM23.6178 11.56L24.0385 -0.432621L23.4755 -0.452376L22.9131 -0.419293L23.6178 11.56ZM21.4418 11.688L20.7371 -0.291293L9.64663 0.361088L9.44375 11.4689L21.4418 11.688ZM17.7482 27.1974C19.5827 30.1138 21.4509 32.8206 23.3578 35.2971L42.3737 20.6549C40.9953 18.8647 39.5568 16.7928 38.0633 14.4186L17.7482 27.1974ZM20.971 26.39L20.907 26.87L44.6965 30.042L44.7605 29.562L20.971 26.39ZM28.7988 17.1433C28.4617 17.2626 28.1527 17.3224 27.8411 17.3407L29.2504 41.2993C31.8402 41.147 34.3685 40.6307 36.8047 39.7687L28.7988 17.1433ZM35.9596 19.8842L35.5116 19.5322L20.6839 38.4038L21.1319 38.7558L35.9596 19.8842ZM38.4752 22.9424C37.0305 20.4542 35.93 18.4121 35.1333 16.7834L13.5742 27.3286C14.6975 29.6252 16.093 32.1911 17.7203 34.9936L38.4752 22.9424ZM24.3538 10.056H21.2498V34.056H24.3538V10.056ZM9.24975 22.056V22.472H33.2498V22.056H9.24975ZM9.25494 22.8248L9.44694 29.3528L33.4366 28.6472L33.2446 22.1192L9.25494 22.8248ZM21.4418 17H17.0898V41H21.4418V17ZM29.0818 29.4372L29.3058 23.2932L5.32172 22.4188L5.09772 28.5628L29.0818 29.4372ZM29.3123 22.6702L29.0883 8.20618L5.09119 8.57782L5.31519 23.0418L29.3123 22.6702ZM17.1383 20.3919L25.0423 20.3599L24.9452 -3.6399L17.0412 -3.6079L17.1383 20.3919ZM24.9938 20.36C25.2468 20.36 23.6377 20.4066 21.9137 18.8393L38.0578 1.08072C33.9871 -2.61994 29.05 -3.64 24.9938 -3.64V20.36ZM22.0033 18.9199C21.1369 18.1481 20.5014 17.1947 20.1262 16.2328C19.7742 15.3306 19.7458 14.6699 19.7458 14.472H43.7458C43.7458 10.0038 42.3105 4.86865 37.9682 1.00008L22.0033 18.9199ZM19.7458 14.472C19.7458 14.0889 19.797 13.6293 19.9363 13.1329C20.076 12.6353 20.2779 12.1948 20.5019 11.8308L40.9417 24.4092C42.807 21.378 43.7458 17.9792 43.7458 14.472H19.7458ZM20.4675 11.887C20.9552 11.0846 21.554 10.6193 21.8933 10.4229L33.9182 31.1931C36.6895 29.5887 39.1656 27.3314 40.976 24.353L20.4675 11.887ZM20.8293 30.6862L23.9973 30.8142L24.9662 6.83378L21.7982 6.70578L20.8293 30.6862ZM28.3566 30.1812C31.1935 29.2133 34.2031 27.3683 36.3938 24.1982C38.5522 21.0748 39.2018 17.6983 39.2018 14.888H15.2018C15.2018 14.083 15.3979 12.3652 16.6497 10.5538C17.9337 8.69574 19.5833 7.81604 20.6069 7.4668L28.3566 30.1812ZM39.2018 14.888C39.2018 11.6629 38.266 7.04766 34.2979 3.50475L18.3136 21.4072C15.5402 18.931 15.2018 15.9371 15.2018 14.888H39.2018ZM34.6295 3.81216C31.0481 0.363494 26.7198 -0.338542 24.0385 -0.432621L23.197 23.5526C22.9477 23.5439 20.4114 23.4392 17.982 21.0998L34.6295 3.81216ZM22.9131 -0.419293L20.7371 -0.291293L22.1464 23.6673L24.3224 23.5393L22.9131 -0.419293ZM9.44375 11.4689L9.31575 18.4769L33.3117 18.9151L33.4397 11.9071L9.44375 11.4689ZM40.1248 22.472L28.1267 22.2539L28.1215 22.5394L28.1299 22.8248L40.1248 22.472ZM40.3168 29V41H52.6749L52.3116 28.6472L40.3168 29ZM35.9648 29L23.9727 28.5628L23.5193 41H35.9648V29ZM36.1888 22.856L48.1808 23.2932L48.1921 22.9818L48.1873 22.6702L36.1888 22.856ZM35.9648 8.392V-3.608H23.7775L23.9662 8.57782L35.9648 8.392ZM40.3808 8.392L52.3788 8.61014L52.6009 -3.608H40.3808V8.392ZM28.1299 22.8248L28.3219 29.3528L52.3116 28.6472L52.1196 22.1192L28.1299 22.8248ZM40.3168 17H35.9648V41H40.3168V17ZM47.9568 29.4372L48.1808 23.2932L24.1967 22.4188L23.9727 28.5628L47.9568 29.4372ZM48.1873 22.6702L47.9633 8.20618L23.9662 8.57782L24.1902 23.0418L48.1873 22.6702ZM35.9648 20.392H40.3808V-3.608H35.9648V20.392ZM28.3827 8.17385L28.1267 22.2539L52.1228 22.6901L52.3788 8.61014L28.3827 8.17385ZM58.3623 25.416L68.0671 18.3579L64.3037 13.1833L57.9097 13.4245L58.3623 25.416ZM58.6183 25.768L70.5709 26.8331L70.9704 22.35L68.3231 18.7099L58.6183 25.768ZM58.3303 29V41H69.3085L70.2829 30.0651L58.3303 29ZM45.4023 29L33.4102 28.5628L32.9568 41H45.4023V29ZM45.6263 22.856L57.6183 23.2932L57.6296 22.9818L57.6248 22.6702L45.6263 22.856ZM45.4023 8.392V-3.608H33.215L33.4037 8.57782L45.4023 8.392ZM58.4583 8.392L68.1631 1.33396L64.569 -3.608H58.4583V8.392ZM58.7143 8.744L70.6559 9.92634L71.106 5.3804L68.4191 1.68596L58.7143 8.744ZM58.3943 11.976L58.0048 23.9697L69.2294 24.3341L70.3359 13.1583L58.3943 11.976ZM53.4663 11.816L53.8557 -0.17768L53.6093 -0.185679L53.3628 -0.183554L53.4663 11.816ZM49.7543 11.848L49.6508 -0.151555L37.9823 -0.0509653L37.7565 11.6158L49.7543 11.848ZM49.6583 16.808L37.6605 16.5758L37.428 28.5896L49.4421 28.8061L49.6583 16.808ZM53.2103 16.872L52.9941 28.8701L53.2736 28.8751L53.553 28.8671L53.2103 16.872ZM56.5703 16.776L65.9407 9.27966L62.205 4.61011L56.2275 4.78089L56.5703 16.776ZM56.8263 17.096L68.7789 18.1611L69.2065 13.362L66.1967 9.59966L56.8263 17.096ZM56.5383 20.328L56.2226 32.3238L67.4904 32.6204L68.4909 21.3931L56.5383 20.328ZM52.8903 20.232L53.2059 8.23615L52.9899 8.23047L52.7737 8.23256L52.8903 20.232ZM49.5943 20.264L49.4777 8.26457L37.7652 8.37828L37.5955 20.0901L49.5943 20.264ZM49.5623 22.472L37.5635 22.2981L37.5596 22.5706L37.568 22.843L49.5623 22.472ZM49.6583 25.576L37.664 25.947L38.0205 37.4735L49.5521 37.5755L49.6583 25.576ZM53.2743 25.608L53.1681 37.6075L53.4475 37.61L53.7268 37.5995L53.2743 25.608ZM48.6574 32.4741L48.9134 32.8261L68.3231 18.7099L68.0671 18.3579L48.6574 32.4741ZM46.6656 24.7029L46.3776 27.9349L70.2829 30.0651L70.5709 26.8331L46.6656 24.7029ZM58.3303 17H45.4023V41H58.3303V17ZM57.3943 29.4372L57.6183 23.2932L33.6342 22.4188L33.4102 28.5628L57.3943 29.4372ZM57.6248 22.6702L57.4008 8.20618L33.4037 8.57782L33.6277 23.0418L57.6248 22.6702ZM45.4023 20.392H58.4583V-3.608H45.4023V20.392ZM48.7534 15.45L49.0094 15.802L68.4191 1.68596L68.1631 1.33396L48.7534 15.45ZM46.7726 7.56166L46.4526 10.7937L70.3359 13.1583L70.6559 9.92634L46.7726 7.56166ZM58.7837 -0.0176803L53.8557 -0.17768L53.0768 23.8097L58.0048 23.9697L58.7837 -0.0176803ZM53.3628 -0.183554L49.6508 -0.151555L49.8577 23.8476L53.5697 23.8156L53.3628 -0.183554ZM37.7565 11.6158L37.6605 16.5758L61.656 17.0402L61.752 12.0802L37.7565 11.6158ZM49.4421 28.8061L52.9941 28.8701L53.4264 4.87395L49.8744 4.80995L49.4421 28.8061ZM53.553 28.8671L56.913 28.7711L56.2275 4.78089L52.8675 4.87689L53.553 28.8671ZM47.1998 24.2723L47.4558 24.5923L66.1967 9.59966L65.9407 9.27966L47.1998 24.2723ZM44.8736 16.0309L44.5856 19.2629L68.4909 21.3931L68.7789 18.1611L44.8736 16.0309ZM56.8539 8.33215L53.2059 8.23615L52.5746 32.2278L56.2226 32.3238L56.8539 8.33215ZM52.7737 8.23256L49.4777 8.26457L49.7108 32.2634L53.0068 32.2314L52.7737 8.23256ZM37.5955 20.0901L37.5635 22.2981L61.561 22.6459L61.593 20.4379L37.5955 20.0901ZM37.568 22.843L37.664 25.947L61.6525 25.205L61.5565 22.101L37.568 22.843ZM49.5521 37.5755L53.1681 37.6075L53.3804 13.6085L49.7644 13.5765L49.5521 37.5755ZM53.7268 37.5995L58.8148 37.4075L57.9097 13.4245L52.8217 13.6165L53.7268 37.5995ZM78.7075 22.632L66.7094 22.4173L66.7048 22.6754L66.7113 22.9334L78.7075 22.632ZM78.8675 29V41H91.1728L90.8637 28.6986L78.8675 29ZM74.1955 29L63.9202 35.1982L67.4199 41H74.1955V29ZM65.7795 15.048L76.0548 8.84981L72.5551 3.048H65.7795V15.048ZM65.5235 15.048V3.048H53.5794L53.5236 14.9919L65.5235 15.048ZM65.4915 21.896L53.4916 21.8399L53.491 21.9761L53.4934 22.1122L65.4915 21.896ZM65.6195 29V41H77.8377L77.6176 28.7838L65.6195 29ZM61.6835 29L49.6916 28.5582L49.2333 41H61.6835V29ZM61.9075 22.92L73.8994 23.3618L73.9104 23.0617L73.9065 22.7614L61.9075 22.92ZM61.7155 8.392V-3.608H49.5559L49.7165 8.55057L61.7155 8.392ZM66.3555 8.392L76.6308 2.19381L73.1311 -3.608H66.3555V8.392ZM74.7715 22.344L64.4962 28.5422L67.9959 34.344H74.7715V22.344ZM75.0595 22.344V34.344H87.1435L87.0592 22.2603L75.0595 22.344ZM74.9635 8.584L74.1971 -3.3915L62.8847 -2.66751L62.9638 8.66772L74.9635 8.584ZM78.9635 8.328L90.9616 8.54273L91.1946 -4.47935L78.1971 -3.6475L78.9635 8.328ZM66.7113 22.9334L66.8713 29.3014L90.8637 28.6986L90.7037 22.3306L66.7113 22.9334ZM78.8675 17H74.1955V41H78.8675V17ZM84.4708 22.8018L76.0548 8.84981L55.5042 21.2462L63.9202 35.1982L84.4708 22.8018ZM65.7795 3.048H65.5235V27.048H65.7795V3.048ZM53.5236 14.9919L53.4916 21.8399L77.4914 21.9521L77.5234 15.1041L53.5236 14.9919ZM53.4934 22.1122L53.6214 29.2162L77.6176 28.7838L77.4896 21.6798L53.4934 22.1122ZM65.6195 17H61.6835V41H65.6195V17ZM73.6754 29.4418L73.8994 23.3618L49.9156 22.4782L49.6916 28.5582L73.6754 29.4418ZM73.9065 22.7614L73.7145 8.23342L49.7165 8.55057L49.9085 23.0786L73.9065 22.7614ZM61.7155 20.392H66.3555V-3.608H61.7155V20.392ZM56.0802 14.5902L64.4962 28.5422L85.0468 16.1458L76.6308 2.19381L56.0802 14.5902ZM74.7715 34.344H75.0595V10.344H74.7715V34.344ZM87.0592 22.2603L86.9632 8.50028L62.9638 8.66772L63.0598 22.4277L87.0592 22.2603ZM75.7299 20.5595L79.7299 20.3035L78.1971 -3.6475L74.1971 -3.3915L75.7299 20.5595ZM66.9654 8.11327L66.7094 22.4173L90.7056 22.8467L90.9616 8.54273L66.9654 8.11327ZM92.9643 29V41H101.584L104.336 32.8318L92.9643 29ZM87.7803 29L76.3051 32.5102L78.9022 41H87.7803V29ZM81.4763 8.392V-3.608H65.2565L70.0011 11.9022L81.4763 8.392ZM85.8923 8.392L97.6851 6.17216L95.8442 -3.608H85.8923V8.392ZM86.4043 11.112L74.6114 13.3318L74.7097 13.8545L74.854 14.3664L86.4043 11.112ZM90.3083 24.968L78.758 28.2224L81.2221 36.968H90.3083V24.968ZM90.5963 24.968V36.968H99.284L101.996 28.7145L90.5963 24.968ZM95.0763 11.336L106.476 15.0825L106.729 14.313L106.876 13.5165L95.0763 11.336ZM95.6203 8.392V-3.608H85.6345L83.82 6.21152L95.6203 8.392ZM99.9083 8.392L111.28 12.2238L116.615 -3.608H99.9083V8.392ZM92.9643 17H87.7803V41H92.9643V17ZM99.2554 25.4898L92.9514 4.88175L70.0011 11.9022L76.3051 32.5102L99.2554 25.4898ZM81.4763 20.392H85.8923V-3.608H81.4763V20.392ZM74.0994 10.6118L74.6114 13.3318L98.1971 8.89216L97.6851 6.17216L74.0994 10.6118ZM74.854 14.3664L78.758 28.2224L101.859 21.7136L97.9545 7.85765L74.854 14.3664ZM90.3083 36.968H90.5963V12.968H90.3083V36.968ZM101.996 28.7145L106.476 15.0825L83.6761 7.58947L79.1961 21.2215L101.996 28.7145ZM106.876 13.5165L107.42 10.5725L83.82 6.21152L83.276 9.15552L106.876 13.5165ZM95.6203 20.392H99.9083V-3.608H95.6203V20.392ZM88.5365 4.5602L81.5925 25.1682L104.336 32.8318L111.28 12.2238L88.5365 4.5602ZM106.469 22.472L94.4705 22.2539L94.4653 22.5394L94.4737 22.8248L106.469 22.472ZM106.661 29V41H119.019L118.655 28.6472L106.661 29ZM102.309 29L90.3165 28.5628L89.863 41H102.309V29ZM102.533 22.856L114.525 23.2932L114.536 22.9818L114.531 22.6702L102.533 22.856ZM102.309 8.392V-3.608H90.1212L90.3099 8.57782L102.309 8.392ZM106.725 8.392L118.723 8.61014L118.945 -3.608H106.725V8.392ZM94.4737 22.8248L94.6657 29.3528L118.655 28.6472L118.463 22.1192L94.4737 22.8248ZM106.661 17H102.309V41H106.661V17ZM114.301 29.4372L114.525 23.2932L90.5405 22.4188L90.3165 28.5628L114.301 29.4372ZM114.531 22.6702L114.307 8.20618L90.3099 8.57782L90.5339 23.0418L114.531 22.6702ZM102.309 20.392H106.725V-3.608H102.309V20.392ZM94.7265 8.17385L94.4705 22.2539L118.467 22.6901L118.723 8.61014L94.7265 8.17385ZM124.679 8.744L136.642 9.69153L136.992 5.27166L134.384 1.68596L124.679 8.744ZM124.423 11.976L123.829 23.9613L135.466 24.5383L136.386 12.9235L124.423 11.976ZM120.551 11.784L121.146 -0.201275L120.849 -0.216002H120.551V11.784ZM119.271 11.784V-0.216002H107.45L107.273 11.6044L119.271 11.784ZM119.111 22.472L107.113 22.2924L107.109 22.5586L107.116 22.8248L119.111 22.472ZM119.303 29V41H131.661L131.298 28.6472L119.303 29ZM114.951 29L102.959 28.5628L102.506 41H114.951V29ZM115.175 22.856L127.167 23.2932L127.178 22.988L127.174 22.6826L115.175 22.856ZM115.015 11.784L127.014 11.6106L126.843 -0.216002H115.015V11.784ZM113.735 11.784V-0.216002H113.443L113.151 -0.20175L113.735 11.784ZM109.799 11.976L100.512 19.5748L104.342 24.2565L110.384 23.9617L109.799 11.976ZM109.511 11.624L97.5586 10.5589L97.1242 15.4344L100.224 19.2228L109.511 11.624ZM109.799 8.392V-3.608H98.821L97.8466 7.32691L109.799 8.392ZM124.423 8.392L134.128 1.33396L130.534 -3.608H124.423V8.392ZM112.717 7.79647L112.461 11.0285L136.386 12.9235L136.642 9.69153L112.717 7.79647ZM125.018 -0.00927403L121.146 -0.201275L119.957 23.7693L123.829 23.9613L125.018 -0.00927403ZM120.551 -0.216002H119.271V23.784H120.551V-0.216002ZM107.273 11.6044L107.113 22.2924L131.11 22.6516L131.27 11.9636L107.273 11.6044ZM107.116 22.8248L107.308 29.3528L131.298 28.6472L131.106 22.1192L107.116 22.8248ZM119.303 17H114.951V41H119.303V17ZM126.943 29.4372L127.167 23.2932L103.183 22.4188L102.959 28.5628L126.943 29.4372ZM127.174 22.6826L127.014 11.6106L103.017 11.9574L103.177 23.0294L127.174 22.6826ZM115.015 -0.216002H113.735V23.784H115.015V-0.216002ZM113.151 -0.20175L109.215 -0.00974818L110.384 23.9617L114.32 23.7697L113.151 -0.20175ZM119.087 4.37716L118.799 4.02516L100.224 19.2228L100.512 19.5748L119.087 4.37716ZM121.464 12.6891L121.752 9.45708L97.8466 7.32691L97.5586 10.5589L121.464 12.6891ZM109.799 20.392H124.423V-3.608H109.799V20.392ZM114.718 15.45L114.974 15.802L134.384 1.68596L134.128 1.33396L114.718 15.45ZM140.456 25.416L150.161 18.3579L146.397 13.1833L140.003 13.4245L140.456 25.416ZM140.712 25.768L152.665 26.8331L153.064 22.35L150.417 18.7099L140.712 25.768ZM140.424 29V41H151.402L152.377 30.0651L140.424 29ZM127.496 29L115.504 28.5628L115.051 41H127.496V29ZM127.72 22.856L139.712 23.2932L139.723 22.9818L139.719 22.6702L127.72 22.856ZM127.496 8.392V-3.608H115.309L115.497 8.57782L127.496 8.392ZM140.552 8.392L150.257 1.33396L146.663 -3.608H140.552V8.392ZM140.808 8.744L152.75 9.92634L153.2 5.3804L150.513 1.68596L140.808 8.744ZM140.488 11.976L140.099 23.9697L151.323 24.3341L152.43 13.1583L140.488 11.976ZM135.56 11.816L135.949 -0.17768L135.703 -0.185679L135.457 -0.183554L135.56 11.816ZM131.848 11.848L131.745 -0.151555L120.076 -0.0509653L119.85 11.6158L131.848 11.848ZM131.752 16.808L119.754 16.5758L119.522 28.5896L131.536 28.8061L131.752 16.808ZM135.304 16.872L135.088 28.8701L135.367 28.8751L135.647 28.8671L135.304 16.872ZM138.664 16.776L148.034 9.27966L144.299 4.61011L138.321 4.78089L138.664 16.776ZM138.92 17.096L150.873 18.1611L151.3 13.362L148.29 9.59966L138.92 17.096ZM138.632 20.328L138.316 32.3238L149.584 32.6204L150.585 21.3931L138.632 20.328ZM134.984 20.232L135.3 8.23615L135.084 8.23047L134.867 8.23256L134.984 20.232ZM131.688 20.264L131.571 8.26457L119.859 8.37828L119.689 20.0901L131.688 20.264ZM131.656 22.472L119.657 22.2981L119.653 22.5706L119.662 22.843L131.656 22.472ZM131.752 25.576L119.758 25.947L120.114 37.4735L131.646 37.5755L131.752 25.576ZM135.368 25.608L135.262 37.6075L135.541 37.61L135.821 37.5995L135.368 25.608ZM130.751 32.4741L131.007 32.8261L150.417 18.7099L150.161 18.3579L130.751 32.4741ZM128.759 24.7029L128.471 27.9349L152.377 30.0651L152.665 26.8331L128.759 24.7029ZM140.424 17H127.496V41H140.424V17ZM139.488 29.4372L139.712 23.2932L115.728 22.4188L115.504 28.5628L139.488 29.4372ZM139.719 22.6702L139.495 8.20618L115.497 8.57782L115.721 23.0418L139.719 22.6702ZM127.496 20.392H140.552V-3.608H127.496V20.392ZM130.847 15.45L131.103 15.802L150.513 1.68596L150.257 1.33396L130.847 15.45ZM128.866 7.56166L128.546 10.7937L152.43 13.1583L152.75 9.92634L128.866 7.56166ZM140.877 -0.0176803L135.949 -0.17768L135.171 23.8097L140.099 23.9697L140.877 -0.0176803ZM135.457 -0.183554L131.745 -0.151555L131.951 23.8476L135.663 23.8156L135.457 -0.183554ZM119.85 11.6158L119.754 16.5758L143.75 17.0402L143.846 12.0802L119.85 11.6158ZM131.536 28.8061L135.088 28.8701L135.52 4.87395L131.968 4.80995L131.536 28.8061ZM135.647 28.8671L139.007 28.7711L138.321 4.78089L134.961 4.87689L135.647 28.8671ZM129.294 24.2723L129.55 24.5923L148.29 9.59966L148.034 9.27966L129.294 24.2723ZM126.967 16.0309L126.679 19.2629L150.585 21.3931L150.873 18.1611L126.967 16.0309ZM138.948 8.33215L135.3 8.23615L134.668 32.2278L138.316 32.3238L138.948 8.33215ZM134.867 8.23256L131.571 8.26457L131.805 32.2634L135.101 32.2314L134.867 8.23256ZM119.689 20.0901L119.657 22.2981L143.655 22.6459L143.687 20.4379L119.689 20.0901ZM119.662 22.843L119.758 25.947L143.746 25.205L143.65 22.101L119.662 22.843ZM131.646 37.5755L135.262 37.6075L135.474 13.6085L131.858 13.5765L131.646 37.5755ZM135.821 37.5995L140.909 37.4075L140.003 13.4245L134.915 13.6165L135.821 37.5995Z" fill="#1CAE81" mask="url(#path-1-inside-1_301_308)"/>
</svg>
