<svg width="57" height="57" viewBox="0 0 57 57" fill="none" xmlns="http://www.w3.org/2000/svg">
<g clip-path="url(#clip0_736_3903)">
<path d="M43.5 13.5H13.5V43.5H43.5V13.5Z" fill="white"/>
<path d="M19.6537 36.7728C18.5325 36.0153 17.7562 34.9091 17.3325 33.4466L19.935 32.3741C20.1712 33.2741 20.5838 33.9716 21.1725 34.4666C21.7575 34.9617 22.47 35.2053 23.3026 35.2053C24.1538 35.2053 24.885 34.9466 25.4962 34.4291C26.1076 33.9116 26.415 33.2515 26.415 32.4528C26.415 31.6354 26.0925 30.9679 25.4475 30.4503C24.8025 29.9328 23.9925 29.6741 23.025 29.6741H21.5213V27.0978H22.8713C23.7038 27.0978 24.405 26.8729 24.975 26.4228C25.545 25.9729 25.83 25.3579 25.83 24.5741C25.83 23.8766 25.575 23.3215 25.065 22.9053C24.555 22.4891 23.91 22.2792 23.1262 22.2792C22.3612 22.2792 21.7538 22.4816 21.3038 22.8904C20.8541 23.3002 20.516 23.8177 20.3212 24.3941L17.7451 23.3215C18.0862 22.3541 18.7125 21.4991 19.6313 20.7603C20.5501 20.0216 21.7238 19.6504 23.1488 19.6504C24.2026 19.6504 25.1513 19.8529 25.9913 20.2616C26.8312 20.6703 27.4912 21.2367 27.9675 21.9566C28.4437 22.6803 28.68 23.4903 28.68 24.3903C28.68 25.3091 28.4588 26.0853 28.0162 26.7229C27.5738 27.3604 27.03 27.8478 26.385 28.1891V28.3429C27.2179 28.6862 27.9413 29.2501 28.4776 29.974C29.0213 30.7053 29.295 31.5791 29.295 32.5991C29.295 33.6191 29.0363 34.5304 28.5188 35.3291C28.0013 36.1279 27.285 36.7579 26.3775 37.2153C25.4663 37.6728 24.4426 37.9054 23.3062 37.9054C21.99 37.9092 20.775 37.5303 19.6537 36.7728ZM35.64 23.8578L32.7825 25.9241L31.3538 23.7566L36.48 20.0591H38.445V37.5003H35.64V23.8578Z" fill="#4285F4"/>
<path d="M43.5 43.5H13.5V57H43.5V43.5Z" fill="#34A853"/>
<path d="M43.5 0H4.5C2.01375 0 0 2.01375 0 4.5V43.5H13.5V13.5H43.5V0Z" fill="#4285F4"/>
<path d="M0 43.5V52.4999C0 54.9862 2.01375 57 4.5 57H13.5V43.5H0Z" fill="#188038"/>
<path d="M57 13.5H43.5V43.5H57V13.5Z" fill="#FBBC04"/>
<path d="M57 13.5V4.5C57 2.01375 54.9862 0 52.4999 0H43.5V13.5H57Z" fill="#1967D2"/>
<path d="M43.5 57L57 43.5H43.5V57Z" fill="#EA4335"/>
</g>
<defs>
<clipPath id="clip0_736_3903">
<rect width="57" height="57" fill="white"/>
</clipPath>
</defs>
</svg>
