<svg width="303" height="17" viewBox="0 0 303 17" fill="none" xmlns="http://www.w3.org/2000/svg">
<path d="M109.41 12.0788C108.683 12.0788 108.011 11.91 107.396 11.5725C106.789 11.2275 106.305 10.7512 105.945 10.1437C105.593 9.52875 105.416 8.83875 105.416 8.07375C105.416 7.30875 105.593 6.6225 105.945 6.015C106.305 5.4075 106.789 4.935 107.396 4.5975C108.011 4.2525 108.683 4.08 109.41 4.08C110.145 4.08 110.816 4.2525 111.424 4.5975C112.039 4.935 112.523 5.4075 112.875 6.015C113.228 6.6225 113.404 7.30875 113.404 8.07375C113.404 8.83875 113.228 9.52875 112.875 10.1437C112.523 10.7512 112.039 11.2275 111.424 11.5725C110.816 11.91 110.145 12.0788 109.41 12.0788ZM109.41 10.965C109.928 10.965 110.389 10.8487 110.794 10.6162C111.199 10.3762 111.514 10.0387 111.739 9.60375C111.971 9.16125 112.088 8.65125 112.088 8.07375C112.088 7.49625 111.971 6.99 111.739 6.555C111.514 6.12 111.199 5.78625 110.794 5.55375C110.389 5.32125 109.928 5.205 109.41 5.205C108.893 5.205 108.431 5.32125 108.026 5.55375C107.621 5.78625 107.303 6.12 107.07 6.555C106.845 6.99 106.733 7.49625 106.733 8.07375C106.733 8.65125 106.845 9.16125 107.07 9.60375C107.303 10.0387 107.621 10.3762 108.026 10.6162C108.431 10.8487 108.893 10.965 109.41 10.965ZM115.948 6.70125C116.136 6.38625 116.383 6.1425 116.691 5.97C117.006 5.79 117.377 5.7 117.805 5.7V7.0275H117.478C116.976 7.0275 116.593 7.155 116.331 7.41C116.076 7.665 115.948 8.1075 115.948 8.7375V12H114.666V5.80125H115.948V6.70125ZM121.478 8.895C121.478 8.2575 121.606 7.69875 121.861 7.21875C122.123 6.73125 122.483 6.35625 122.941 6.09375C123.398 5.83125 123.923 5.7 124.516 5.7C125.266 5.7 125.885 5.88 126.372 6.24C126.867 6.5925 127.201 7.09875 127.373 7.75875H125.99C125.877 7.45125 125.697 7.21125 125.45 7.03875C125.202 6.86625 124.891 6.78 124.516 6.78C123.991 6.78 123.571 6.9675 123.256 7.3425C122.948 7.71 122.795 8.2275 122.795 8.895C122.795 9.5625 122.948 10.0837 123.256 10.4587C123.571 10.8337 123.991 11.0212 124.516 11.0212C125.258 11.0212 125.75 10.695 125.99 10.0425H127.373C127.193 10.6725 126.856 11.175 126.361 11.55C125.866 11.9175 125.251 12.1013 124.516 12.1013C123.923 12.1013 123.398 11.97 122.941 11.7075C122.483 11.4375 122.123 11.0625 121.861 10.5825C121.606 10.095 121.478 9.5325 121.478 8.895ZM131.34 12.1013C130.755 12.1013 130.226 11.97 129.754 11.7075C129.281 11.4375 128.91 11.0625 128.64 10.5825C128.37 10.095 128.235 9.5325 128.235 8.895C128.235 8.265 128.374 7.70625 128.651 7.21875C128.929 6.73125 129.308 6.35625 129.788 6.09375C130.268 5.83125 130.804 5.7 131.396 5.7C131.989 5.7 132.525 5.83125 133.005 6.09375C133.485 6.35625 133.864 6.73125 134.141 7.21875C134.419 7.70625 134.558 8.265 134.558 8.895C134.558 9.525 134.415 10.0837 134.13 10.5712C133.845 11.0587 133.455 11.4375 132.96 11.7075C132.473 11.97 131.933 12.1013 131.34 12.1013ZM131.34 10.9875C131.67 10.9875 131.978 10.9087 132.263 10.7512C132.555 10.5937 132.791 10.3575 132.971 10.0425C133.151 9.7275 133.241 9.345 133.241 8.895C133.241 8.445 133.155 8.06625 132.983 7.75875C132.81 7.44375 132.581 7.2075 132.296 7.05C132.011 6.8925 131.704 6.81375 131.374 6.81375C131.044 6.81375 130.736 6.8925 130.451 7.05C130.174 7.2075 129.953 7.44375 129.788 7.75875C129.623 8.06625 129.54 8.445 129.54 8.895C129.54 9.5625 129.709 10.08 130.046 10.4475C130.391 10.8075 130.823 10.9875 131.34 10.9875ZM138.953 5.7C139.44 5.7 139.875 5.80125 140.258 6.00375C140.648 6.20625 140.952 6.50625 141.169 6.90375C141.387 7.30125 141.495 7.78125 141.495 8.34375V12H140.224V8.535C140.224 7.98 140.085 7.55625 139.808 7.26375C139.53 6.96375 139.152 6.81375 138.672 6.81375C138.192 6.81375 137.809 6.96375 137.524 7.26375C137.247 7.55625 137.108 7.98 137.108 8.535V12H135.825V5.80125H137.108V6.51C137.318 6.255 137.584 6.05625 137.907 5.91375C138.237 5.77125 138.585 5.7 138.953 5.7ZM144.628 6.8475V10.2787C144.628 10.5112 144.68 10.68 144.785 10.785C144.898 10.8825 145.085 10.9312 145.348 10.9312H146.135V12H145.123C144.545 12 144.103 11.865 143.795 11.595C143.488 11.325 143.334 10.8862 143.334 10.2787V6.8475H142.603V5.80125H143.334V4.26H144.628V5.80125H146.135V6.8475H144.628ZM147.97 4.98C147.737 4.98 147.542 4.90125 147.385 4.74375C147.227 4.58625 147.148 4.39125 147.148 4.15875C147.148 3.92625 147.227 3.73125 147.385 3.57375C147.542 3.41625 147.737 3.3375 147.97 3.3375C148.195 3.3375 148.386 3.41625 148.543 3.57375C148.701 3.73125 148.78 3.92625 148.78 4.15875C148.78 4.39125 148.701 4.58625 148.543 4.74375C148.386 4.90125 148.195 4.98 147.97 4.98ZM148.6 5.80125V12H147.317V5.80125H148.6ZM153.411 5.7C153.898 5.7 154.333 5.80125 154.716 6.00375C155.106 6.20625 155.41 6.50625 155.627 6.90375C155.845 7.30125 155.953 7.78125 155.953 8.34375V12H154.682V8.535C154.682 7.98 154.543 7.55625 154.266 7.26375C153.988 6.96375 153.61 6.81375 153.13 6.81375C152.65 6.81375 152.267 6.96375 151.982 7.26375C151.705 7.55625 151.566 7.98 151.566 8.535V12H150.283V5.80125H151.566V6.51C151.776 6.255 152.042 6.05625 152.365 5.91375C152.695 5.77125 153.043 5.7 153.411 5.7ZM163.203 5.80125V12H161.921V11.2687C161.718 11.5237 161.452 11.7262 161.122 11.8762C160.799 12.0187 160.454 12.09 160.087 12.09C159.599 12.09 159.161 11.9887 158.771 11.7862C158.388 11.5837 158.084 11.2837 157.859 10.8862C157.642 10.4887 157.533 10.0087 157.533 9.44625V5.80125H158.804V9.255C158.804 9.81 158.943 10.2375 159.221 10.5375C159.498 10.83 159.877 10.9762 160.357 10.9762C160.837 10.9762 161.216 10.83 161.493 10.5375C161.778 10.2375 161.921 9.81 161.921 9.255V5.80125H163.203ZM170.577 8.74875C170.577 8.98125 170.562 9.19125 170.532 9.37875H165.795C165.833 9.87375 166.017 10.2712 166.347 10.5712C166.677 10.8712 167.082 11.0212 167.562 11.0212C168.252 11.0212 168.739 10.7325 169.024 10.155H170.408C170.22 10.725 169.879 11.1937 169.384 11.5612C168.897 11.9213 168.289 12.1013 167.562 12.1013C166.969 12.1013 166.437 11.97 165.964 11.7075C165.499 11.4375 165.132 11.0625 164.862 10.5825C164.599 10.095 164.468 9.5325 164.468 8.895C164.468 8.2575 164.595 7.69875 164.85 7.21875C165.113 6.73125 165.477 6.35625 165.942 6.09375C166.414 5.83125 166.954 5.7 167.562 5.7C168.147 5.7 168.668 5.8275 169.125 6.0825C169.583 6.3375 169.939 6.6975 170.194 7.1625C170.449 7.62 170.577 8.14875 170.577 8.74875ZM169.238 8.34375C169.23 7.87125 169.062 7.4925 168.732 7.2075C168.402 6.9225 167.993 6.78 167.505 6.78C167.063 6.78 166.684 6.9225 166.369 7.2075C166.054 7.485 165.867 7.86375 165.807 8.34375H169.238ZM183.086 5.80125L181.162 12H179.812L178.563 7.42125L177.315 12H175.965L174.03 5.80125H175.335L176.628 10.785L177.945 5.80125H179.283L180.543 10.7625L181.826 5.80125H183.086ZM184.697 4.98C184.464 4.98 184.269 4.90125 184.112 4.74375C183.954 4.58625 183.876 4.39125 183.876 4.15875C183.876 3.92625 183.954 3.73125 184.112 3.57375C184.269 3.41625 184.464 3.3375 184.697 3.3375C184.922 3.3375 185.113 3.41625 185.271 3.57375C185.428 3.73125 185.507 3.92625 185.507 4.15875C185.507 4.39125 185.428 4.58625 185.271 4.74375C185.113 4.90125 184.922 4.98 184.697 4.98ZM185.327 5.80125V12H184.044V5.80125H185.327ZM188.507 6.8475V10.2787C188.507 10.5112 188.559 10.68 188.664 10.785C188.777 10.8825 188.964 10.9312 189.227 10.9312H190.014V12H189.002C188.424 12 187.982 11.865 187.674 11.595C187.367 11.325 187.213 10.8862 187.213 10.2787V6.8475H186.482V5.80125H187.213V4.26H188.507V5.80125H190.014V6.8475H188.507ZM194.403 5.7C194.875 5.7 195.295 5.80125 195.663 6.00375C196.038 6.20625 196.33 6.50625 196.54 6.90375C196.758 7.30125 196.867 7.78125 196.867 8.34375V12H195.595V8.535C195.595 7.98 195.457 7.55625 195.179 7.26375C194.902 6.96375 194.523 6.81375 194.043 6.81375C193.563 6.81375 193.18 6.96375 192.895 7.26375C192.618 7.55625 192.479 7.98 192.479 8.535V12H191.197V3.675H192.479V6.52125C192.697 6.25875 192.97 6.05625 193.3 5.91375C193.638 5.77125 194.005 5.7 194.403 5.7Z" fill="#B6B6B6"/>
<path d="M0 8.5L98 8V9L0 8.5Z" fill="url(#paint0_linear_301_521)" fill-opacity="0.75"/>
<path d="M205 8L303 8.5L205 9V8Z" fill="url(#paint1_linear_301_521)" fill-opacity="0.75"/>
<defs>
<linearGradient id="paint0_linear_301_521" x1="98" y1="9.00019" x2="5.5" y2="9.00013" gradientUnits="userSpaceOnUse">
<stop stop-color="#D9D9D9"/>
<stop offset="1" stop-color="#D9D9D9" stop-opacity="0"/>
</linearGradient>
<linearGradient id="paint1_linear_301_521" x1="205" y1="9.00005" x2="308.5" y2="7.99999" gradientUnits="userSpaceOnUse">
<stop stop-color="#D9D9D9"/>
<stop offset="1" stop-color="#D9D9D9" stop-opacity="0"/>
</linearGradient>
</defs>
</svg>
