<svg width="72" height="72" viewBox="0 0 72 72" fill="none" xmlns="http://www.w3.org/2000/svg">
<path d="M12.347 56.5534H21.0866V35.3649L8.58691 26.0664V52.8441C8.58691 54.8766 10.2637 56.5534 12.347 56.5534Z" fill="#4285F4"/>
<path d="M50.9639 56.5534H59.7035C61.7867 56.5534 63.4635 54.8766 63.4635 52.7933V26.0664L51.0147 35.4157V56.5534H50.9639Z" fill="#34A853"/>
<path d="M50.9644 19.2077V35.4166L63.4132 26.0673V21.0878C63.4132 16.4639 58.1288 13.8217 54.4195 16.6164L50.9644 19.2077Z" fill="#FBBC04"/>
<path fill-rule="evenodd" clip-rule="evenodd" d="M21.0356 35.3641V19.2061L35.9742 30.4354L50.9128 19.2061V35.4149L36.0251 46.5935L21.0356 35.3641Z" fill="#EA4335"/>
<path d="M8.5874 21.0355V26.015L21.0362 35.3643V19.2063L17.5302 16.5641C13.8718 13.8202 8.5874 16.4624 8.5874 21.0355Z" fill="#C5221F"/>
</svg>
