<svg width="26" height="18" viewBox="0 0 26 18" fill="none" xmlns="http://www.w3.org/2000/svg">
<g clip-path="url(#clip0_647_887)">
<path d="M0 0.333984H26V17.6675H0V0.333984Z" fill="#F0F0F0"/>
<path d="M14.625 0.333008H11.375V7.37464H0V10.6246H11.375V17.6663H14.625V10.6246H26V7.37464H14.625V0.333008Z" fill="#D80027"/>
<path d="M19.997 12.0137L26.0001 15.3488V12.0137H19.997ZM15.8262 12.0137L26.0001 17.6658V16.0675L18.7032 12.0137H15.8262ZM23.2901 17.6658L15.8262 13.5188V17.6658H23.2901Z" fill="#0052B4"/>
<path d="M15.8262 12.0137L26.0001 17.6658V16.0675L18.7032 12.0137H15.8262Z" fill="#F0F0F0"/>
<path d="M15.8262 12.0137L26.0001 17.6658V16.0675L18.7032 12.0137H15.8262Z" fill="#D80027"/>
<path d="M4.58763 12.0137L0 14.5624V12.0137H4.58763ZM10.1739 12.7324V17.6659H1.29446L10.1739 12.7324Z" fill="#0052B4"/>
<path d="M7.29691 12.0137L0 16.0675V17.6658L10.1739 12.0137H7.29691Z" fill="#D80027"/>
<path d="M6.00311 5.98516L0 2.65005V5.98516H6.00311ZM10.1739 5.98516L0 0.333008V1.9313L7.29691 5.98516H10.1739ZM2.70999 0.333008L10.1739 4.48001V0.333008H2.70999Z" fill="#0052B4"/>
<path d="M10.1739 5.98516L0 0.333008V1.9313L7.29691 5.98516H10.1739Z" fill="#F0F0F0"/>
<path d="M10.1739 5.98516L0 0.333008V1.9313L7.29691 5.98516H10.1739Z" fill="#D80027"/>
<path d="M21.4125 5.98522L26.0001 3.4365V5.98522H21.4125ZM15.8262 5.26646V0.333008H24.7056L15.8262 5.26646Z" fill="#0052B4"/>
<path d="M18.7032 5.98516L26.0001 1.9313V0.333008L15.8262 5.98516H18.7032Z" fill="#D80027"/>
</g>
<defs>
<clipPath id="clip0_647_887">
<rect width="26" height="18" fill="white"/>
</clipPath>
</defs>
</svg>
