<svg width="29" height="29" viewBox="0 0 29 29" fill="none" xmlns="http://www.w3.org/2000/svg">
<g clip-path="url(#clip0_651_989)">
<path d="M0 4.83398H29V24.1669H0V4.83398Z" fill="#F0F0F0"/>
<path d="M0 4.83398H29V11.2783H0V4.83398ZM0 17.7226H29V24.1669H0V17.7226Z" fill="#D80027"/>
<path d="M16.6519 14.4995C16.6519 15.688 15.6884 16.3825 14.5 16.3825C13.3115 16.3825 12.3481 15.688 12.3481 14.4995C12.3481 13.3111 13.3116 12.3477 14.5 12.3477C15.6885 12.3477 16.6519 13.3111 16.6519 14.4995Z" fill="#FFDA44"/>
<path d="M16.6519 14.5C16.6519 15.6884 15.6885 16.6519 14.5 16.6519C13.3116 16.6519 12.3481 15.6884 12.3481 14.5" fill="#0052B4"/>
<path d="M13.1553 13.9622H13.6932V15.0384H13.1553V13.9622ZM15.3069 13.9622H15.8449V15.0384H15.3069V13.9622ZM14.2308 13.1553H14.7687V15.0382H14.2308V13.1553Z" fill="#D80027"/>
<path d="M0 4.83301H29V24.1665H0V4.83301Z" fill="#F0F0F0"/>
<path d="M0 4.83301H9.66646V24.1665H0V4.83301Z" fill="#0052B4"/>
<path d="M19.3335 4.83301H29V24.1665H19.3335V4.83301Z" fill="#D80027"/>
</g>
<defs>
<clipPath id="clip0_651_989">
<rect width="29" height="29" fill="white"/>
</clipPath>
</defs>
</svg>
