<svg width="53" height="45" viewBox="0 0 53 45" fill="none" xmlns="http://www.w3.org/2000/svg">
<rect opacity="0.15" x="0.318359" width="52.4102" height="45" rx="11.8868" fill="#5669FF"/>
<rect x="9.00012" y="7.10547" width="35.8596" height="30.7895" rx="10.1887" fill="white"/>
<g clip-path="url(#clip0_418_2668)">
<path d="M32.1246 21.25C32.1246 25.625 26.4996 29.375 26.4996 29.375C26.4996 29.375 20.8746 25.625 20.8746 21.25C20.8746 19.7582 21.4673 18.3274 22.5222 17.2725C23.5771 16.2176 25.0078 15.625 26.4996 15.625C27.9915 15.625 29.4222 16.2176 30.4771 17.2725C31.532 18.3274 32.1246 19.7582 32.1246 21.25Z" stroke="#1CAE81" stroke-width="1.69811" stroke-linecap="round" stroke-linejoin="round"/>
<path d="M26.4995 23.125C27.535 23.125 28.3745 22.2855 28.3745 21.25C28.3745 20.2145 27.535 19.375 26.4995 19.375C25.464 19.375 24.6245 20.2145 24.6245 21.25C24.6245 22.2855 25.464 23.125 26.4995 23.125Z" stroke="#1CAE81" stroke-width="1.69811" stroke-linecap="round" stroke-linejoin="round"/>
</g>
<defs>
<clipPath id="clip0_418_2668">
<rect width="15" height="15" fill="white" transform="translate(18.9996 15)"/>
</clipPath>
</defs>
</svg>
