<svg width="38" height="38" viewBox="0 0 38 38" fill="none" xmlns="http://www.w3.org/2000/svg">
<g clip-path="url(#clip0_988_878)">
<path d="M19 38C29.4934 38 38 29.4935 38 19C38 8.50664 29.4934 0 19 0C8.50659 0 0 8.50664 0 19C0 29.4935 8.50659 38 19 38Z" fill="#1CAE81"/>
<path d="M7.56 7C6.70408 7 6 7.7797 6 8.725C6 9.6703 6.70408 10.45 7.56 10.45C7.80581 10.4486 8.04783 10.3829 8.26633 10.2584C8.48484 10.1339 8.67365 9.95406 8.81736 9.73355L8.7508 9.90375L10.6582 10.8157L11.0721 9.7623L9.16264 8.84575L9.09192 9.0286C9.10752 8.9297 9.12 8.8285 9.12 8.725C9.12 7.7797 8.41592 7 7.56 7ZM7.56 8.15C7.85328 8.15 8.08 8.4007 8.08 8.725C8.08 9.0493 7.85328 9.3 7.56 9.3C7.49144 9.30108 7.42338 9.28695 7.35985 9.25844C7.29632 9.22993 7.2386 9.18761 7.19012 9.134C7.14164 9.08039 7.10337 9.01657 7.07758 8.94632C7.0518 8.87607 7.03902 8.80081 7.04 8.725C7.04 8.4007 7.26672 8.15 7.56 8.15ZM19.52 8.725C17.2382 8.725 15.36 10.7226 15.36 13.1927C15.36 13.9092 15.6294 14.6314 15.9892 15.3777C16.3501 16.1252 16.8191 16.8842 17.284 17.5719C17.3651 17.6927 17.4265 17.7628 17.5066 17.8778C17.1374 18.1021 16.8389 18.393 16.6392 18.7495C16.5012 18.9964 16.4221 19.2779 16.4093 19.5677C16.3966 19.8576 16.4506 20.1463 16.5664 20.4067C17.0531 21.4762 18.272 21.9661 19.5751 21.95C20.7867 21.9351 21.9037 21.4774 22.4018 20.5309L22.2968 20.8414L23.2817 21.2473L23.4928 21.835L24.46 21.406L24.1636 20.5861L24.0783 20.3503L23.8599 20.2606L22.6639 19.765L22.6192 19.8915C22.6705 19.46 22.5753 19.0228 22.3519 18.6644C22.1533 18.3459 21.8694 18.0894 21.5303 17.8825C21.6125 17.7652 21.6738 17.6938 21.756 17.5719C22.2209 16.8842 22.6899 16.1241 23.0508 15.3777C23.4106 14.6314 23.68 13.9092 23.68 13.1927C23.68 10.7226 21.8018 8.725 19.52 8.725ZM19.52 9.875C21.2589 9.875 22.64 11.3643 22.64 13.1927C22.64 13.5504 22.4538 14.168 22.1325 14.8338C21.8101 15.5008 21.3691 16.2253 20.924 16.8831C20.2241 17.9181 19.7883 18.4241 19.52 18.7518C19.2527 18.4253 18.817 17.9181 18.116 16.8831C17.6689 16.2336 17.265 15.5491 16.9075 14.8349C16.5851 14.1679 16.4 13.5504 16.4 13.1927C16.4 11.3643 17.7811 9.875 19.52 9.875ZM12.0081 10.7536L11.1407 11.3884L12.2951 13.302L13.1625 12.6672L12.0081 10.7536ZM19.52 11.3194C18.6641 11.3194 17.96 12.0979 17.96 13.0444C17.96 13.9897 18.6641 14.7694 19.52 14.7694C20.3759 14.7694 21.08 13.9897 21.08 13.0444C21.08 12.0979 20.3759 11.3194 19.52 11.3194ZM19.52 12.4694C19.8133 12.4694 20.04 12.7201 20.04 13.0444C20.04 13.3687 19.8133 13.6194 19.52 13.6194C19.4514 13.6205 19.3834 13.6064 19.3198 13.5778C19.2563 13.5493 19.1986 13.507 19.1501 13.4534C19.1016 13.3998 19.0634 13.336 19.0376 13.2657C19.0118 13.1955 18.999 13.1202 19 13.0444C19 12.7201 19.2267 12.4694 19.52 12.4694ZM13.7376 13.6217L12.8713 14.2599L14.0257 16.1735L14.893 15.5353L13.7376 13.6217ZM15.4682 16.4921L14.6018 17.1304L14.9274 17.6686L15.021 17.8238L15.177 17.8893L16.5768 18.4689L16.9418 17.3902L15.699 16.8785L15.4682 16.4921ZM18.1826 18.8059C18.7098 19.5028 19.1383 20.041 19.1383 20.041C19.187 20.0988 19.2459 20.1449 19.3114 20.1764C19.3769 20.208 19.4475 20.2242 19.519 20.2242C19.5904 20.2242 19.661 20.208 19.7265 20.1764C19.792 20.1449 19.8509 20.0988 19.8996 20.041C19.8996 20.041 20.327 19.5051 20.8522 18.8105C21.157 18.9658 21.3889 19.1486 21.4939 19.3165C21.6229 19.5235 21.6374 19.6581 21.5594 19.857C21.4034 20.2549 20.5891 20.7873 19.5626 20.8C18.5372 20.8115 17.6802 20.2997 17.4951 19.8903C17.4015 19.6856 17.4119 19.5534 17.5253 19.351C17.6241 19.1739 17.855 18.9715 18.1836 18.8059H18.1826ZM24.8458 22.4756L23.8807 22.901L24.6534 25.0389L25.6175 24.6088L24.8458 22.4756ZM26.0034 25.6783L25.0393 26.1038L25.2785 26.7639L25.3575 26.9881L25.5593 27.0802L26.8874 27.6908L27.2878 26.6305L26.1604 26.113L26.0044 25.6783H26.0034ZM30.44 26.55C30.1608 26.552 29.8872 26.6368 29.6477 26.7956C29.4083 26.9544 29.2117 27.1813 29.0786 27.4527L28.2487 27.0709L27.8483 28.1336L28.9122 28.6234C28.9865 29.0113 29.1786 29.3593 29.4565 29.6097C29.7345 29.8601 30.0815 29.9978 30.44 30C31.2959 30 32 29.2203 32 28.275C32 27.3297 31.2959 26.55 30.44 26.55ZM30.44 27.7C30.7333 27.7 30.96 27.9507 30.96 28.275C30.96 28.5993 30.7333 28.85 30.44 28.85C30.3714 28.8511 30.3034 28.837 30.2398 28.8084C30.1763 28.7799 30.1186 28.7376 30.0701 28.684C30.0216 28.6304 29.9834 28.5666 29.9576 28.4963C29.9318 28.4261 29.919 28.3508 29.92 28.275C29.92 27.9507 30.1467 27.7 30.44 27.7Z" fill="white"/>
</g>
<defs>
<clipPath id="clip0_988_878">
<rect width="38" height="38" fill="white"/>
</clipPath>
</defs>
</svg>
