<svg width="392" height="392" viewBox="0 0 392 392" fill="none" xmlns="http://www.w3.org/2000/svg">
<g clip-path="url(#clip0_988_1218)">
<mask id="mask0_988_1218" style="mask-type:luminance" maskUnits="userSpaceOnUse" x="0" y="0" width="392" height="392">
<path d="M392 0H0V392H392V0Z" fill="white"/>
</mask>
<g mask="url(#mask0_988_1218)">
<path d="M193.901 73.6601C259.374 73.6601 312.533 126.819 312.533 192.292C312.533 257.766 259.374 310.925 193.901 310.925C128.428 310.925 75.2686 257.766 75.2686 192.292C75.2686 126.819 128.428 73.6601 193.901 73.6601Z" fill="url(#paint0_linear_988_1218)"/>
<mask id="mask1_988_1218" style="mask-type:luminance" maskUnits="userSpaceOnUse" x="0" y="0" width="392" height="392">
<path d="M0 0H392V392H0V0Z" fill="white"/>
</mask>
<g mask="url(#mask1_988_1218)">
<path d="M244.581 166.939C243.477 169.049 243.65 172.265 244.956 174.087C244.956 174.087 249.112 179.857 260.166 174.159C271.227 168.461 268.37 160.631 266.264 160.088L254.148 156.967C252.049 156.423 249.424 157.706 248.313 159.816L244.581 166.939Z" fill="#FAD8C0"/>
<path d="M252.928 190.704C251.821 192.814 251.989 196.029 253.303 197.851C253.303 197.851 256.762 202.666 266.66 197.567C276.558 192.468 273.824 185.418 271.715 184.874L261.681 182.289C259.575 181.746 256.942 177.952 255.839 180.062L252.928 190.704Z" fill="#FAD8C0"/>
<path d="M248.684 211.597C247.581 213.705 247.745 216.921 249.059 218.743C249.059 218.743 251.805 222.558 260.482 218.088C269.165 213.617 266.548 207.375 264.442 206.832L256.586 204.81C254.48 204.268 251.853 205.547 250.75 207.659L248.684 211.597Z" fill="#FAD8C0"/>
<path d="M217.632 194.964C217.632 194.964 211.857 273.447 180.665 292.932C160.214 305.709 169.141 275 169.141 275L165.608 198.808L217.632 194.964Z" fill="#FAD8C0"/>
<path d="M132.41 277.643L137.114 187.891C137.493 181.851 140.738 172.92 144.322 168.043L161.369 131.345C164.953 126.468 175.223 123.054 180.665 120.406L190.983 123.183C196.429 120.536 200.565 123.313 200.181 129.353L197.948 164.369C197.56 170.409 195.194 179.857 192.689 185.368L180.665 211.793C178.16 217.303 175.639 226.741 175.067 232.767L173.069 253.828C172.494 259.852 167.187 265.827 161.269 267.104L132.41 277.643Z" fill="#FAD8C0"/>
<path d="M257.237 234.05C257.237 240.625 252.596 246.008 246.918 246.008H185.508C179.834 246.008 175.187 240.625 175.187 234.05V107.927C175.187 101.349 179.834 95.9667 185.508 95.9667H246.918C252.596 95.9667 257.237 101.349 257.237 107.927V234.05Z" fill="#1CAE81"/>
<g opacity="0.2">
<path d="M246.918 95.9667H210.535L215.354 111.453H250.458V170.405L257.237 192.192V107.927C257.237 101.349 252.596 95.9667 246.918 95.9667Z" fill="white"/>
</g>
<path d="M250.458 111.453V230.521H181.968V111.453H250.458Z" fill="white"/>
<path d="M228.453 101.793C228.453 102.832 227.726 103.675 226.826 103.675H207.714C206.815 103.675 206.088 102.832 206.088 101.793C206.088 100.752 206.815 99.9086 207.714 99.9086H226.826C227.726 99.9086 228.453 100.752 228.453 101.793Z" fill="white"/>
<mask id="mask2_988_1218" style="mask-type:alpha" maskUnits="userSpaceOnUse" x="181" y="111" width="70" height="120">
<path d="M250.458 111.453V230.521H181.968V111.453H250.458Z" fill="white"/>
</mask>
<g mask="url(#mask2_988_1218)">
<mask id="mask3_988_1218" style="mask-type:luminance" maskUnits="userSpaceOnUse" x="-1" y="0" width="393" height="392">
<path d="M-0.000244141 -7.62939e-06H392V392H-0.000244141V-7.62939e-06Z" fill="white"/>
</mask>
<g mask="url(#mask3_988_1218)">
<g opacity="0.979372">
<path d="M197.589 225.289H189.3C186.969 225.289 185.079 223.4 185.079 221.069C185.079 218.737 186.969 216.848 189.3 216.848H197.589C199.92 216.848 201.81 218.737 201.81 221.069C201.81 223.4 199.92 225.289 197.589 225.289Z" fill="#1CAE81"/>
<path d="M220.383 225.289H212.094C209.763 225.289 207.873 223.4 207.873 221.069C207.873 218.737 209.763 216.848 212.094 216.848H220.383C222.714 216.848 224.604 218.737 224.604 221.069C224.604 223.4 222.714 225.289 220.383 225.289Z" fill="#1CAE81"/>
<path d="M243.176 225.289H234.888C232.557 225.289 230.667 223.4 230.667 221.069C230.667 218.737 232.557 216.848 234.888 216.848H243.176C245.507 216.848 247.397 218.737 247.397 221.069C247.397 223.4 245.507 225.289 243.176 225.289Z" fill="#1CAE81"/>
</g>
<g opacity="0.993993">
<path d="M197.589 208.586H189.3C186.969 208.586 185.079 206.697 185.079 204.366C185.079 202.034 186.969 200.145 189.3 200.145H197.589C199.92 200.145 201.81 202.034 201.81 204.366C201.81 206.697 199.92 208.586 197.589 208.586Z" fill="#1CAE81"/>
<path d="M220.383 208.586H212.094C209.763 208.586 207.873 206.697 207.873 204.366C207.873 202.034 209.763 200.145 212.094 200.145H220.383C222.714 200.145 224.604 202.034 224.604 204.366C224.604 206.697 222.714 208.586 220.383 208.586Z" fill="#1CAE81"/>
<path d="M243.176 208.586H234.888C232.557 208.586 230.667 206.697 230.667 204.366C230.667 202.034 232.557 200.145 234.888 200.145H243.176C245.507 200.145 247.397 202.034 247.397 204.366C247.397 206.697 245.507 208.586 243.176 208.586Z" fill="#1CAE81"/>
</g>
<g opacity="0.999729">
<path d="M197.589 193.9H189.3C186.969 193.9 185.079 192.011 185.079 189.68C185.079 187.349 186.969 185.459 189.3 185.459H197.589C199.92 185.459 201.81 187.349 201.81 189.68C201.81 192.011 199.92 193.9 197.589 193.9Z" fill="#1CAE81"/>
<path d="M220.383 193.9H212.094C209.763 193.9 207.873 192.011 207.873 189.68C207.873 187.349 209.763 185.459 212.094 185.459H220.383C222.714 185.459 224.604 187.349 224.604 189.68C224.604 192.011 222.714 193.9 220.383 193.9Z" fill="#1CAE81"/>
<path d="M243.176 193.9H234.888C232.557 193.9 230.667 192.011 230.667 189.68C230.667 187.349 232.557 185.459 234.888 185.459H243.176C245.507 185.459 247.397 187.349 247.397 189.68C247.397 192.011 245.507 193.9 243.176 193.9Z" fill="#1CAE81"/>
</g>
<g opacity="0.999997">
<path d="M197.589 179.429H189.3C186.969 179.429 185.079 177.539 185.079 175.208C185.079 172.877 186.969 170.987 189.3 170.987H197.589C199.92 170.987 201.81 172.877 201.81 175.208C201.81 177.539 199.92 179.429 197.589 179.429Z" fill="#1CAE81"/>
<path d="M220.383 179.429H212.094C209.763 179.429 207.873 177.539 207.873 175.208C207.873 172.877 209.763 170.987 212.094 170.987H220.383C222.714 170.987 224.604 172.877 224.604 175.208C224.604 177.539 222.714 179.429 220.383 179.429Z" fill="#1CAE81"/>
<path d="M243.176 179.429H234.888C232.557 179.429 230.667 177.539 230.667 175.208C230.667 172.877 232.557 170.987 234.888 170.987H243.176C245.507 170.987 247.397 172.877 247.397 175.208C247.397 177.539 245.507 179.429 243.176 179.429Z" fill="#1CAE81"/>
</g>
<path d="M211.27 133.3C211.27 132.441 211.264 131.618 211.271 130.794C211.298 128.005 212.941 125.655 215.47 124.778C219.652 123.329 223.861 126.226 223.987 130.647C224.011 131.52 223.99 132.393 223.99 133.28C224.28 133.32 224.555 133.342 224.822 133.398C226.584 133.774 227.786 135.22 227.801 137.069C227.825 140.078 227.831 143.087 227.799 146.096C227.775 148.249 226.16 149.823 224.008 149.83C219.757 149.843 215.506 149.844 211.255 149.83C209.104 149.823 207.487 148.245 207.465 146.094C207.433 143.085 207.436 140.076 207.463 137.067C207.482 134.987 208.991 133.446 211.062 133.314C211.12 133.311 211.178 133.306 211.27 133.3ZM213.863 133.288C216.379 133.288 218.904 133.288 221.439 133.288C221.439 132.343 221.476 131.42 221.432 130.499C221.34 128.518 219.775 127.032 217.752 126.953C215.795 126.876 214.095 128.238 213.883 130.174C213.771 131.193 213.863 132.233 213.863 133.288ZM216.365 142.737C216.365 142.985 216.36 143.233 216.365 143.481C216.383 144.266 216.871 144.752 217.634 144.751C218.397 144.751 218.884 144.264 218.897 143.477C218.906 142.971 218.888 142.464 218.908 141.958C218.913 141.817 218.977 141.65 219.069 141.544C219.7 140.818 219.7 139.741 219.053 139.047C218.323 138.263 217.337 138.173 216.486 138.813C215.671 139.427 215.449 140.425 216.038 141.258C216.323 141.661 216.389 142.05 216.365 142.499C216.36 142.578 216.364 142.657 216.365 142.737Z" fill="#1CAE81"/>
<g opacity="0.999997">
<path d="M234.045 162.335H200.416C199.458 162.335 198.681 161.558 198.681 160.6V148.657C198.681 147.699 199.458 146.922 200.416 146.922H234.045C235.003 146.922 235.779 147.699 235.779 148.657V160.6C235.779 161.558 235.003 162.335 234.045 162.335Z" fill="#58C58E"/>
<path d="M208.291 153.593C208.434 154.052 208.296 154.333 207.878 154.435L206.315 154.818C206.52 155.063 206.872 155.482 207.372 156.074C207.526 156.247 207.602 156.38 207.602 156.472C207.602 156.594 207.464 156.753 207.188 156.946C206.964 157.11 206.795 157.191 206.683 157.191C206.55 157.191 206.417 157.079 206.285 156.854C206.081 156.538 205.795 156.079 205.428 155.476C205.254 155.742 204.963 156.201 204.555 156.854C204.411 157.099 204.284 157.222 204.172 157.222C204.07 157.222 203.896 157.133 203.651 156.954C203.406 156.776 203.284 156.62 203.284 156.487C203.284 156.375 203.35 156.237 203.483 156.074C203.718 155.788 204.075 155.369 204.555 154.818C204.381 154.787 203.84 154.66 202.932 154.435C202.676 154.374 202.528 154.292 202.488 154.19C202.457 154.098 202.488 153.899 202.579 153.593C202.691 153.246 202.834 153.072 203.008 153.072C203.1 153.072 203.217 153.098 203.36 153.149C203.993 153.404 204.498 153.624 204.876 153.807C204.845 153.481 204.8 152.929 204.738 152.154C204.718 151.807 204.805 151.608 204.999 151.557C205.09 151.536 205.234 151.526 205.428 151.526C205.897 151.526 206.116 151.735 206.086 152.154C206.055 152.827 206.014 153.369 205.963 153.777C206.371 153.603 206.887 153.394 207.51 153.149C207.673 153.088 207.796 153.057 207.878 153.057C208.041 153.057 208.178 153.236 208.291 153.593Z" fill="white"/>
<path d="M216.164 153.593C216.307 154.052 216.169 154.333 215.751 154.435L214.189 154.818C214.393 155.063 214.745 155.482 215.246 156.074C215.399 156.247 215.475 156.38 215.475 156.472C215.475 156.594 215.337 156.753 215.062 156.946C214.837 157.11 214.669 157.191 214.556 157.191C214.424 157.191 214.291 157.079 214.158 156.854C213.954 156.538 213.669 156.079 213.301 155.476C213.127 155.742 212.836 156.201 212.428 156.854C212.285 157.099 212.157 157.222 212.045 157.222C211.943 157.222 211.769 157.133 211.524 156.954C211.279 156.776 211.157 156.62 211.157 156.487C211.157 156.375 211.223 156.237 211.356 156.074C211.591 155.788 211.948 155.369 212.428 154.818C212.254 154.787 211.714 154.66 210.805 154.435C210.55 154.374 210.402 154.292 210.361 154.19C210.33 154.098 210.361 153.899 210.453 153.593C210.565 153.246 210.708 153.072 210.881 153.072C210.973 153.072 211.09 153.098 211.233 153.149C211.867 153.404 212.371 153.624 212.749 153.807C212.719 153.481 212.673 152.929 212.612 152.154C212.591 151.807 212.678 151.608 212.872 151.557C212.964 151.536 213.107 151.526 213.301 151.526C213.77 151.526 213.99 151.735 213.959 152.154C213.928 152.827 213.888 153.369 213.837 153.777C214.245 153.603 214.76 153.394 215.383 153.149C215.546 153.088 215.669 153.057 215.751 153.057C215.914 153.057 216.051 153.236 216.164 153.593Z" fill="white"/>
<path d="M224.037 153.593C224.18 154.052 224.043 154.333 223.624 154.435L222.062 154.818C222.266 155.063 222.619 155.482 223.119 156.074C223.272 156.247 223.349 156.38 223.349 156.472C223.349 156.594 223.211 156.753 222.935 156.946C222.71 157.11 222.542 157.191 222.43 157.191C222.297 157.191 222.164 157.079 222.031 156.854C221.827 156.538 221.542 156.079 221.174 155.476C221 155.742 220.709 156.201 220.301 156.854C220.158 157.099 220.031 157.222 219.919 157.222C219.817 157.222 219.643 157.133 219.398 156.954C219.153 156.776 219.03 156.62 219.03 156.487C219.03 156.375 219.097 156.237 219.229 156.074C219.464 155.788 219.821 155.369 220.301 154.818C220.127 154.787 219.587 154.66 218.678 154.435C218.423 154.374 218.275 154.292 218.234 154.19C218.204 154.098 218.234 153.899 218.326 153.593C218.438 153.246 218.581 153.072 218.755 153.072C218.846 153.072 218.964 153.098 219.107 153.149C219.74 153.404 220.245 153.624 220.623 153.807C220.592 153.481 220.546 152.929 220.485 152.154C220.464 151.807 220.551 151.608 220.745 151.557C220.837 151.536 220.98 151.526 221.174 151.526C221.643 151.526 221.863 151.735 221.832 152.154C221.802 152.827 221.761 153.369 221.71 153.777C222.118 153.603 222.634 153.394 223.256 153.149C223.419 153.088 223.542 153.057 223.624 153.057C223.787 153.057 223.925 153.236 224.037 153.593Z" fill="white"/>
<path d="M231.911 153.593C232.054 154.052 231.916 154.333 231.497 154.435L229.935 154.818C230.14 155.063 230.492 155.482 230.992 156.074C231.145 156.247 231.222 156.38 231.222 156.472C231.222 156.594 231.084 156.753 230.808 156.946C230.584 157.11 230.415 157.191 230.303 157.191C230.17 157.191 230.037 157.079 229.905 156.854C229.7 156.538 229.415 156.079 229.047 155.476C228.874 155.742 228.583 156.201 228.174 156.854C228.031 157.099 227.904 157.222 227.792 157.222C227.69 157.222 227.516 157.133 227.271 156.954C227.026 156.776 226.904 156.62 226.904 156.487C226.904 156.375 226.97 156.237 227.103 156.074C227.338 155.788 227.695 155.369 228.174 154.818C228.001 154.787 227.46 154.66 226.552 154.435C226.296 154.374 226.148 154.292 226.107 154.19C226.077 154.098 226.107 153.899 226.199 153.593C226.311 153.246 226.454 153.072 226.628 153.072C226.72 153.072 226.837 153.098 226.98 153.149C227.613 153.404 228.118 153.624 228.496 153.807C228.465 153.481 228.419 152.929 228.358 152.154C228.338 151.807 228.425 151.608 228.619 151.557C228.71 151.536 228.853 151.526 229.047 151.526C229.517 151.526 229.736 151.735 229.706 152.154C229.675 152.827 229.634 153.369 229.583 153.777C229.991 153.603 230.507 153.394 231.13 153.149C231.293 153.088 231.415 153.057 231.497 153.057C231.66 153.057 231.798 153.236 231.911 153.593Z" fill="white"/>
</g>
</g>
</g>
<path d="M211.678 172.421C211.674 172.401 211.662 172.383 211.658 172.365C211.57 172.079 211.462 171.804 211.318 171.544C211.286 171.478 211.234 171.424 211.194 171.36C211.066 171.154 210.939 170.948 210.779 170.763C210.683 170.655 210.563 170.567 210.459 170.467C210.327 170.345 210.207 170.213 210.063 170.105C209.879 169.969 209.668 169.863 209.46 169.754C209.364 169.704 209.28 169.638 209.18 169.594C208.861 169.45 208.517 169.336 208.149 169.256L202.072 167.936C201.556 167.824 200.977 167.682 200.373 167.528C200.285 167.506 200.197 167.484 200.11 167.46C199.49 167.3 198.847 167.126 198.188 166.938V166.943C195.834 166.275 193.324 165.468 191.562 164.787C191.562 164.787 182.056 161.121 178.907 162.755C167.67 168.591 147.595 189.983 147.595 189.983C145.521 192.187 143.12 196.366 142.257 199.265L125.75 254.657L100.887 298.287L143.567 330.012C146.236 325.749 148.69 321.908 150.396 319.429C155.139 312.542 174.04 297.957 179.295 293.969C179.795 293.685 180.266 293.354 180.665 292.932C180.665 292.932 183.335 290.129 186.012 271.264C192.433 226.076 173.541 208.54 173.541 208.54C171.319 206.48 170.724 202.638 172.206 200.001L179.187 187.614C180.67 184.977 184.346 183.118 187.347 183.484C187.347 183.484 199.574 184.972 205.045 181.444C210.547 177.892 211.486 175.536 211.486 175.536C211.502 175.496 211.506 175.458 211.518 175.418H211.522C211.534 175.382 211.538 175.348 211.55 175.312C211.658 175 211.745 174.691 211.794 174.385C211.794 174.379 211.794 174.375 211.794 174.369C211.894 173.692 211.854 173.032 211.678 172.421Z" fill="#FBDEC8"/>
<path d="M200.206 170.987C202.986 171.878 208.442 172.22 208.442 172.22C208.442 172.22 210.574 172.825 208.196 169.271C208.18 169.268 208.166 169.26 208.149 169.256L202.071 167.936C201.556 167.824 200.977 167.682 200.373 167.528C200.286 167.506 200.197 167.484 200.11 167.46C199.49 167.3 198.847 167.126 198.188 166.938V166.943C197.807 166.835 197.42 166.719 197.035 166.604C197.487 168.163 198.432 170.418 200.206 170.987Z" fill="#E8BEA1"/>
<path d="M169.895 306.9L149.01 334.465L94.5283 293.186L115.413 265.621L169.895 306.9Z" fill="#1CAE81"/>
</g>
<path d="M53.2752 223.859C56.9522 223.859 59.9377 226.845 59.9377 230.522C59.9377 234.198 56.9522 237.184 53.2752 237.184C49.5982 237.184 46.6128 234.198 46.6128 230.522C46.6128 226.845 49.5982 223.859 53.2752 223.859Z" fill="#1CAE81"/>
<path d="M332.393 256.844C336.611 256.844 340.036 260.269 340.036 264.487C340.036 268.705 336.611 272.13 332.393 272.13C328.175 272.13 324.75 268.705 324.75 264.487C324.75 260.269 328.175 256.844 332.393 256.844Z" stroke="#1CAE81" stroke-width="8" stroke-miterlimit="10"/>
<path d="M112.414 171.959L110.713 178.415C110.584 178.904 109.89 178.904 109.761 178.415L108.061 171.959C108.016 171.787 107.882 171.653 107.71 171.608L101.254 169.907C100.765 169.778 100.765 169.084 101.254 168.956L107.71 167.255C107.882 167.21 108.016 167.076 108.061 166.904L109.761 160.448C109.89 159.959 110.584 159.959 110.713 160.448L112.414 166.904C112.459 167.076 112.593 167.21 112.765 167.255L119.221 168.956C119.71 169.084 119.71 169.778 119.221 169.907L112.765 171.608C112.593 171.653 112.459 171.787 112.414 171.959Z" fill="#1CAE81"/>
<path d="M312.235 84.0628L309.268 95.327C309.043 96.1803 307.832 96.1803 307.607 95.327L304.64 84.0628C304.561 83.7637 304.328 83.5301 304.029 83.4513L292.765 80.4843C291.911 80.2597 291.911 79.0484 292.765 78.8238L304.029 75.8567C304.328 75.7779 304.561 75.5443 304.64 75.2452L307.607 63.9811C307.832 63.1277 309.043 63.1277 309.268 63.9811L312.235 75.2452C312.314 75.5443 312.547 75.7779 312.846 75.8567L324.11 78.8238C324.964 79.0484 324.964 80.2597 324.11 80.4843L312.846 83.4513C312.547 83.5301 312.314 83.7637 312.235 84.0628Z" fill="#1CAE81"/>
<path d="M126.659 53.3069C130.562 53.3069 133.73 56.4755 133.73 60.3782C133.73 64.2808 130.562 67.4495 126.659 67.4495C122.757 67.4495 119.588 64.2808 119.588 60.3782C119.588 56.4755 122.757 53.3069 126.659 53.3069Z" fill="#1CAE81"/>
</g>
</g>
<defs>
<linearGradient id="paint0_linear_988_1218" x1="109.71" y1="108.059" x2="277.482" y2="275.83" gradientUnits="userSpaceOnUse">
<stop stop-color="#F6F8FF"/>
<stop offset="0.5" stop-color="#EDEFFE"/>
<stop offset="1" stop-color="#E5E7FE"/>
</linearGradient>
<clipPath id="clip0_988_1218">
<rect width="392" height="392" fill="white"/>
</clipPath>
</defs>
</svg>
