<svg width="29" height="29" viewBox="0 0 29 29" fill="none" xmlns="http://www.w3.org/2000/svg">
<path d="M25.0246 23.3088L20.9163 19.2125C22.2418 17.5238 22.961 15.4385 22.9583 13.2917C22.9583 11.3798 22.3914 9.51083 21.3292 7.92116C20.267 6.33148 18.7573 5.09248 16.9909 4.36084C15.2246 3.62919 13.2809 3.43776 11.4058 3.81075C9.53065 4.18374 7.80821 5.1044 6.45631 6.45631C5.1044 7.80821 4.18374 9.53065 3.81075 11.4058C3.43776 13.2809 3.62919 15.2246 4.36084 16.9909C5.09248 18.7573 6.33148 20.267 7.92116 21.3292C9.51083 22.3914 11.3798 22.9583 13.2917 22.9583C15.4385 22.961 17.5238 22.2418 19.2125 20.9163L23.3088 25.0246C23.4211 25.1378 23.5547 25.2277 23.702 25.2891C23.8492 25.3504 24.0072 25.382 24.1667 25.382C24.3262 25.382 24.4841 25.3504 24.6314 25.2891C24.7786 25.2277 24.9123 25.1378 25.0246 25.0246C25.1378 24.9123 25.2277 24.7786 25.2891 24.6314C25.3504 24.4841 25.382 24.3262 25.382 24.1667C25.382 24.0072 25.3504 23.8492 25.2891 23.702C25.2277 23.5547 25.1378 23.4211 25.0246 23.3088ZM6.04167 13.2917C6.04167 11.8578 6.46688 10.456 7.26352 9.26379C8.06016 8.07153 9.19245 7.14228 10.5172 6.59354C11.842 6.04481 13.2997 5.90123 14.7061 6.18098C16.1124 6.46072 17.4043 7.15122 18.4182 8.16515C19.4321 9.17908 20.1226 10.4709 20.4024 11.8773C20.6821 13.2836 20.5385 14.7414 19.9898 16.0661C19.4411 17.3909 18.5118 18.5232 17.3196 19.3198C16.1273 20.1165 14.7256 20.5417 13.2917 20.5417C11.3689 20.5417 9.52479 19.7778 8.16515 18.4182C6.80551 17.0586 6.04167 15.2145 6.04167 13.2917Z" fill="#AEAEAE"/>
</svg>
