<svg width="57" height="57" viewBox="0 0 57 57" fill="none" xmlns="http://www.w3.org/2000/svg">
<path d="M44.9535 0H12.0467C5.39355 0 0 5.39344 0 12.0466V44.9534C0 51.6066 5.39355 57 12.0467 57H44.9535C51.6067 57 57 51.6066 57 44.9534V12.0466C57 5.39344 51.6067 0 44.9535 0Z" fill="url(#paint0_linear_782_4598)"/>
<path d="M16.5411 14.25C15.5913 14.2555 14.682 14.6429 14.0105 15.3279C13.3391 16.0128 12.9596 16.9401 12.9546 17.9086V32.5396C12.9546 34.5458 14.5407 36.2475 16.5411 36.1965H17.7371V42.75L19.7565 40.6928L24.1645 36.1965H40.4573C41.4071 36.1914 42.3165 35.8046 42.9883 35.1199C43.6601 34.4353 44.0401 33.5081 44.0455 32.5396V17.9086C44.0405 16.9398 43.6608 16.0122 42.9889 15.3272C42.3171 14.6422 41.4074 14.2551 40.4573 14.25H16.5411ZM18.4103 19.1281C18.4603 19.125 18.5105 19.125 18.5605 19.1281C18.684 19.1083 18.8097 19.1083 18.9332 19.1281H28.4999C28.6607 19.1219 28.8211 19.1488 28.9715 19.2073C29.1218 19.2657 29.259 19.3545 29.3749 19.4683C29.4908 19.5821 29.5831 19.7185 29.6461 19.8695C29.709 20.0204 29.7415 20.1827 29.7415 20.3468C29.7415 20.5108 29.709 20.6733 29.6461 20.8242C29.5831 20.9752 29.4908 21.1116 29.3749 21.2254C29.259 21.3392 29.1218 21.428 28.9715 21.4864C28.8211 21.5448 28.6607 21.5717 28.4999 21.5655H18.9332C18.7726 21.6111 18.6045 21.6228 18.4393 21.5999C18.2741 21.577 18.1153 21.52 17.9725 21.4323C17.8296 21.3446 17.7058 21.2281 17.6086 21.09C17.5114 20.9518 17.443 20.7949 17.4074 20.6289C17.3718 20.4628 17.3698 20.291 17.4015 20.1241C17.4332 19.9572 17.4979 19.7988 17.5918 19.6583C17.6856 19.5178 17.8067 19.3983 17.9474 19.3072C18.0881 19.216 18.2456 19.1551 18.4103 19.1281ZM18.4103 24.0028C18.4603 23.9996 18.5105 23.9996 18.5605 24.0028C18.684 23.9829 18.8097 23.9829 18.9332 24.0028H38.0669C38.3844 24.0028 38.6888 24.1314 38.9132 24.3603C39.1377 24.5891 39.2638 24.8995 39.2638 25.2232C39.2638 25.5469 39.1377 25.8574 38.9132 26.0862C38.6888 26.3151 38.3844 26.4437 38.0669 26.4437H18.9332C18.7734 26.4866 18.6067 26.4961 18.4431 26.4716C18.2796 26.4471 18.1227 26.3891 17.9817 26.3012C17.8407 26.2132 17.7186 26.0971 17.6227 25.9598C17.5269 25.8225 17.4593 25.6669 17.424 25.5022C17.3888 25.3376 17.3864 25.1674 17.4173 25.0018C17.4482 24.8363 17.5116 24.6788 17.6038 24.5389C17.6959 24.399 17.8149 24.2795 17.9535 24.1877C18.0921 24.0958 18.2475 24.0336 18.4103 24.0046V24.0028ZM18.4103 28.881C18.4603 28.8779 18.5105 28.8779 18.5605 28.881C18.684 28.8612 18.8097 28.8612 18.9332 28.881H33.2825C33.5997 28.881 33.9041 29.0095 34.1284 29.2382C34.3527 29.4669 34.4787 29.7771 34.4787 30.1006C34.4787 30.424 34.3527 30.7341 34.1284 30.9629C33.9041 31.1916 33.5997 31.3201 33.2825 31.3201H18.9332C18.7734 31.363 18.6067 31.3725 18.4431 31.348C18.2796 31.3235 18.1227 31.2655 17.9817 31.1776C17.8407 31.0896 17.7186 30.9735 17.6227 30.8362C17.5269 30.6989 17.4593 30.5433 17.424 30.3787C17.3888 30.214 17.3864 30.0438 17.4173 29.8782C17.4482 29.7127 17.5116 29.5552 17.6038 29.4153C17.6959 29.2754 17.8149 29.1559 17.9535 29.0641C18.0921 28.9722 18.2475 28.91 18.4103 28.881Z" fill="white"/>
<defs>
<linearGradient id="paint0_linear_782_4598" x1="7.17927" y1="0.457236" x2="51.7881" y2="55.5704" gradientUnits="userSpaceOnUse">
<stop stop-color="#FFD800"/>
<stop offset="1" stop-color="#FF6100"/>
</linearGradient>
</defs>
</svg>
