<svg width="65" height="65" viewBox="0 0 65 65" fill="none" xmlns="http://www.w3.org/2000/svg">
<g clip-path="url(#clip0_736_3894)" filter="url(#filter0_d_736_3894)">
<path d="M60.9969 42.5918C60.9969 42.9038 60.9873 43.5807 60.9686 44.1036C60.9227 45.3828 60.8213 47.0337 60.6679 47.7858C60.4374 48.9161 60.0895 49.983 59.6358 50.871C59.099 51.9214 58.4144 52.8624 57.6008 53.6744C56.789 54.4849 55.8489 55.1669 54.8001 55.7015C53.9074 56.1564 52.8339 56.5045 51.6971 56.734C50.9524 56.8844 49.314 56.9838 48.0429 57.029C47.5195 57.0477 46.8425 57.0571 46.5316 57.0571L18.4643 57.0526C18.1522 57.0526 17.4755 57.0431 16.9526 57.0243C15.6733 56.9784 14.0225 56.877 13.2703 56.7237C12.14 56.4931 11.0731 56.1452 10.1851 55.6916C9.13465 55.1548 8.19376 54.4701 7.38167 53.6565C6.5712 52.8447 5.88921 51.9047 5.35467 50.8558C4.89967 49.9631 4.55154 48.8896 4.32204 47.7529C4.17175 47.0082 4.07228 45.3698 4.02702 44.0986C4.00843 43.5753 3.99902 42.8983 3.99902 42.5874L4.00348 14.5201C4.00348 14.2079 4.013 13.5311 4.03175 13.0083C4.07768 11.7289 4.17904 10.0782 4.3324 9.32604C4.5629 8.19572 4.9108 7.12881 5.36452 6.2408C5.90129 5.19037 6.58601 4.24942 7.39954 3.43734C8.21135 2.62692 9.1514 1.94487 10.2003 1.41027C11.093 0.955388 12.1666 0.607265 13.3033 0.377762C14.0479 0.227413 15.6864 0.127941 16.9575 0.0827422C17.4809 0.0640947 18.1579 0.0546875 18.4687 0.0546875L46.5361 0.0591963C46.8482 0.0591963 47.525 0.0687148 48.0478 0.0874736C49.3272 0.133396 50.9779 0.234761 51.7301 0.388115C52.8604 0.61862 53.9273 0.966521 54.8153 1.42024C55.8657 1.95701 56.8066 2.64173 57.6187 3.45526C58.4291 4.26707 59.1112 5.20707 59.6457 6.256C60.1007 7.14868 60.4488 8.22222 60.6783 9.35894C60.8286 10.1036 60.9281 11.742 60.9734 13.0132C60.992 13.5366 61.0014 14.2136 61.0014 14.5245L60.9969 42.5918Z" fill="url(#paint0_linear_736_3894)"/>
<path d="M47.6017 13.9927C43.7426 10.1303 38.6104 8.00217 33.1423 8C21.8758 8 12.7062 17.1661 12.7017 28.4327C12.7002 32.0341 13.6414 35.5496 15.4301 38.6483L12.5303 49.2372L23.3661 46.3957C26.3517 48.0236 29.713 48.8815 33.1342 48.8829H33.1426C44.408 48.8829 53.5784 39.7157 53.583 28.449C53.5851 22.9891 51.461 17.855 47.6017 13.9927ZM33.1426 45.4318H33.1356C30.0871 45.4306 27.097 44.6119 24.4885 43.0645L23.8681 42.6964L17.438 44.3826L19.1543 38.1153L18.7502 37.4727C17.0496 34.7686 16.1514 31.6431 16.1527 28.4341C16.1564 19.0697 23.7779 11.4512 33.1491 11.4512C37.6869 11.4529 41.9526 13.2219 45.1603 16.4321C48.3679 19.6423 50.1334 23.9096 50.1317 28.4477C50.1281 37.8128 42.5066 45.4318 33.1426 45.4318ZM42.4616 32.7117C41.9507 32.4562 39.4398 31.2209 38.9716 31.0505C38.5035 30.8801 38.163 30.7949 37.8224 31.3062C37.482 31.8173 36.5032 32.9673 36.2052 33.3081C35.9073 33.6488 35.6094 33.6915 35.0987 33.4359C34.5879 33.1803 32.9422 32.6411 30.9914 30.9017C29.4732 29.548 28.4481 27.8759 28.1502 27.3646C27.8523 26.8535 28.1185 26.5772 28.3742 26.3226C28.6039 26.0939 28.8849 25.7263 29.1403 25.4281C29.3956 25.1301 29.4808 24.917 29.651 24.5763C29.8213 24.2355 29.7361 23.9373 29.6084 23.6817C29.4808 23.4262 28.4593 20.9131 28.0337 19.8908C27.6191 18.8952 27.198 19.0299 26.8845 19.0142C26.5869 18.9994 26.2461 18.9963 25.9056 18.9963C25.5652 18.9963 25.0118 19.1241 24.5437 19.6352C24.0756 20.1464 22.7562 21.3816 22.7562 23.8947C22.7562 26.4078 24.5862 28.8357 24.8416 29.1764C25.097 29.5172 28.443 34.6744 33.5664 36.886C34.785 37.412 35.7363 37.7262 36.4781 37.9615C37.7016 38.35 38.815 38.2952 39.6951 38.1638C40.6764 38.0172 42.7168 36.9287 43.1425 35.736C43.5681 34.5433 43.5681 33.5211 43.4404 33.3081C43.3127 33.0951 42.9723 32.9673 42.4616 32.7117Z" fill="white"/>
</g>
<defs>
<filter id="filter0_d_736_3894" x="0" y="0" width="65" height="65" filterUnits="userSpaceOnUse" color-interpolation-filters="sRGB">
<feFlood flood-opacity="0" result="BackgroundImageFix"/>
<feColorMatrix in="SourceAlpha" type="matrix" values="0 0 0 0 0 0 0 0 0 0 0 0 0 0 0 0 0 0 127 0" result="hardAlpha"/>
<feOffset dy="4"/>
<feGaussianBlur stdDeviation="2"/>
<feComposite in2="hardAlpha" operator="out"/>
<feColorMatrix type="matrix" values="0 0 0 0 0 0 0 0 0 0 0 0 0 0 0 0 0 0 0.25 0"/>
<feBlend mode="normal" in2="BackgroundImageFix" result="effect1_dropShadow_736_3894"/>
<feBlend mode="normal" in="SourceGraphic" in2="effect1_dropShadow_736_3894" result="shape"/>
</filter>
<linearGradient id="paint0_linear_736_3894" x1="32.5002" y1="0.0546875" x2="32.5002" y2="57.0572" gradientUnits="userSpaceOnUse">
<stop stop-color="#61FD7D"/>
<stop offset="1" stop-color="#2BB826"/>
</linearGradient>
<clipPath id="clip0_736_3894">
<rect width="57" height="57" fill="white" transform="translate(4)"/>
</clipPath>
</defs>
</svg>
